<?xml version="1.0" encoding="utf-8" standalone="no"?>
<!DOCTYPE svg PUBLIC "-//W3C//DTD SVG 1.1//EN"
  "http://www.w3.org/Graphics/SVG/1.1/DTD/svg11.dtd">
<svg xmlns:xlink="http://www.w3.org/1999/xlink" width="608.142187pt" height="392.514375pt" viewBox="0 0 608.142187 392.514375" xmlns="http://www.w3.org/2000/svg" version="1.1">
 <metadata>
  <rdf:RDF xmlns:dc="http://purl.org/dc/elements/1.1/" xmlns:cc="http://creativecommons.org/ns#" xmlns:rdf="http://www.w3.org/1999/02/22-rdf-syntax-ns#">
   <cc:Work>
    <dc:type rdf:resource="http://purl.org/dc/dcmitype/StillImage"/>
    <dc:date>2026-03-29T12:35:50.344486</dc:date>
    <dc:format>image/svg+xml</dc:format>
    <dc:creator>
     <cc:Agent>
      <dc:title>Matplotlib v3.10.0, https://matplotlib.org/</dc:title>
     </cc:Agent>
    </dc:creator>
   </cc:Work>
  </rdf:RDF>
 </metadata>
 <defs>
  <style type="text/css">*{stroke-linejoin: round; stroke-linecap: butt}</style>
 </defs>
 <g id="figure_1">
  <g id="patch_1">
   <path d="M 0 392.514375 
L 608.142187 392.514375 
L 608.142187 0 
L 0 0 
z
" style="fill: #ffffff"/>
  </g>
  <g id="axes_1">
   <g id="patch_2">
    <path d="M 42.942188 354.958125 
L 600.942188 354.958125 
L 600.942188 22.318125 
L 42.942188 22.318125 
z
" style="fill: #ffffff"/>
   </g>
   <g id="matplotlib.axis_1">
    <g id="xtick_1">
     <g id="line2d_1">
      <path d="M 47.515958 354.958125 
L 47.515958 22.318125 
" clip-path="url(#p9a7b9f5870)" style="fill: none; stroke: #b0b0b0; stroke-opacity: 0.3; stroke-width: 0.8; stroke-linecap: square"/>
     </g>
     <g id="line2d_2">
      <defs>
       <path id="mf3447387b1" d="M 0 0 
L 0 3.5 
" style="stroke: #000000; stroke-width: 0.8"/>
      </defs>
      <g>
       <use xlink:href="#mf3447387b1" x="47.515958" y="354.958125" style="stroke: #000000; stroke-width: 0.8"/>
      </g>
     </g>
     <g id="text_1">
      <!-- 0 -->
      <g transform="translate(44.334708 369.556562) scale(0.1 -0.1)">
       <defs>
        <path id="DejaVuSans-30" d="M 2034 4250 
Q 1547 4250 1301 3770 
Q 1056 3291 1056 2328 
Q 1056 1369 1301 889 
Q 1547 409 2034 409 
Q 2525 409 2770 889 
Q 3016 1369 3016 2328 
Q 3016 3291 2770 3770 
Q 2525 4250 2034 4250 
z
M 2034 4750 
Q 2819 4750 3233 4129 
Q 3647 3509 3647 2328 
Q 3647 1150 3233 529 
Q 2819 -91 2034 -91 
Q 1250 -91 836 529 
Q 422 1150 422 2328 
Q 422 3509 836 4129 
Q 1250 4750 2034 4750 
z
" transform="scale(0.015625)"/>
       </defs>
       <use xlink:href="#DejaVuSans-30"/>
      </g>
     </g>
    </g>
    <g id="xtick_2">
     <g id="line2d_3">
      <path d="M 130.675421 354.958125 
L 130.675421 22.318125 
" clip-path="url(#p9a7b9f5870)" style="fill: none; stroke: #b0b0b0; stroke-opacity: 0.3; stroke-width: 0.8; stroke-linecap: square"/>
     </g>
     <g id="line2d_4">
      <g>
       <use xlink:href="#mf3447387b1" x="130.675421" y="354.958125" style="stroke: #000000; stroke-width: 0.8"/>
      </g>
     </g>
     <g id="text_2">
      <!-- 20 -->
      <g transform="translate(124.312921 369.556562) scale(0.1 -0.1)">
       <defs>
        <path id="DejaVuSans-32" d="M 1228 531 
L 3431 531 
L 3431 0 
L 469 0 
L 469 531 
Q 828 903 1448 1529 
Q 2069 2156 2228 2338 
Q 2531 2678 2651 2914 
Q 2772 3150 2772 3378 
Q 2772 3750 2511 3984 
Q 2250 4219 1831 4219 
Q 1534 4219 1204 4116 
Q 875 4013 500 3803 
L 500 4441 
Q 881 4594 1212 4672 
Q 1544 4750 1819 4750 
Q 2544 4750 2975 4387 
Q 3406 4025 3406 3419 
Q 3406 3131 3298 2873 
Q 3191 2616 2906 2266 
Q 2828 2175 2409 1742 
Q 1991 1309 1228 531 
z
" transform="scale(0.015625)"/>
       </defs>
       <use xlink:href="#DejaVuSans-32"/>
       <use xlink:href="#DejaVuSans-30" transform="translate(63.623047 0)"/>
      </g>
     </g>
    </g>
    <g id="xtick_3">
     <g id="line2d_5">
      <path d="M 213.834885 354.958125 
L 213.834885 22.318125 
" clip-path="url(#p9a7b9f5870)" style="fill: none; stroke: #b0b0b0; stroke-opacity: 0.3; stroke-width: 0.8; stroke-linecap: square"/>
     </g>
     <g id="line2d_6">
      <g>
       <use xlink:href="#mf3447387b1" x="213.834885" y="354.958125" style="stroke: #000000; stroke-width: 0.8"/>
      </g>
     </g>
     <g id="text_3">
      <!-- 40 -->
      <g transform="translate(207.472385 369.556562) scale(0.1 -0.1)">
       <defs>
        <path id="DejaVuSans-34" d="M 2419 4116 
L 825 1625 
L 2419 1625 
L 2419 4116 
z
M 2253 4666 
L 3047 4666 
L 3047 1625 
L 3713 1625 
L 3713 1100 
L 3047 1100 
L 3047 0 
L 2419 0 
L 2419 1100 
L 313 1100 
L 313 1709 
L 2253 4666 
z
" transform="scale(0.015625)"/>
       </defs>
       <use xlink:href="#DejaVuSans-34"/>
       <use xlink:href="#DejaVuSans-30" transform="translate(63.623047 0)"/>
      </g>
     </g>
    </g>
    <g id="xtick_4">
     <g id="line2d_7">
      <path d="M 296.994348 354.958125 
L 296.994348 22.318125 
" clip-path="url(#p9a7b9f5870)" style="fill: none; stroke: #b0b0b0; stroke-opacity: 0.3; stroke-width: 0.8; stroke-linecap: square"/>
     </g>
     <g id="line2d_8">
      <g>
       <use xlink:href="#mf3447387b1" x="296.994348" y="354.958125" style="stroke: #000000; stroke-width: 0.8"/>
      </g>
     </g>
     <g id="text_4">
      <!-- 60 -->
      <g transform="translate(290.631848 369.556562) scale(0.1 -0.1)">
       <defs>
        <path id="DejaVuSans-36" d="M 2113 2584 
Q 1688 2584 1439 2293 
Q 1191 2003 1191 1497 
Q 1191 994 1439 701 
Q 1688 409 2113 409 
Q 2538 409 2786 701 
Q 3034 994 3034 1497 
Q 3034 2003 2786 2293 
Q 2538 2584 2113 2584 
z
M 3366 4563 
L 3366 3988 
Q 3128 4100 2886 4159 
Q 2644 4219 2406 4219 
Q 1781 4219 1451 3797 
Q 1122 3375 1075 2522 
Q 1259 2794 1537 2939 
Q 1816 3084 2150 3084 
Q 2853 3084 3261 2657 
Q 3669 2231 3669 1497 
Q 3669 778 3244 343 
Q 2819 -91 2113 -91 
Q 1303 -91 875 529 
Q 447 1150 447 2328 
Q 447 3434 972 4092 
Q 1497 4750 2381 4750 
Q 2619 4750 2861 4703 
Q 3103 4656 3366 4563 
z
" transform="scale(0.015625)"/>
       </defs>
       <use xlink:href="#DejaVuSans-36"/>
       <use xlink:href="#DejaVuSans-30" transform="translate(63.623047 0)"/>
      </g>
     </g>
    </g>
    <g id="xtick_5">
     <g id="line2d_9">
      <path d="M 380.153812 354.958125 
L 380.153812 22.318125 
" clip-path="url(#p9a7b9f5870)" style="fill: none; stroke: #b0b0b0; stroke-opacity: 0.3; stroke-width: 0.8; stroke-linecap: square"/>
     </g>
     <g id="line2d_10">
      <g>
       <use xlink:href="#mf3447387b1" x="380.153812" y="354.958125" style="stroke: #000000; stroke-width: 0.8"/>
      </g>
     </g>
     <g id="text_5">
      <!-- 80 -->
      <g transform="translate(373.791312 369.556562) scale(0.1 -0.1)">
       <defs>
        <path id="DejaVuSans-38" d="M 2034 2216 
Q 1584 2216 1326 1975 
Q 1069 1734 1069 1313 
Q 1069 891 1326 650 
Q 1584 409 2034 409 
Q 2484 409 2743 651 
Q 3003 894 3003 1313 
Q 3003 1734 2745 1975 
Q 2488 2216 2034 2216 
z
M 1403 2484 
Q 997 2584 770 2862 
Q 544 3141 544 3541 
Q 544 4100 942 4425 
Q 1341 4750 2034 4750 
Q 2731 4750 3128 4425 
Q 3525 4100 3525 3541 
Q 3525 3141 3298 2862 
Q 3072 2584 2669 2484 
Q 3125 2378 3379 2068 
Q 3634 1759 3634 1313 
Q 3634 634 3220 271 
Q 2806 -91 2034 -91 
Q 1263 -91 848 271 
Q 434 634 434 1313 
Q 434 1759 690 2068 
Q 947 2378 1403 2484 
z
M 1172 3481 
Q 1172 3119 1398 2916 
Q 1625 2713 2034 2713 
Q 2441 2713 2670 2916 
Q 2900 3119 2900 3481 
Q 2900 3844 2670 4047 
Q 2441 4250 2034 4250 
Q 1625 4250 1398 4047 
Q 1172 3844 1172 3481 
z
" transform="scale(0.015625)"/>
       </defs>
       <use xlink:href="#DejaVuSans-38"/>
       <use xlink:href="#DejaVuSans-30" transform="translate(63.623047 0)"/>
      </g>
     </g>
    </g>
    <g id="xtick_6">
     <g id="line2d_11">
      <path d="M 463.313275 354.958125 
L 463.313275 22.318125 
" clip-path="url(#p9a7b9f5870)" style="fill: none; stroke: #b0b0b0; stroke-opacity: 0.3; stroke-width: 0.8; stroke-linecap: square"/>
     </g>
     <g id="line2d_12">
      <g>
       <use xlink:href="#mf3447387b1" x="463.313275" y="354.958125" style="stroke: #000000; stroke-width: 0.8"/>
      </g>
     </g>
     <g id="text_6">
      <!-- 100 -->
      <g transform="translate(453.769525 369.556562) scale(0.1 -0.1)">
       <defs>
        <path id="DejaVuSans-31" d="M 794 531 
L 1825 531 
L 1825 4091 
L 703 3866 
L 703 4441 
L 1819 4666 
L 2450 4666 
L 2450 531 
L 3481 531 
L 3481 0 
L 794 0 
L 794 531 
z
" transform="scale(0.015625)"/>
       </defs>
       <use xlink:href="#DejaVuSans-31"/>
       <use xlink:href="#DejaVuSans-30" transform="translate(63.623047 0)"/>
       <use xlink:href="#DejaVuSans-30" transform="translate(127.246094 0)"/>
      </g>
     </g>
    </g>
    <g id="xtick_7">
     <g id="line2d_13">
      <path d="M 546.472739 354.958125 
L 546.472739 22.318125 
" clip-path="url(#p9a7b9f5870)" style="fill: none; stroke: #b0b0b0; stroke-opacity: 0.3; stroke-width: 0.8; stroke-linecap: square"/>
     </g>
     <g id="line2d_14">
      <g>
       <use xlink:href="#mf3447387b1" x="546.472739" y="354.958125" style="stroke: #000000; stroke-width: 0.8"/>
      </g>
     </g>
     <g id="text_7">
      <!-- 120 -->
      <g transform="translate(536.928989 369.556562) scale(0.1 -0.1)">
       <use xlink:href="#DejaVuSans-31"/>
       <use xlink:href="#DejaVuSans-32" transform="translate(63.623047 0)"/>
       <use xlink:href="#DejaVuSans-30" transform="translate(127.246094 0)"/>
      </g>
     </g>
    </g>
    <g id="text_8">
     <!-- Timestep t -->
     <g transform="translate(295.34375 383.234687) scale(0.1 -0.1)">
      <defs>
       <path id="DejaVuSans-54" d="M -19 4666 
L 3928 4666 
L 3928 4134 
L 2272 4134 
L 2272 0 
L 1638 0 
L 1638 4134 
L -19 4134 
L -19 4666 
z
" transform="scale(0.015625)"/>
       <path id="DejaVuSans-69" d="M 603 3500 
L 1178 3500 
L 1178 0 
L 603 0 
L 603 3500 
z
M 603 4863 
L 1178 4863 
L 1178 4134 
L 603 4134 
L 603 4863 
z
" transform="scale(0.015625)"/>
       <path id="DejaVuSans-6d" d="M 3328 2828 
Q 3544 3216 3844 3400 
Q 4144 3584 4550 3584 
Q 5097 3584 5394 3201 
Q 5691 2819 5691 2113 
L 5691 0 
L 5113 0 
L 5113 2094 
Q 5113 2597 4934 2840 
Q 4756 3084 4391 3084 
Q 3944 3084 3684 2787 
Q 3425 2491 3425 1978 
L 3425 0 
L 2847 0 
L 2847 2094 
Q 2847 2600 2669 2842 
Q 2491 3084 2119 3084 
Q 1678 3084 1418 2786 
Q 1159 2488 1159 1978 
L 1159 0 
L 581 0 
L 581 3500 
L 1159 3500 
L 1159 2956 
Q 1356 3278 1631 3431 
Q 1906 3584 2284 3584 
Q 2666 3584 2933 3390 
Q 3200 3197 3328 2828 
z
" transform="scale(0.015625)"/>
       <path id="DejaVuSans-65" d="M 3597 1894 
L 3597 1613 
L 953 1613 
Q 991 1019 1311 708 
Q 1631 397 2203 397 
Q 2534 397 2845 478 
Q 3156 559 3463 722 
L 3463 178 
Q 3153 47 2828 -22 
Q 2503 -91 2169 -91 
Q 1331 -91 842 396 
Q 353 884 353 1716 
Q 353 2575 817 3079 
Q 1281 3584 2069 3584 
Q 2775 3584 3186 3129 
Q 3597 2675 3597 1894 
z
M 3022 2063 
Q 3016 2534 2758 2815 
Q 2500 3097 2075 3097 
Q 1594 3097 1305 2825 
Q 1016 2553 972 2059 
L 3022 2063 
z
" transform="scale(0.015625)"/>
       <path id="DejaVuSans-73" d="M 2834 3397 
L 2834 2853 
Q 2591 2978 2328 3040 
Q 2066 3103 1784 3103 
Q 1356 3103 1142 2972 
Q 928 2841 928 2578 
Q 928 2378 1081 2264 
Q 1234 2150 1697 2047 
L 1894 2003 
Q 2506 1872 2764 1633 
Q 3022 1394 3022 966 
Q 3022 478 2636 193 
Q 2250 -91 1575 -91 
Q 1294 -91 989 -36 
Q 684 19 347 128 
L 347 722 
Q 666 556 975 473 
Q 1284 391 1588 391 
Q 1994 391 2212 530 
Q 2431 669 2431 922 
Q 2431 1156 2273 1281 
Q 2116 1406 1581 1522 
L 1381 1569 
Q 847 1681 609 1914 
Q 372 2147 372 2553 
Q 372 3047 722 3315 
Q 1072 3584 1716 3584 
Q 2034 3584 2315 3537 
Q 2597 3491 2834 3397 
z
" transform="scale(0.015625)"/>
       <path id="DejaVuSans-74" d="M 1172 4494 
L 1172 3500 
L 2356 3500 
L 2356 3053 
L 1172 3053 
L 1172 1153 
Q 1172 725 1289 603 
Q 1406 481 1766 481 
L 2356 481 
L 2356 0 
L 1766 0 
Q 1100 0 847 248 
Q 594 497 594 1153 
L 594 3053 
L 172 3053 
L 172 3500 
L 594 3500 
L 594 4494 
L 1172 4494 
z
" transform="scale(0.015625)"/>
       <path id="DejaVuSans-70" d="M 1159 525 
L 1159 -1331 
L 581 -1331 
L 581 3500 
L 1159 3500 
L 1159 2969 
Q 1341 3281 1617 3432 
Q 1894 3584 2278 3584 
Q 2916 3584 3314 3078 
Q 3713 2572 3713 1747 
Q 3713 922 3314 415 
Q 2916 -91 2278 -91 
Q 1894 -91 1617 61 
Q 1341 213 1159 525 
z
M 3116 1747 
Q 3116 2381 2855 2742 
Q 2594 3103 2138 3103 
Q 1681 3103 1420 2742 
Q 1159 2381 1159 1747 
Q 1159 1113 1420 752 
Q 1681 391 2138 391 
Q 2594 391 2855 752 
Q 3116 1113 3116 1747 
z
" transform="scale(0.015625)"/>
       <path id="DejaVuSans-20" transform="scale(0.015625)"/>
      </defs>
      <use xlink:href="#DejaVuSans-54"/>
      <use xlink:href="#DejaVuSans-69" transform="translate(57.958984 0)"/>
      <use xlink:href="#DejaVuSans-6d" transform="translate(85.742188 0)"/>
      <use xlink:href="#DejaVuSans-65" transform="translate(183.154297 0)"/>
      <use xlink:href="#DejaVuSans-73" transform="translate(244.677734 0)"/>
      <use xlink:href="#DejaVuSans-74" transform="translate(296.777344 0)"/>
      <use xlink:href="#DejaVuSans-65" transform="translate(335.986328 0)"/>
      <use xlink:href="#DejaVuSans-70" transform="translate(397.509766 0)"/>
      <use xlink:href="#DejaVuSans-20" transform="translate(460.986328 0)"/>
      <use xlink:href="#DejaVuSans-74" transform="translate(492.773438 0)"/>
     </g>
    </g>
   </g>
   <g id="matplotlib.axis_2">
    <g id="ytick_1">
     <g id="line2d_15">
      <path d="M 42.942188 328.357765 
L 600.942188 328.357765 
" clip-path="url(#p9a7b9f5870)" style="fill: none; stroke: #b0b0b0; stroke-opacity: 0.3; stroke-width: 0.8; stroke-linecap: square"/>
     </g>
     <g id="line2d_16">
      <defs>
       <path id="m1b02ceef64" d="M 0 0 
L -3.5 0 
" style="stroke: #000000; stroke-width: 0.8"/>
      </defs>
      <g>
       <use xlink:href="#m1b02ceef64" x="42.942188" y="328.357765" style="stroke: #000000; stroke-width: 0.8"/>
      </g>
     </g>
     <g id="text_9">
      <!-- −2 -->
      <g transform="translate(21.2 332.156984) scale(0.1 -0.1)">
       <defs>
        <path id="DejaVuSans-2212" d="M 678 2272 
L 4684 2272 
L 4684 1741 
L 678 1741 
L 678 2272 
z
" transform="scale(0.015625)"/>
       </defs>
       <use xlink:href="#DejaVuSans-2212"/>
       <use xlink:href="#DejaVuSans-32" transform="translate(83.789062 0)"/>
      </g>
     </g>
    </g>
    <g id="ytick_2">
     <g id="line2d_17">
      <path d="M 42.942188 262.942706 
L 600.942188 262.942706 
" clip-path="url(#p9a7b9f5870)" style="fill: none; stroke: #b0b0b0; stroke-opacity: 0.3; stroke-width: 0.8; stroke-linecap: square"/>
     </g>
     <g id="line2d_18">
      <g>
       <use xlink:href="#m1b02ceef64" x="42.942188" y="262.942706" style="stroke: #000000; stroke-width: 0.8"/>
      </g>
     </g>
     <g id="text_10">
      <!-- −1 -->
      <g transform="translate(21.2 266.741924) scale(0.1 -0.1)">
       <use xlink:href="#DejaVuSans-2212"/>
       <use xlink:href="#DejaVuSans-31" transform="translate(83.789062 0)"/>
      </g>
     </g>
    </g>
    <g id="ytick_3">
     <g id="line2d_19">
      <path d="M 42.942188 197.527646 
L 600.942188 197.527646 
" clip-path="url(#p9a7b9f5870)" style="fill: none; stroke: #b0b0b0; stroke-opacity: 0.3; stroke-width: 0.8; stroke-linecap: square"/>
     </g>
     <g id="line2d_20">
      <g>
       <use xlink:href="#m1b02ceef64" x="42.942188" y="197.527646" style="stroke: #000000; stroke-width: 0.8"/>
      </g>
     </g>
     <g id="text_11">
      <!-- 0 -->
      <g transform="translate(29.579688 201.326865) scale(0.1 -0.1)">
       <use xlink:href="#DejaVuSans-30"/>
      </g>
     </g>
    </g>
    <g id="ytick_4">
     <g id="line2d_21">
      <path d="M 42.942188 132.112587 
L 600.942188 132.112587 
" clip-path="url(#p9a7b9f5870)" style="fill: none; stroke: #b0b0b0; stroke-opacity: 0.3; stroke-width: 0.8; stroke-linecap: square"/>
     </g>
     <g id="line2d_22">
      <g>
       <use xlink:href="#m1b02ceef64" x="42.942188" y="132.112587" style="stroke: #000000; stroke-width: 0.8"/>
      </g>
     </g>
     <g id="text_12">
      <!-- 1 -->
      <g transform="translate(29.579688 135.911806) scale(0.1 -0.1)">
       <use xlink:href="#DejaVuSans-31"/>
      </g>
     </g>
    </g>
    <g id="ytick_5">
     <g id="line2d_23">
      <path d="M 42.942188 66.697527 
L 600.942188 66.697527 
" clip-path="url(#p9a7b9f5870)" style="fill: none; stroke: #b0b0b0; stroke-opacity: 0.3; stroke-width: 0.8; stroke-linecap: square"/>
     </g>
     <g id="line2d_24">
      <g>
       <use xlink:href="#m1b02ceef64" x="42.942188" y="66.697527" style="stroke: #000000; stroke-width: 0.8"/>
      </g>
     </g>
     <g id="text_13">
      <!-- 2 -->
      <g transform="translate(29.579688 70.496746) scale(0.1 -0.1)">
       <use xlink:href="#DejaVuSans-32"/>
      </g>
     </g>
    </g>
    <g id="text_14">
     <!-- Normalized Contribution (v_i^T o_t) / ||o_t|| -->
     <g transform="translate(14.842188 297.438125) rotate(-90) scale(0.1 -0.1)">
      <defs>
       <path id="DejaVuSans-4e" d="M 628 4666 
L 1478 4666 
L 3547 763 
L 3547 4666 
L 4159 4666 
L 4159 0 
L 3309 0 
L 1241 3903 
L 1241 0 
L 628 0 
L 628 4666 
z
" transform="scale(0.015625)"/>
       <path id="DejaVuSans-6f" d="M 1959 3097 
Q 1497 3097 1228 2736 
Q 959 2375 959 1747 
Q 959 1119 1226 758 
Q 1494 397 1959 397 
Q 2419 397 2687 759 
Q 2956 1122 2956 1747 
Q 2956 2369 2687 2733 
Q 2419 3097 1959 3097 
z
M 1959 3584 
Q 2709 3584 3137 3096 
Q 3566 2609 3566 1747 
Q 3566 888 3137 398 
Q 2709 -91 1959 -91 
Q 1206 -91 779 398 
Q 353 888 353 1747 
Q 353 2609 779 3096 
Q 1206 3584 1959 3584 
z
" transform="scale(0.015625)"/>
       <path id="DejaVuSans-72" d="M 2631 2963 
Q 2534 3019 2420 3045 
Q 2306 3072 2169 3072 
Q 1681 3072 1420 2755 
Q 1159 2438 1159 1844 
L 1159 0 
L 581 0 
L 581 3500 
L 1159 3500 
L 1159 2956 
Q 1341 3275 1631 3429 
Q 1922 3584 2338 3584 
Q 2397 3584 2469 3576 
Q 2541 3569 2628 3553 
L 2631 2963 
z
" transform="scale(0.015625)"/>
       <path id="DejaVuSans-61" d="M 2194 1759 
Q 1497 1759 1228 1600 
Q 959 1441 959 1056 
Q 959 750 1161 570 
Q 1363 391 1709 391 
Q 2188 391 2477 730 
Q 2766 1069 2766 1631 
L 2766 1759 
L 2194 1759 
z
M 3341 1997 
L 3341 0 
L 2766 0 
L 2766 531 
Q 2569 213 2275 61 
Q 1981 -91 1556 -91 
Q 1019 -91 701 211 
Q 384 513 384 1019 
Q 384 1609 779 1909 
Q 1175 2209 1959 2209 
L 2766 2209 
L 2766 2266 
Q 2766 2663 2505 2880 
Q 2244 3097 1772 3097 
Q 1472 3097 1187 3025 
Q 903 2953 641 2809 
L 641 3341 
Q 956 3463 1253 3523 
Q 1550 3584 1831 3584 
Q 2591 3584 2966 3190 
Q 3341 2797 3341 1997 
z
" transform="scale(0.015625)"/>
       <path id="DejaVuSans-6c" d="M 603 4863 
L 1178 4863 
L 1178 0 
L 603 0 
L 603 4863 
z
" transform="scale(0.015625)"/>
       <path id="DejaVuSans-7a" d="M 353 3500 
L 3084 3500 
L 3084 2975 
L 922 459 
L 3084 459 
L 3084 0 
L 275 0 
L 275 525 
L 2438 3041 
L 353 3041 
L 353 3500 
z
" transform="scale(0.015625)"/>
       <path id="DejaVuSans-64" d="M 2906 2969 
L 2906 4863 
L 3481 4863 
L 3481 0 
L 2906 0 
L 2906 525 
Q 2725 213 2448 61 
Q 2172 -91 1784 -91 
Q 1150 -91 751 415 
Q 353 922 353 1747 
Q 353 2572 751 3078 
Q 1150 3584 1784 3584 
Q 2172 3584 2448 3432 
Q 2725 3281 2906 2969 
z
M 947 1747 
Q 947 1113 1208 752 
Q 1469 391 1925 391 
Q 2381 391 2643 752 
Q 2906 1113 2906 1747 
Q 2906 2381 2643 2742 
Q 2381 3103 1925 3103 
Q 1469 3103 1208 2742 
Q 947 2381 947 1747 
z
" transform="scale(0.015625)"/>
       <path id="DejaVuSans-43" d="M 4122 4306 
L 4122 3641 
Q 3803 3938 3442 4084 
Q 3081 4231 2675 4231 
Q 1875 4231 1450 3742 
Q 1025 3253 1025 2328 
Q 1025 1406 1450 917 
Q 1875 428 2675 428 
Q 3081 428 3442 575 
Q 3803 722 4122 1019 
L 4122 359 
Q 3791 134 3420 21 
Q 3050 -91 2638 -91 
Q 1578 -91 968 557 
Q 359 1206 359 2328 
Q 359 3453 968 4101 
Q 1578 4750 2638 4750 
Q 3056 4750 3426 4639 
Q 3797 4528 4122 4306 
z
" transform="scale(0.015625)"/>
       <path id="DejaVuSans-6e" d="M 3513 2113 
L 3513 0 
L 2938 0 
L 2938 2094 
Q 2938 2591 2744 2837 
Q 2550 3084 2163 3084 
Q 1697 3084 1428 2787 
Q 1159 2491 1159 1978 
L 1159 0 
L 581 0 
L 581 3500 
L 1159 3500 
L 1159 2956 
Q 1366 3272 1645 3428 
Q 1925 3584 2291 3584 
Q 2894 3584 3203 3211 
Q 3513 2838 3513 2113 
z
" transform="scale(0.015625)"/>
       <path id="DejaVuSans-62" d="M 3116 1747 
Q 3116 2381 2855 2742 
Q 2594 3103 2138 3103 
Q 1681 3103 1420 2742 
Q 1159 2381 1159 1747 
Q 1159 1113 1420 752 
Q 1681 391 2138 391 
Q 2594 391 2855 752 
Q 3116 1113 3116 1747 
z
M 1159 2969 
Q 1341 3281 1617 3432 
Q 1894 3584 2278 3584 
Q 2916 3584 3314 3078 
Q 3713 2572 3713 1747 
Q 3713 922 3314 415 
Q 2916 -91 2278 -91 
Q 1894 -91 1617 61 
Q 1341 213 1159 525 
L 1159 0 
L 581 0 
L 581 4863 
L 1159 4863 
L 1159 2969 
z
" transform="scale(0.015625)"/>
       <path id="DejaVuSans-75" d="M 544 1381 
L 544 3500 
L 1119 3500 
L 1119 1403 
Q 1119 906 1312 657 
Q 1506 409 1894 409 
Q 2359 409 2629 706 
Q 2900 1003 2900 1516 
L 2900 3500 
L 3475 3500 
L 3475 0 
L 2900 0 
L 2900 538 
Q 2691 219 2414 64 
Q 2138 -91 1772 -91 
Q 1169 -91 856 284 
Q 544 659 544 1381 
z
M 1991 3584 
L 1991 3584 
z
" transform="scale(0.015625)"/>
       <path id="DejaVuSans-28" d="M 1984 4856 
Q 1566 4138 1362 3434 
Q 1159 2731 1159 2009 
Q 1159 1288 1364 580 
Q 1569 -128 1984 -844 
L 1484 -844 
Q 1016 -109 783 600 
Q 550 1309 550 2009 
Q 550 2706 781 3412 
Q 1013 4119 1484 4856 
L 1984 4856 
z
" transform="scale(0.015625)"/>
       <path id="DejaVuSans-76" d="M 191 3500 
L 800 3500 
L 1894 563 
L 2988 3500 
L 3597 3500 
L 2284 0 
L 1503 0 
L 191 3500 
z
" transform="scale(0.015625)"/>
       <path id="DejaVuSans-5f" d="M 3263 -1063 
L 3263 -1509 
L -63 -1509 
L -63 -1063 
L 3263 -1063 
z
" transform="scale(0.015625)"/>
       <path id="DejaVuSans-5e" d="M 2988 4666 
L 4684 2925 
L 4056 2925 
L 2681 4159 
L 1306 2925 
L 678 2925 
L 2375 4666 
L 2988 4666 
z
" transform="scale(0.015625)"/>
       <path id="DejaVuSans-29" d="M 513 4856 
L 1013 4856 
Q 1481 4119 1714 3412 
Q 1947 2706 1947 2009 
Q 1947 1309 1714 600 
Q 1481 -109 1013 -844 
L 513 -844 
Q 928 -128 1133 580 
Q 1338 1288 1338 2009 
Q 1338 2731 1133 3434 
Q 928 4138 513 4856 
z
" transform="scale(0.015625)"/>
       <path id="DejaVuSans-2f" d="M 1625 4666 
L 2156 4666 
L 531 -594 
L 0 -594 
L 1625 4666 
z
" transform="scale(0.015625)"/>
       <path id="DejaVuSans-7c" d="M 1344 4891 
L 1344 -1509 
L 813 -1509 
L 813 4891 
L 1344 4891 
z
" transform="scale(0.015625)"/>
      </defs>
      <use xlink:href="#DejaVuSans-4e"/>
      <use xlink:href="#DejaVuSans-6f" transform="translate(74.804688 0)"/>
      <use xlink:href="#DejaVuSans-72" transform="translate(135.986328 0)"/>
      <use xlink:href="#DejaVuSans-6d" transform="translate(175.349609 0)"/>
      <use xlink:href="#DejaVuSans-61" transform="translate(272.761719 0)"/>
      <use xlink:href="#DejaVuSans-6c" transform="translate(334.041016 0)"/>
      <use xlink:href="#DejaVuSans-69" transform="translate(361.824219 0)"/>
      <use xlink:href="#DejaVuSans-7a" transform="translate(389.607422 0)"/>
      <use xlink:href="#DejaVuSans-65" transform="translate(442.097656 0)"/>
      <use xlink:href="#DejaVuSans-64" transform="translate(503.621094 0)"/>
      <use xlink:href="#DejaVuSans-20" transform="translate(567.097656 0)"/>
      <use xlink:href="#DejaVuSans-43" transform="translate(598.884766 0)"/>
      <use xlink:href="#DejaVuSans-6f" transform="translate(668.708984 0)"/>
      <use xlink:href="#DejaVuSans-6e" transform="translate(729.890625 0)"/>
      <use xlink:href="#DejaVuSans-74" transform="translate(793.269531 0)"/>
      <use xlink:href="#DejaVuSans-72" transform="translate(832.478516 0)"/>
      <use xlink:href="#DejaVuSans-69" transform="translate(873.591797 0)"/>
      <use xlink:href="#DejaVuSans-62" transform="translate(901.375 0)"/>
      <use xlink:href="#DejaVuSans-75" transform="translate(964.851562 0)"/>
      <use xlink:href="#DejaVuSans-74" transform="translate(1028.230469 0)"/>
      <use xlink:href="#DejaVuSans-69" transform="translate(1067.439453 0)"/>
      <use xlink:href="#DejaVuSans-6f" transform="translate(1095.222656 0)"/>
      <use xlink:href="#DejaVuSans-6e" transform="translate(1156.404297 0)"/>
      <use xlink:href="#DejaVuSans-20" transform="translate(1219.783203 0)"/>
      <use xlink:href="#DejaVuSans-28" transform="translate(1251.570312 0)"/>
      <use xlink:href="#DejaVuSans-76" transform="translate(1290.583984 0)"/>
      <use xlink:href="#DejaVuSans-5f" transform="translate(1349.763672 0)"/>
      <use xlink:href="#DejaVuSans-69" transform="translate(1399.763672 0)"/>
      <use xlink:href="#DejaVuSans-5e" transform="translate(1427.546875 0)"/>
      <use xlink:href="#DejaVuSans-54" transform="translate(1511.335938 0)"/>
      <use xlink:href="#DejaVuSans-20" transform="translate(1572.419922 0)"/>
      <use xlink:href="#DejaVuSans-6f" transform="translate(1604.207031 0)"/>
      <use xlink:href="#DejaVuSans-5f" transform="translate(1665.388672 0)"/>
      <use xlink:href="#DejaVuSans-74" transform="translate(1715.388672 0)"/>
      <use xlink:href="#DejaVuSans-29" transform="translate(1754.597656 0)"/>
      <use xlink:href="#DejaVuSans-20" transform="translate(1793.611328 0)"/>
      <use xlink:href="#DejaVuSans-2f" transform="translate(1825.398438 0)"/>
      <use xlink:href="#DejaVuSans-20" transform="translate(1859.089844 0)"/>
      <use xlink:href="#DejaVuSans-7c" transform="translate(1890.876953 0)"/>
      <use xlink:href="#DejaVuSans-7c" transform="translate(1924.568359 0)"/>
      <use xlink:href="#DejaVuSans-6f" transform="translate(1958.259766 0)"/>
      <use xlink:href="#DejaVuSans-5f" transform="translate(2019.441406 0)"/>
      <use xlink:href="#DejaVuSans-74" transform="translate(2069.441406 0)"/>
      <use xlink:href="#DejaVuSans-7c" transform="translate(2108.650391 0)"/>
      <use xlink:href="#DejaVuSans-7c" transform="translate(2142.341797 0)"/>
     </g>
    </g>
   </g>
   <g id="line2d_25">
    <path d="M 68.305824 189.512248 
L 72.463797 218.791888 
L 76.62177 198.963224 
L 80.779743 245.951733 
L 84.937717 67.182699 
L 89.09569 339.838125 
L 93.253663 37.438125 
L 97.411636 245.929274 
L 101.569609 131.478722 
L 105.727582 272.66717 
L 109.885556 281.880605 
L 114.043529 95.122396 
L 118.201502 172.84277 
L 122.359475 250.325763 
L 126.517448 171.357472 
L 130.675421 153.379507 
L 134.833395 179.950561 
L 138.991368 103.969543 
L 143.149341 101.85992 
L 147.307314 194.06934 
L 151.465287 127.611591 
L 155.623261 236.620293 
L 159.781234 135.254673 
L 163.939207 284.304122 
L 168.09718 201.109933 
L 172.255153 142.557215 
L 176.413126 140.327013 
L 180.5711 294.338397 
L 184.729073 219.18342 
L 188.887046 258.909094 
L 193.045019 263.862443 
L 197.202992 101.083909 
L 201.360965 60.134903 
L 205.518939 174.352813 
L 209.676912 239.458847 
L 213.834885 157.081476 
L 217.992858 258.032961 
L 222.150831 161.199928 
L 226.308804 216.567214 
L 230.466778 209.757174 
L 234.624751 306.231653 
L 238.782724 175.962237 
L 242.940697 223.975433 
L 247.09867 134.44326 
L 251.256644 216.573539 
L 255.414617 327.024499 
L 259.57259 169.827572 
L 263.730563 257.118413 
L 267.888536 164.442549 
L 272.046509 144.733246 
L 276.204483 196.847978 
L 280.362456 255.212263 
L 284.520429 204.591559 
L 288.678402 266.692415 
L 292.836375 207.472718 
L 296.994348 256.337872 
L 301.152322 122.587231 
L 305.310295 238.788023 
L 309.468268 250.270405 
L 313.626241 264.910727 
L 317.784214 224.6517 
L 321.942188 159.157015 
L 326.100161 177.421521 
L 330.258134 238.143971 
L 334.416107 170.825272 
L 338.57408 226.825098 
L 342.732053 292.363697 
L 346.890027 294.111226 
L 351.048 257.417793 
L 355.205973 143.178177 
L 359.363946 172.442258 
L 363.521919 259.703725 
L 367.679892 205.465077 
L 371.837866 208.18758 
L 375.995839 94.415094 
L 380.153812 80.022181 
L 384.311785 258.6008 
L 388.469758 194.054493 
L 392.627731 96.238769 
L 396.785705 129.634917 
L 400.943678 172.404369 
L 405.101651 209.340822 
L 409.259624 96.141078 
L 413.417597 145.582808 
L 417.575571 136.027327 
L 421.733544 180.963215 
L 425.891517 290.367581 
L 430.04949 229.682629 
L 434.207463 113.396534 
L 438.365436 285.512837 
L 442.52341 168.502611 
L 446.681383 302.243587 
L 450.839356 280.40354 
L 454.997329 150.378735 
L 459.155302 242.600579 
L 463.313275 105.11752 
L 467.471249 219.098612 
L 471.629222 134.782485 
L 475.787195 185.986484 
L 479.945168 234.620934 
L 484.103141 99.511124 
L 488.261114 176.360856 
L 492.419088 226.748154 
L 496.577061 275.825325 
L 500.735034 247.986951 
L 504.893007 199.940903 
L 509.05098 194.247296 
L 513.208954 302.489432 
L 517.366927 303.867933 
L 521.5249 99.837215 
L 525.682873 191.177805 
L 529.840846 173.458256 
L 533.998819 182.917894 
L 538.156793 190.980849 
L 542.314766 268.613201 
L 546.472739 255.454984 
L 550.630712 187.982471 
L 554.788685 251.928591 
L 558.946658 282.615646 
L 563.104632 212.701949 
L 567.262605 266.225636 
L 571.420578 136.871139 
L 575.578551 206.493256 
" clip-path="url(#p9a7b9f5870)" style="fill: none; stroke: #1f77b4; stroke-width: 1.5; stroke-linecap: square"/>
   </g>
   <g id="line2d_26">
    <path d="M 130.675421 99.742127 
L 134.833395 63.700304 
L 138.991368 169.197772 
L 143.149341 196.482911 
L 147.307314 329.082253 
L 151.465287 252.835235 
L 155.623261 207.640721 
L 159.781234 173.832463 
L 163.939207 254.694866 
L 168.09718 98.262688 
L 172.255153 210.806251 
L 176.413126 109.122494 
L 180.5711 227.219533 
L 184.729073 107.291843 
L 188.887046 180.704114 
L 193.045019 89.039923 
L 197.202992 246.347848 
L 201.360965 212.411377 
L 205.518939 146.026641 
L 209.676912 186.037026 
L 213.834885 293.835027 
L 217.992858 120.16638 
L 222.150831 107.243549 
L 226.308804 193.305507 
L 230.466778 287.666512 
L 234.624751 186.595063 
L 238.782724 308.09599 
L 242.940697 230.673022 
L 247.09867 247.396958 
L 251.256644 289.658537 
L 255.414617 139.33052 
L 259.57259 269.173465 
L 263.730563 132.832053 
L 267.888536 242.210918 
L 272.046509 184.478779 
L 276.204483 227.166042 
L 280.362456 222.542142 
L 284.520429 182.89094 
L 288.678402 114.583664 
L 292.836375 109.310427 
L 296.994348 292.673264 
L 301.152322 116.248902 
L 305.310295 142.510297 
L 309.468268 159.168717 
L 313.626241 195.316625 
L 317.784214 151.67039 
L 321.942188 224.610546 
L 326.100161 120.966804 
L 330.258134 125.119152 
L 334.416107 260.998812 
L 338.57408 78.099013 
L 342.732053 284.634264 
L 346.890027 159.328613 
L 351.048 259.836594 
L 355.205973 122.884516 
L 359.363946 255.128008 
L 363.521919 229.615512 
L 367.679892 114.174709 
L 371.837866 200.970152 
L 375.995839 214.708963 
L 380.153812 175.217331 
L 384.311785 221.574742 
L 388.469758 252.769277 
L 392.627731 276.710763 
L 396.785705 206.283255 
L 400.943678 108.837784 
L 405.101651 184.657603 
L 409.259624 244.917693 
L 413.417597 122.342107 
L 417.575571 231.284776 
L 421.733544 294.471714 
L 425.891517 198.582951 
L 430.04949 188.918535 
L 434.207463 124.747652 
L 438.365436 278.297267 
L 442.52341 107.435153 
L 446.681383 196.376859 
L 450.839356 185.07976 
L 454.997329 226.765011 
L 459.155302 210.7877 
L 463.313275 183.758389 
L 467.471249 188.032912 
L 471.629222 137.081188 
L 475.787195 148.964441 
L 479.945168 186.975988 
L 484.103141 193.419405 
L 488.261114 244.349623 
L 492.419088 98.986052 
L 496.577061 175.117486 
L 500.735034 246.021316 
L 504.893007 207.258141 
L 509.05098 198.510999 
L 513.208954 159.362654 
L 517.366927 201.686504 
L 521.5249 234.601241 
L 525.682873 215.610261 
L 529.840846 152.227397 
L 533.998819 175.290667 
L 538.156793 171.147583 
L 542.314766 273.041641 
L 546.472739 138.454062 
L 550.630712 235.743481 
L 554.788685 279.642571 
L 558.946658 150.26595 
L 563.104632 208.94017 
L 567.262605 232.300292 
L 571.420578 197.59109 
L 575.578551 239.427848 
" clip-path="url(#p9a7b9f5870)" style="fill: none; stroke: #ff7f0e; stroke-width: 1.5; stroke-linecap: square"/>
   </g>
   <g id="line2d_27">
    <path d="M 255.414617 120.83257 
L 259.57259 180.299696 
L 263.730563 254.178808 
L 267.888536 146.411255 
L 272.046509 161.984579 
L 276.204483 272.272156 
L 280.362456 161.993287 
L 284.520429 209.579736 
L 288.678402 219.768117 
L 292.836375 152.887817 
L 296.994348 170.030842 
L 301.152322 260.334404 
L 305.310295 218.700744 
L 309.468268 227.04459 
L 313.626241 172.541604 
L 317.784214 223.834016 
L 321.942188 169.962163 
L 326.100161 153.559782 
L 330.258134 234.705113 
L 334.416107 213.036398 
L 338.57408 168.779723 
L 342.732053 130.126449 
L 346.890027 218.676926 
L 351.048 196.841494 
L 355.205973 206.216016 
L 359.363946 212.888716 
L 363.521919 156.819337 
L 367.679892 164.037016 
L 371.837866 228.209741 
L 375.995839 266.21896 
L 380.153812 224.037378 
L 384.311785 148.035335 
L 388.469758 191.530701 
L 392.627731 263.581493 
L 396.785705 148.522012 
L 400.943678 195.747031 
L 405.101651 186.643143 
L 409.259624 261.754539 
L 413.417597 195.165088 
L 417.575571 180.508129 
L 421.733544 217.6375 
L 425.891517 128.530259 
L 430.04949 220.43288 
L 434.207463 256.704664 
L 438.365436 161.374742 
L 442.52341 141.377494 
L 446.681383 88.268 
L 450.839356 190.882356 
L 454.997329 301.480225 
L 459.155302 167.90505 
L 463.313275 277.624012 
L 467.471249 95.838048 
L 471.629222 251.915605 
L 475.787195 244.088126 
L 479.945168 169.091092 
L 484.103141 139.657599 
L 488.261114 127.574617 
L 492.419088 209.910662 
L 496.577061 146.480207 
L 500.735034 94.238977 
L 504.893007 175.580908 
L 509.05098 154.422296 
L 513.208954 273.150087 
L 517.366927 204.358917 
L 521.5249 226.901827 
L 525.682873 236.468693 
L 529.840846 269.614125 
L 533.998819 265.992466 
L 538.156793 231.117001 
L 542.314766 155.396553 
L 546.472739 117.183472 
L 550.630712 264.513985 
L 554.788685 133.019371 
L 558.946658 204.034398 
L 563.104632 153.980545 
L 567.262605 166.366063 
L 571.420578 242.678607 
L 575.578551 110.791623 
" clip-path="url(#p9a7b9f5870)" style="fill: none; stroke: #2ca02c; stroke-width: 1.5; stroke-linecap: square"/>
   </g>
   <g id="line2d_28">
    <path d="M 380.153812 220.710965 
L 384.311785 261.344618 
L 388.469758 157.653864 
L 392.627731 225.196685 
L 396.785705 195.039512 
L 400.943678 125.958998 
L 405.101651 225.038288 
L 409.259624 193.07574 
L 413.417597 142.492158 
L 417.575571 183.319278 
L 421.733544 128.349439 
L 425.891517 180.014272 
L 430.04949 206.599895 
L 434.207463 177.062277 
L 438.365436 195.808584 
L 442.52341 227.990224 
L 446.681383 211.548116 
L 450.839356 211.422703 
L 454.997329 139.504406 
L 459.155302 125.503123 
L 463.313275 174.887209 
L 467.471249 172.297558 
L 471.629222 117.591981 
L 475.787195 208.704746 
L 479.945168 175.219593 
L 484.103141 131.761581 
L 488.261114 130.615698 
L 492.419088 164.501846 
L 496.577061 193.657963 
L 500.735034 180.098666 
L 504.893007 193.922112 
L 509.05098 197.673546 
L 513.208954 171.783382 
L 517.366927 185.374695 
L 521.5249 142.516476 
L 525.682873 106.430648 
L 529.840846 264.509551 
L 533.998819 231.09822 
L 538.156793 168.646576 
L 542.314766 188.091905 
L 546.472739 198.211315 
L 550.630712 237.365507 
L 554.788685 263.404684 
L 558.946658 173.436994 
L 563.104632 101.295039 
L 567.262605 141.223803 
L 571.420578 185.308359 
L 575.578551 221.012084 
" clip-path="url(#p9a7b9f5870)" style="fill: none; stroke: #d62728; stroke-width: 1.5; stroke-linecap: square"/>
   </g>
   <g id="patch_3">
    <path d="M 42.942188 354.958125 
L 42.942188 22.318125 
" style="fill: none; stroke: #000000; stroke-width: 0.8; stroke-linejoin: miter; stroke-linecap: square"/>
   </g>
   <g id="patch_4">
    <path d="M 600.942188 354.958125 
L 600.942188 22.318125 
" style="fill: none; stroke: #000000; stroke-width: 0.8; stroke-linejoin: miter; stroke-linecap: square"/>
   </g>
   <g id="patch_5">
    <path d="M 42.942188 354.958125 
L 600.942187 354.958125 
" style="fill: none; stroke: #000000; stroke-width: 0.8; stroke-linejoin: miter; stroke-linecap: square"/>
   </g>
   <g id="patch_6">
    <path d="M 42.942188 22.318125 
L 600.942187 22.318125 
" style="fill: none; stroke: #000000; stroke-width: 0.8; stroke-linejoin: miter; stroke-linecap: square"/>
   </g>
   <g id="text_15">
    <!-- Memory Contribution Trace -->
    <g transform="translate(240.55875 16.318125) scale(0.12 -0.12)">
     <defs>
      <path id="DejaVuSans-4d" d="M 628 4666 
L 1569 4666 
L 2759 1491 
L 3956 4666 
L 4897 4666 
L 4897 0 
L 4281 0 
L 4281 4097 
L 3078 897 
L 2444 897 
L 1241 4097 
L 1241 0 
L 628 0 
L 628 4666 
z
" transform="scale(0.015625)"/>
      <path id="DejaVuSans-79" d="M 2059 -325 
Q 1816 -950 1584 -1140 
Q 1353 -1331 966 -1331 
L 506 -1331 
L 506 -850 
L 844 -850 
Q 1081 -850 1212 -737 
Q 1344 -625 1503 -206 
L 1606 56 
L 191 3500 
L 800 3500 
L 1894 763 
L 2988 3500 
L 3597 3500 
L 2059 -325 
z
" transform="scale(0.015625)"/>
      <path id="DejaVuSans-63" d="M 3122 3366 
L 3122 2828 
Q 2878 2963 2633 3030 
Q 2388 3097 2138 3097 
Q 1578 3097 1268 2742 
Q 959 2388 959 1747 
Q 959 1106 1268 751 
Q 1578 397 2138 397 
Q 2388 397 2633 464 
Q 2878 531 3122 666 
L 3122 134 
Q 2881 22 2623 -34 
Q 2366 -91 2075 -91 
Q 1284 -91 818 406 
Q 353 903 353 1747 
Q 353 2603 823 3093 
Q 1294 3584 2113 3584 
Q 2378 3584 2631 3529 
Q 2884 3475 3122 3366 
z
" transform="scale(0.015625)"/>
     </defs>
     <use xlink:href="#DejaVuSans-4d"/>
     <use xlink:href="#DejaVuSans-65" transform="translate(86.279297 0)"/>
     <use xlink:href="#DejaVuSans-6d" transform="translate(147.802734 0)"/>
     <use xlink:href="#DejaVuSans-6f" transform="translate(245.214844 0)"/>
     <use xlink:href="#DejaVuSans-72" transform="translate(306.396484 0)"/>
     <use xlink:href="#DejaVuSans-79" transform="translate(347.509766 0)"/>
     <use xlink:href="#DejaVuSans-20" transform="translate(406.689453 0)"/>
     <use xlink:href="#DejaVuSans-43" transform="translate(438.476562 0)"/>
     <use xlink:href="#DejaVuSans-6f" transform="translate(508.300781 0)"/>
     <use xlink:href="#DejaVuSans-6e" transform="translate(569.482422 0)"/>
     <use xlink:href="#DejaVuSans-74" transform="translate(632.861328 0)"/>
     <use xlink:href="#DejaVuSans-72" transform="translate(672.070312 0)"/>
     <use xlink:href="#DejaVuSans-69" transform="translate(713.183594 0)"/>
     <use xlink:href="#DejaVuSans-62" transform="translate(740.966797 0)"/>
     <use xlink:href="#DejaVuSans-75" transform="translate(804.443359 0)"/>
     <use xlink:href="#DejaVuSans-74" transform="translate(867.822266 0)"/>
     <use xlink:href="#DejaVuSans-69" transform="translate(907.03125 0)"/>
     <use xlink:href="#DejaVuSans-6f" transform="translate(934.814453 0)"/>
     <use xlink:href="#DejaVuSans-6e" transform="translate(995.996094 0)"/>
     <use xlink:href="#DejaVuSans-20" transform="translate(1059.375 0)"/>
     <use xlink:href="#DejaVuSans-54" transform="translate(1091.162109 0)"/>
     <use xlink:href="#DejaVuSans-72" transform="translate(1137.496094 0)"/>
     <use xlink:href="#DejaVuSans-61" transform="translate(1178.609375 0)"/>
     <use xlink:href="#DejaVuSans-63" transform="translate(1239.888672 0)"/>
     <use xlink:href="#DejaVuSans-65" transform="translate(1294.869141 0)"/>
    </g>
   </g>
   <g id="legend_1">
    <g id="patch_7">
     <path d="M 440.101562 89.030625 
L 593.942188 89.030625 
Q 595.942188 89.030625 595.942188 87.030625 
L 595.942188 29.318125 
Q 595.942188 27.318125 593.942188 27.318125 
L 440.101562 27.318125 
Q 438.101562 27.318125 438.101562 29.318125 
L 438.101562 87.030625 
Q 438.101562 89.030625 440.101562 89.030625 
z
" style="fill: #ffffff; opacity: 0.8; stroke: #cccccc; stroke-linejoin: miter"/>
    </g>
    <g id="line2d_29">
     <path d="M 442.101562 35.416562 
L 452.101562 35.416562 
L 462.101562 35.416562 
" style="fill: none; stroke: #1f77b4; stroke-width: 1.5; stroke-linecap: square"/>
    </g>
    <g id="text_16">
     <!-- Memory 5 Contribution -->
     <g transform="translate(470.101562 38.916562) scale(0.1 -0.1)">
      <defs>
       <path id="DejaVuSans-35" d="M 691 4666 
L 3169 4666 
L 3169 4134 
L 1269 4134 
L 1269 2991 
Q 1406 3038 1543 3061 
Q 1681 3084 1819 3084 
Q 2600 3084 3056 2656 
Q 3513 2228 3513 1497 
Q 3513 744 3044 326 
Q 2575 -91 1722 -91 
Q 1428 -91 1123 -41 
Q 819 9 494 109 
L 494 744 
Q 775 591 1075 516 
Q 1375 441 1709 441 
Q 2250 441 2565 725 
Q 2881 1009 2881 1497 
Q 2881 1984 2565 2268 
Q 2250 2553 1709 2553 
Q 1456 2553 1204 2497 
Q 953 2441 691 2322 
L 691 4666 
z
" transform="scale(0.015625)"/>
      </defs>
      <use xlink:href="#DejaVuSans-4d"/>
      <use xlink:href="#DejaVuSans-65" transform="translate(86.279297 0)"/>
      <use xlink:href="#DejaVuSans-6d" transform="translate(147.802734 0)"/>
      <use xlink:href="#DejaVuSans-6f" transform="translate(245.214844 0)"/>
      <use xlink:href="#DejaVuSans-72" transform="translate(306.396484 0)"/>
      <use xlink:href="#DejaVuSans-79" transform="translate(347.509766 0)"/>
      <use xlink:href="#DejaVuSans-20" transform="translate(406.689453 0)"/>
      <use xlink:href="#DejaVuSans-35" transform="translate(438.476562 0)"/>
      <use xlink:href="#DejaVuSans-20" transform="translate(502.099609 0)"/>
      <use xlink:href="#DejaVuSans-43" transform="translate(533.886719 0)"/>
      <use xlink:href="#DejaVuSans-6f" transform="translate(603.710938 0)"/>
      <use xlink:href="#DejaVuSans-6e" transform="translate(664.892578 0)"/>
      <use xlink:href="#DejaVuSans-74" transform="translate(728.271484 0)"/>
      <use xlink:href="#DejaVuSans-72" transform="translate(767.480469 0)"/>
      <use xlink:href="#DejaVuSans-69" transform="translate(808.59375 0)"/>
      <use xlink:href="#DejaVuSans-62" transform="translate(836.376953 0)"/>
      <use xlink:href="#DejaVuSans-75" transform="translate(899.853516 0)"/>
      <use xlink:href="#DejaVuSans-74" transform="translate(963.232422 0)"/>
      <use xlink:href="#DejaVuSans-69" transform="translate(1002.441406 0)"/>
      <use xlink:href="#DejaVuSans-6f" transform="translate(1030.224609 0)"/>
      <use xlink:href="#DejaVuSans-6e" transform="translate(1091.40625 0)"/>
     </g>
    </g>
    <g id="line2d_30">
     <path d="M 442.101562 50.094688 
L 452.101562 50.094688 
L 462.101562 50.094688 
" style="fill: none; stroke: #ff7f0e; stroke-width: 1.5; stroke-linecap: square"/>
    </g>
    <g id="text_17">
     <!-- Memory 20 Contribution -->
     <g transform="translate(470.101562 53.594688) scale(0.1 -0.1)">
      <use xlink:href="#DejaVuSans-4d"/>
      <use xlink:href="#DejaVuSans-65" transform="translate(86.279297 0)"/>
      <use xlink:href="#DejaVuSans-6d" transform="translate(147.802734 0)"/>
      <use xlink:href="#DejaVuSans-6f" transform="translate(245.214844 0)"/>
      <use xlink:href="#DejaVuSans-72" transform="translate(306.396484 0)"/>
      <use xlink:href="#DejaVuSans-79" transform="translate(347.509766 0)"/>
      <use xlink:href="#DejaVuSans-20" transform="translate(406.689453 0)"/>
      <use xlink:href="#DejaVuSans-32" transform="translate(438.476562 0)"/>
      <use xlink:href="#DejaVuSans-30" transform="translate(502.099609 0)"/>
      <use xlink:href="#DejaVuSans-20" transform="translate(565.722656 0)"/>
      <use xlink:href="#DejaVuSans-43" transform="translate(597.509766 0)"/>
      <use xlink:href="#DejaVuSans-6f" transform="translate(667.333984 0)"/>
      <use xlink:href="#DejaVuSans-6e" transform="translate(728.515625 0)"/>
      <use xlink:href="#DejaVuSans-74" transform="translate(791.894531 0)"/>
      <use xlink:href="#DejaVuSans-72" transform="translate(831.103516 0)"/>
      <use xlink:href="#DejaVuSans-69" transform="translate(872.216797 0)"/>
      <use xlink:href="#DejaVuSans-62" transform="translate(900 0)"/>
      <use xlink:href="#DejaVuSans-75" transform="translate(963.476562 0)"/>
      <use xlink:href="#DejaVuSans-74" transform="translate(1026.855469 0)"/>
      <use xlink:href="#DejaVuSans-69" transform="translate(1066.064453 0)"/>
      <use xlink:href="#DejaVuSans-6f" transform="translate(1093.847656 0)"/>
      <use xlink:href="#DejaVuSans-6e" transform="translate(1155.029297 0)"/>
     </g>
    </g>
    <g id="line2d_31">
     <path d="M 442.101562 64.772812 
L 452.101562 64.772812 
L 462.101562 64.772812 
" style="fill: none; stroke: #2ca02c; stroke-width: 1.5; stroke-linecap: square"/>
    </g>
    <g id="text_18">
     <!-- Memory 50 Contribution -->
     <g transform="translate(470.101562 68.272812) scale(0.1 -0.1)">
      <use xlink:href="#DejaVuSans-4d"/>
      <use xlink:href="#DejaVuSans-65" transform="translate(86.279297 0)"/>
      <use xlink:href="#DejaVuSans-6d" transform="translate(147.802734 0)"/>
      <use xlink:href="#DejaVuSans-6f" transform="translate(245.214844 0)"/>
      <use xlink:href="#DejaVuSans-72" transform="translate(306.396484 0)"/>
      <use xlink:href="#DejaVuSans-79" transform="translate(347.509766 0)"/>
      <use xlink:href="#DejaVuSans-20" transform="translate(406.689453 0)"/>
      <use xlink:href="#DejaVuSans-35" transform="translate(438.476562 0)"/>
      <use xlink:href="#DejaVuSans-30" transform="translate(502.099609 0)"/>
      <use xlink:href="#DejaVuSans-20" transform="translate(565.722656 0)"/>
      <use xlink:href="#DejaVuSans-43" transform="translate(597.509766 0)"/>
      <use xlink:href="#DejaVuSans-6f" transform="translate(667.333984 0)"/>
      <use xlink:href="#DejaVuSans-6e" transform="translate(728.515625 0)"/>
      <use xlink:href="#DejaVuSans-74" transform="translate(791.894531 0)"/>
      <use xlink:href="#DejaVuSans-72" transform="translate(831.103516 0)"/>
      <use xlink:href="#DejaVuSans-69" transform="translate(872.216797 0)"/>
      <use xlink:href="#DejaVuSans-62" transform="translate(900 0)"/>
      <use xlink:href="#DejaVuSans-75" transform="translate(963.476562 0)"/>
      <use xlink:href="#DejaVuSans-74" transform="translate(1026.855469 0)"/>
      <use xlink:href="#DejaVuSans-69" transform="translate(1066.064453 0)"/>
      <use xlink:href="#DejaVuSans-6f" transform="translate(1093.847656 0)"/>
      <use xlink:href="#DejaVuSans-6e" transform="translate(1155.029297 0)"/>
     </g>
    </g>
    <g id="line2d_32">
     <path d="M 442.101562 79.450938 
L 452.101562 79.450938 
L 462.101562 79.450938 
" style="fill: none; stroke: #d62728; stroke-width: 1.5; stroke-linecap: square"/>
    </g>
    <g id="text_19">
     <!-- Memory 80 Contribution -->
     <g transform="translate(470.101562 82.950938) scale(0.1 -0.1)">
      <use xlink:href="#DejaVuSans-4d"/>
      <use xlink:href="#DejaVuSans-65" transform="translate(86.279297 0)"/>
      <use xlink:href="#DejaVuSans-6d" transform="translate(147.802734 0)"/>
      <use xlink:href="#DejaVuSans-6f" transform="translate(245.214844 0)"/>
      <use xlink:href="#DejaVuSans-72" transform="translate(306.396484 0)"/>
      <use xlink:href="#DejaVuSans-79" transform="translate(347.509766 0)"/>
      <use xlink:href="#DejaVuSans-20" transform="translate(406.689453 0)"/>
      <use xlink:href="#DejaVuSans-38" transform="translate(438.476562 0)"/>
      <use xlink:href="#DejaVuSans-30" transform="translate(502.099609 0)"/>
      <use xlink:href="#DejaVuSans-20" transform="translate(565.722656 0)"/>
      <use xlink:href="#DejaVuSans-43" transform="translate(597.509766 0)"/>
      <use xlink:href="#DejaVuSans-6f" transform="translate(667.333984 0)"/>
      <use xlink:href="#DejaVuSans-6e" transform="translate(728.515625 0)"/>
      <use xlink:href="#DejaVuSans-74" transform="translate(791.894531 0)"/>
      <use xlink:href="#DejaVuSans-72" transform="translate(831.103516 0)"/>
      <use xlink:href="#DejaVuSans-69" transform="translate(872.216797 0)"/>
      <use xlink:href="#DejaVuSans-62" transform="translate(900 0)"/>
      <use xlink:href="#DejaVuSans-75" transform="translate(963.476562 0)"/>
      <use xlink:href="#DejaVuSans-74" transform="translate(1026.855469 0)"/>
      <use xlink:href="#DejaVuSans-69" transform="translate(1066.064453 0)"/>
      <use xlink:href="#DejaVuSans-6f" transform="translate(1093.847656 0)"/>
      <use xlink:href="#DejaVuSans-6e" transform="translate(1155.029297 0)"/>
     </g>
    </g>
   </g>
  </g>
 </g>
 <defs>
  <clipPath id="p9a7b9f5870">
   <rect x="42.942188" y="22.318125" width="558" height="332.64"/>
  </clipPath>
 </defs>
</svg>
