<?xml version="1.0" encoding="utf-8" standalone="no"?>
<!DOCTYPE svg PUBLIC "-//W3C//DTD SVG 1.1//EN"
  "http://www.w3.org/Graphics/SVG/1.1/DTD/svg11.dtd">
<svg xmlns:xlink="http://www.w3.org/1999/xlink" width="608.142187pt" height="392.514375pt" viewBox="0 0 608.142187 392.514375" xmlns="http://www.w3.org/2000/svg" version="1.1">
 <metadata>
  <rdf:RDF xmlns:dc="http://purl.org/dc/elements/1.1/" xmlns:cc="http://creativecommons.org/ns#" xmlns:rdf="http://www.w3.org/1999/02/22-rdf-syntax-ns#">
   <cc:Work>
    <dc:type rdf:resource="http://purl.org/dc/dcmitype/StillImage"/>
    <dc:date>2026-03-29T17:54:15.948486</dc:date>
    <dc:format>image/svg+xml</dc:format>
    <dc:creator>
     <cc:Agent>
      <dc:title>Matplotlib v3.10.1, https://matplotlib.org/</dc:title>
     </cc:Agent>
    </dc:creator>
   </cc:Work>
  </rdf:RDF>
 </metadata>
 <defs>
  <style type="text/css">*{stroke-linejoin: round; stroke-linecap: butt}</style>
 </defs>
 <g id="figure_1">
  <g id="patch_1">
   <path d="M 0 392.514375 
L 608.142187 392.514375 
L 608.142187 0 
L 0 0 
z
" style="fill: #ffffff"/>
  </g>
  <g id="axes_1">
   <g id="patch_2">
    <path d="M 42.942188 354.958125 
L 600.942188 354.958125 
L 600.942188 22.318125 
L 42.942188 22.318125 
z
" style="fill: #ffffff"/>
   </g>
   <g id="matplotlib.axis_1">
    <g id="xtick_1">
     <g id="line2d_1">
      <path d="M 47.515958 354.958125 
L 47.515958 22.318125 
" clip-path="url(#pf51e22f5d9)" style="fill: none; stroke: #b0b0b0; stroke-opacity: 0.3; stroke-width: 0.8; stroke-linecap: square"/>
     </g>
     <g id="line2d_2">
      <defs>
       <path id="mc666598e27" d="M 0 0 
L 0 3.5 
" style="stroke: #000000; stroke-width: 0.8"/>
      </defs>
      <g>
       <use xlink:href="#mc666598e27" x="47.515958" y="354.958125" style="stroke: #000000; stroke-width: 0.8"/>
      </g>
     </g>
     <g id="text_1">
      <!-- 0 -->
      <g transform="translate(44.334708 369.556562) scale(0.1 -0.1)">
       <defs>
        <path id="DejaVuSans-30" d="M 2034 4250 
Q 1547 4250 1301 3770 
Q 1056 3291 1056 2328 
Q 1056 1369 1301 889 
Q 1547 409 2034 409 
Q 2525 409 2770 889 
Q 3016 1369 3016 2328 
Q 3016 3291 2770 3770 
Q 2525 4250 2034 4250 
z
M 2034 4750 
Q 2819 4750 3233 4129 
Q 3647 3509 3647 2328 
Q 3647 1150 3233 529 
Q 2819 -91 2034 -91 
Q 1250 -91 836 529 
Q 422 1150 422 2328 
Q 422 3509 836 4129 
Q 1250 4750 2034 4750 
z
" transform="scale(0.015625)"/>
       </defs>
       <use xlink:href="#DejaVuSans-30"/>
      </g>
     </g>
    </g>
    <g id="xtick_2">
     <g id="line2d_3">
      <path d="M 130.675421 354.958125 
L 130.675421 22.318125 
" clip-path="url(#pf51e22f5d9)" style="fill: none; stroke: #b0b0b0; stroke-opacity: 0.3; stroke-width: 0.8; stroke-linecap: square"/>
     </g>
     <g id="line2d_4">
      <g>
       <use xlink:href="#mc666598e27" x="130.675421" y="354.958125" style="stroke: #000000; stroke-width: 0.8"/>
      </g>
     </g>
     <g id="text_2">
      <!-- 20 -->
      <g transform="translate(124.312921 369.556562) scale(0.1 -0.1)">
       <defs>
        <path id="DejaVuSans-32" d="M 1228 531 
L 3431 531 
L 3431 0 
L 469 0 
L 469 531 
Q 828 903 1448 1529 
Q 2069 2156 2228 2338 
Q 2531 2678 2651 2914 
Q 2772 3150 2772 3378 
Q 2772 3750 2511 3984 
Q 2250 4219 1831 4219 
Q 1534 4219 1204 4116 
Q 875 4013 500 3803 
L 500 4441 
Q 881 4594 1212 4672 
Q 1544 4750 1819 4750 
Q 2544 4750 2975 4387 
Q 3406 4025 3406 3419 
Q 3406 3131 3298 2873 
Q 3191 2616 2906 2266 
Q 2828 2175 2409 1742 
Q 1991 1309 1228 531 
z
" transform="scale(0.015625)"/>
       </defs>
       <use xlink:href="#DejaVuSans-32"/>
       <use xlink:href="#DejaVuSans-30" transform="translate(63.623047 0)"/>
      </g>
     </g>
    </g>
    <g id="xtick_3">
     <g id="line2d_5">
      <path d="M 213.834885 354.958125 
L 213.834885 22.318125 
" clip-path="url(#pf51e22f5d9)" style="fill: none; stroke: #b0b0b0; stroke-opacity: 0.3; stroke-width: 0.8; stroke-linecap: square"/>
     </g>
     <g id="line2d_6">
      <g>
       <use xlink:href="#mc666598e27" x="213.834885" y="354.958125" style="stroke: #000000; stroke-width: 0.8"/>
      </g>
     </g>
     <g id="text_3">
      <!-- 40 -->
      <g transform="translate(207.472385 369.556562) scale(0.1 -0.1)">
       <defs>
        <path id="DejaVuSans-34" d="M 2419 4116 
L 825 1625 
L 2419 1625 
L 2419 4116 
z
M 2253 4666 
L 3047 4666 
L 3047 1625 
L 3713 1625 
L 3713 1100 
L 3047 1100 
L 3047 0 
L 2419 0 
L 2419 1100 
L 313 1100 
L 313 1709 
L 2253 4666 
z
" transform="scale(0.015625)"/>
       </defs>
       <use xlink:href="#DejaVuSans-34"/>
       <use xlink:href="#DejaVuSans-30" transform="translate(63.623047 0)"/>
      </g>
     </g>
    </g>
    <g id="xtick_4">
     <g id="line2d_7">
      <path d="M 296.994348 354.958125 
L 296.994348 22.318125 
" clip-path="url(#pf51e22f5d9)" style="fill: none; stroke: #b0b0b0; stroke-opacity: 0.3; stroke-width: 0.8; stroke-linecap: square"/>
     </g>
     <g id="line2d_8">
      <g>
       <use xlink:href="#mc666598e27" x="296.994348" y="354.958125" style="stroke: #000000; stroke-width: 0.8"/>
      </g>
     </g>
     <g id="text_4">
      <!-- 60 -->
      <g transform="translate(290.631848 369.556562) scale(0.1 -0.1)">
       <defs>
        <path id="DejaVuSans-36" d="M 2113 2584 
Q 1688 2584 1439 2293 
Q 1191 2003 1191 1497 
Q 1191 994 1439 701 
Q 1688 409 2113 409 
Q 2538 409 2786 701 
Q 3034 994 3034 1497 
Q 3034 2003 2786 2293 
Q 2538 2584 2113 2584 
z
M 3366 4563 
L 3366 3988 
Q 3128 4100 2886 4159 
Q 2644 4219 2406 4219 
Q 1781 4219 1451 3797 
Q 1122 3375 1075 2522 
Q 1259 2794 1537 2939 
Q 1816 3084 2150 3084 
Q 2853 3084 3261 2657 
Q 3669 2231 3669 1497 
Q 3669 778 3244 343 
Q 2819 -91 2113 -91 
Q 1303 -91 875 529 
Q 447 1150 447 2328 
Q 447 3434 972 4092 
Q 1497 4750 2381 4750 
Q 2619 4750 2861 4703 
Q 3103 4656 3366 4563 
z
" transform="scale(0.015625)"/>
       </defs>
       <use xlink:href="#DejaVuSans-36"/>
       <use xlink:href="#DejaVuSans-30" transform="translate(63.623047 0)"/>
      </g>
     </g>
    </g>
    <g id="xtick_5">
     <g id="line2d_9">
      <path d="M 380.153812 354.958125 
L 380.153812 22.318125 
" clip-path="url(#pf51e22f5d9)" style="fill: none; stroke: #b0b0b0; stroke-opacity: 0.3; stroke-width: 0.8; stroke-linecap: square"/>
     </g>
     <g id="line2d_10">
      <g>
       <use xlink:href="#mc666598e27" x="380.153812" y="354.958125" style="stroke: #000000; stroke-width: 0.8"/>
      </g>
     </g>
     <g id="text_5">
      <!-- 80 -->
      <g transform="translate(373.791312 369.556562) scale(0.1 -0.1)">
       <defs>
        <path id="DejaVuSans-38" d="M 2034 2216 
Q 1584 2216 1326 1975 
Q 1069 1734 1069 1313 
Q 1069 891 1326 650 
Q 1584 409 2034 409 
Q 2484 409 2743 651 
Q 3003 894 3003 1313 
Q 3003 1734 2745 1975 
Q 2488 2216 2034 2216 
z
M 1403 2484 
Q 997 2584 770 2862 
Q 544 3141 544 3541 
Q 544 4100 942 4425 
Q 1341 4750 2034 4750 
Q 2731 4750 3128 4425 
Q 3525 4100 3525 3541 
Q 3525 3141 3298 2862 
Q 3072 2584 2669 2484 
Q 3125 2378 3379 2068 
Q 3634 1759 3634 1313 
Q 3634 634 3220 271 
Q 2806 -91 2034 -91 
Q 1263 -91 848 271 
Q 434 634 434 1313 
Q 434 1759 690 2068 
Q 947 2378 1403 2484 
z
M 1172 3481 
Q 1172 3119 1398 2916 
Q 1625 2713 2034 2713 
Q 2441 2713 2670 2916 
Q 2900 3119 2900 3481 
Q 2900 3844 2670 4047 
Q 2441 4250 2034 4250 
Q 1625 4250 1398 4047 
Q 1172 3844 1172 3481 
z
" transform="scale(0.015625)"/>
       </defs>
       <use xlink:href="#DejaVuSans-38"/>
       <use xlink:href="#DejaVuSans-30" transform="translate(63.623047 0)"/>
      </g>
     </g>
    </g>
    <g id="xtick_6">
     <g id="line2d_11">
      <path d="M 463.313275 354.958125 
L 463.313275 22.318125 
" clip-path="url(#pf51e22f5d9)" style="fill: none; stroke: #b0b0b0; stroke-opacity: 0.3; stroke-width: 0.8; stroke-linecap: square"/>
     </g>
     <g id="line2d_12">
      <g>
       <use xlink:href="#mc666598e27" x="463.313275" y="354.958125" style="stroke: #000000; stroke-width: 0.8"/>
      </g>
     </g>
     <g id="text_6">
      <!-- 100 -->
      <g transform="translate(453.769525 369.556562) scale(0.1 -0.1)">
       <defs>
        <path id="DejaVuSans-31" d="M 794 531 
L 1825 531 
L 1825 4091 
L 703 3866 
L 703 4441 
L 1819 4666 
L 2450 4666 
L 2450 531 
L 3481 531 
L 3481 0 
L 794 0 
L 794 531 
z
" transform="scale(0.015625)"/>
       </defs>
       <use xlink:href="#DejaVuSans-31"/>
       <use xlink:href="#DejaVuSans-30" transform="translate(63.623047 0)"/>
       <use xlink:href="#DejaVuSans-30" transform="translate(127.246094 0)"/>
      </g>
     </g>
    </g>
    <g id="xtick_7">
     <g id="line2d_13">
      <path d="M 546.472739 354.958125 
L 546.472739 22.318125 
" clip-path="url(#pf51e22f5d9)" style="fill: none; stroke: #b0b0b0; stroke-opacity: 0.3; stroke-width: 0.8; stroke-linecap: square"/>
     </g>
     <g id="line2d_14">
      <g>
       <use xlink:href="#mc666598e27" x="546.472739" y="354.958125" style="stroke: #000000; stroke-width: 0.8"/>
      </g>
     </g>
     <g id="text_7">
      <!-- 120 -->
      <g transform="translate(536.928989 369.556562) scale(0.1 -0.1)">
       <use xlink:href="#DejaVuSans-31"/>
       <use xlink:href="#DejaVuSans-32" transform="translate(63.623047 0)"/>
       <use xlink:href="#DejaVuSans-30" transform="translate(127.246094 0)"/>
      </g>
     </g>
    </g>
    <g id="text_8">
     <!-- Timestep t -->
     <g transform="translate(295.34375 383.234687) scale(0.1 -0.1)">
      <defs>
       <path id="DejaVuSans-54" d="M -19 4666 
L 3928 4666 
L 3928 4134 
L 2272 4134 
L 2272 0 
L 1638 0 
L 1638 4134 
L -19 4134 
L -19 4666 
z
" transform="scale(0.015625)"/>
       <path id="DejaVuSans-69" d="M 603 3500 
L 1178 3500 
L 1178 0 
L 603 0 
L 603 3500 
z
M 603 4863 
L 1178 4863 
L 1178 4134 
L 603 4134 
L 603 4863 
z
" transform="scale(0.015625)"/>
       <path id="DejaVuSans-6d" d="M 3328 2828 
Q 3544 3216 3844 3400 
Q 4144 3584 4550 3584 
Q 5097 3584 5394 3201 
Q 5691 2819 5691 2113 
L 5691 0 
L 5113 0 
L 5113 2094 
Q 5113 2597 4934 2840 
Q 4756 3084 4391 3084 
Q 3944 3084 3684 2787 
Q 3425 2491 3425 1978 
L 3425 0 
L 2847 0 
L 2847 2094 
Q 2847 2600 2669 2842 
Q 2491 3084 2119 3084 
Q 1678 3084 1418 2786 
Q 1159 2488 1159 1978 
L 1159 0 
L 581 0 
L 581 3500 
L 1159 3500 
L 1159 2956 
Q 1356 3278 1631 3431 
Q 1906 3584 2284 3584 
Q 2666 3584 2933 3390 
Q 3200 3197 3328 2828 
z
" transform="scale(0.015625)"/>
       <path id="DejaVuSans-65" d="M 3597 1894 
L 3597 1613 
L 953 1613 
Q 991 1019 1311 708 
Q 1631 397 2203 397 
Q 2534 397 2845 478 
Q 3156 559 3463 722 
L 3463 178 
Q 3153 47 2828 -22 
Q 2503 -91 2169 -91 
Q 1331 -91 842 396 
Q 353 884 353 1716 
Q 353 2575 817 3079 
Q 1281 3584 2069 3584 
Q 2775 3584 3186 3129 
Q 3597 2675 3597 1894 
z
M 3022 2063 
Q 3016 2534 2758 2815 
Q 2500 3097 2075 3097 
Q 1594 3097 1305 2825 
Q 1016 2553 972 2059 
L 3022 2063 
z
" transform="scale(0.015625)"/>
       <path id="DejaVuSans-73" d="M 2834 3397 
L 2834 2853 
Q 2591 2978 2328 3040 
Q 2066 3103 1784 3103 
Q 1356 3103 1142 2972 
Q 928 2841 928 2578 
Q 928 2378 1081 2264 
Q 1234 2150 1697 2047 
L 1894 2003 
Q 2506 1872 2764 1633 
Q 3022 1394 3022 966 
Q 3022 478 2636 193 
Q 2250 -91 1575 -91 
Q 1294 -91 989 -36 
Q 684 19 347 128 
L 347 722 
Q 666 556 975 473 
Q 1284 391 1588 391 
Q 1994 391 2212 530 
Q 2431 669 2431 922 
Q 2431 1156 2273 1281 
Q 2116 1406 1581 1522 
L 1381 1569 
Q 847 1681 609 1914 
Q 372 2147 372 2553 
Q 372 3047 722 3315 
Q 1072 3584 1716 3584 
Q 2034 3584 2315 3537 
Q 2597 3491 2834 3397 
z
" transform="scale(0.015625)"/>
       <path id="DejaVuSans-74" d="M 1172 4494 
L 1172 3500 
L 2356 3500 
L 2356 3053 
L 1172 3053 
L 1172 1153 
Q 1172 725 1289 603 
Q 1406 481 1766 481 
L 2356 481 
L 2356 0 
L 1766 0 
Q 1100 0 847 248 
Q 594 497 594 1153 
L 594 3053 
L 172 3053 
L 172 3500 
L 594 3500 
L 594 4494 
L 1172 4494 
z
" transform="scale(0.015625)"/>
       <path id="DejaVuSans-70" d="M 1159 525 
L 1159 -1331 
L 581 -1331 
L 581 3500 
L 1159 3500 
L 1159 2969 
Q 1341 3281 1617 3432 
Q 1894 3584 2278 3584 
Q 2916 3584 3314 3078 
Q 3713 2572 3713 1747 
Q 3713 922 3314 415 
Q 2916 -91 2278 -91 
Q 1894 -91 1617 61 
Q 1341 213 1159 525 
z
M 3116 1747 
Q 3116 2381 2855 2742 
Q 2594 3103 2138 3103 
Q 1681 3103 1420 2742 
Q 1159 2381 1159 1747 
Q 1159 1113 1420 752 
Q 1681 391 2138 391 
Q 2594 391 2855 752 
Q 3116 1113 3116 1747 
z
" transform="scale(0.015625)"/>
       <path id="DejaVuSans-20" transform="scale(0.015625)"/>
      </defs>
      <use xlink:href="#DejaVuSans-54"/>
      <use xlink:href="#DejaVuSans-69" transform="translate(57.958984 0)"/>
      <use xlink:href="#DejaVuSans-6d" transform="translate(85.742188 0)"/>
      <use xlink:href="#DejaVuSans-65" transform="translate(183.154297 0)"/>
      <use xlink:href="#DejaVuSans-73" transform="translate(244.677734 0)"/>
      <use xlink:href="#DejaVuSans-74" transform="translate(296.777344 0)"/>
      <use xlink:href="#DejaVuSans-65" transform="translate(335.986328 0)"/>
      <use xlink:href="#DejaVuSans-70" transform="translate(397.509766 0)"/>
      <use xlink:href="#DejaVuSans-20" transform="translate(460.986328 0)"/>
      <use xlink:href="#DejaVuSans-74" transform="translate(492.773438 0)"/>
     </g>
    </g>
   </g>
   <g id="matplotlib.axis_2">
    <g id="ytick_1">
     <g id="line2d_15">
      <path d="M 42.942188 351.841193 
L 600.942188 351.841193 
" clip-path="url(#pf51e22f5d9)" style="fill: none; stroke: #b0b0b0; stroke-opacity: 0.3; stroke-width: 0.8; stroke-linecap: square"/>
     </g>
     <g id="line2d_16">
      <defs>
       <path id="mcc7c55d9a6" d="M 0 0 
L -3.5 0 
" style="stroke: #000000; stroke-width: 0.8"/>
      </defs>
      <g>
       <use xlink:href="#mcc7c55d9a6" x="42.942188" y="351.841193" style="stroke: #000000; stroke-width: 0.8"/>
      </g>
     </g>
     <g id="text_9">
      <!-- −3 -->
      <g transform="translate(21.2 355.640412) scale(0.1 -0.1)">
       <defs>
        <path id="DejaVuSans-2212" d="M 678 2272 
L 4684 2272 
L 4684 1741 
L 678 1741 
L 678 2272 
z
" transform="scale(0.015625)"/>
        <path id="DejaVuSans-33" d="M 2597 2516 
Q 3050 2419 3304 2112 
Q 3559 1806 3559 1356 
Q 3559 666 3084 287 
Q 2609 -91 1734 -91 
Q 1441 -91 1130 -33 
Q 819 25 488 141 
L 488 750 
Q 750 597 1062 519 
Q 1375 441 1716 441 
Q 2309 441 2620 675 
Q 2931 909 2931 1356 
Q 2931 1769 2642 2001 
Q 2353 2234 1838 2234 
L 1294 2234 
L 1294 2753 
L 1863 2753 
Q 2328 2753 2575 2939 
Q 2822 3125 2822 3475 
Q 2822 3834 2567 4026 
Q 2313 4219 1838 4219 
Q 1578 4219 1281 4162 
Q 984 4106 628 3988 
L 628 4550 
Q 988 4650 1302 4700 
Q 1616 4750 1894 4750 
Q 2613 4750 3031 4423 
Q 3450 4097 3450 3541 
Q 3450 3153 3228 2886 
Q 3006 2619 2597 2516 
z
" transform="scale(0.015625)"/>
       </defs>
       <use xlink:href="#DejaVuSans-2212"/>
       <use xlink:href="#DejaVuSans-33" transform="translate(83.789062 0)"/>
      </g>
     </g>
    </g>
    <g id="ytick_2">
     <g id="line2d_17">
      <path d="M 42.942188 295.381811 
L 600.942188 295.381811 
" clip-path="url(#pf51e22f5d9)" style="fill: none; stroke: #b0b0b0; stroke-opacity: 0.3; stroke-width: 0.8; stroke-linecap: square"/>
     </g>
     <g id="line2d_18">
      <g>
       <use xlink:href="#mcc7c55d9a6" x="42.942188" y="295.381811" style="stroke: #000000; stroke-width: 0.8"/>
      </g>
     </g>
     <g id="text_10">
      <!-- −2 -->
      <g transform="translate(21.2 299.18103) scale(0.1 -0.1)">
       <use xlink:href="#DejaVuSans-2212"/>
       <use xlink:href="#DejaVuSans-32" transform="translate(83.789062 0)"/>
      </g>
     </g>
    </g>
    <g id="ytick_3">
     <g id="line2d_19">
      <path d="M 42.942188 238.922429 
L 600.942188 238.922429 
" clip-path="url(#pf51e22f5d9)" style="fill: none; stroke: #b0b0b0; stroke-opacity: 0.3; stroke-width: 0.8; stroke-linecap: square"/>
     </g>
     <g id="line2d_20">
      <g>
       <use xlink:href="#mcc7c55d9a6" x="42.942188" y="238.922429" style="stroke: #000000; stroke-width: 0.8"/>
      </g>
     </g>
     <g id="text_11">
      <!-- −1 -->
      <g transform="translate(21.2 242.721648) scale(0.1 -0.1)">
       <use xlink:href="#DejaVuSans-2212"/>
       <use xlink:href="#DejaVuSans-31" transform="translate(83.789062 0)"/>
      </g>
     </g>
    </g>
    <g id="ytick_4">
     <g id="line2d_21">
      <path d="M 42.942188 182.463047 
L 600.942188 182.463047 
" clip-path="url(#pf51e22f5d9)" style="fill: none; stroke: #b0b0b0; stroke-opacity: 0.3; stroke-width: 0.8; stroke-linecap: square"/>
     </g>
     <g id="line2d_22">
      <g>
       <use xlink:href="#mcc7c55d9a6" x="42.942188" y="182.463047" style="stroke: #000000; stroke-width: 0.8"/>
      </g>
     </g>
     <g id="text_12">
      <!-- 0 -->
      <g transform="translate(29.579688 186.262265) scale(0.1 -0.1)">
       <use xlink:href="#DejaVuSans-30"/>
      </g>
     </g>
    </g>
    <g id="ytick_5">
     <g id="line2d_23">
      <path d="M 42.942188 126.003664 
L 600.942188 126.003664 
" clip-path="url(#pf51e22f5d9)" style="fill: none; stroke: #b0b0b0; stroke-opacity: 0.3; stroke-width: 0.8; stroke-linecap: square"/>
     </g>
     <g id="line2d_24">
      <g>
       <use xlink:href="#mcc7c55d9a6" x="42.942188" y="126.003664" style="stroke: #000000; stroke-width: 0.8"/>
      </g>
     </g>
     <g id="text_13">
      <!-- 1 -->
      <g transform="translate(29.579688 129.802883) scale(0.1 -0.1)">
       <use xlink:href="#DejaVuSans-31"/>
      </g>
     </g>
    </g>
    <g id="ytick_6">
     <g id="line2d_25">
      <path d="M 42.942188 69.544282 
L 600.942188 69.544282 
" clip-path="url(#pf51e22f5d9)" style="fill: none; stroke: #b0b0b0; stroke-opacity: 0.3; stroke-width: 0.8; stroke-linecap: square"/>
     </g>
     <g id="line2d_26">
      <g>
       <use xlink:href="#mcc7c55d9a6" x="42.942188" y="69.544282" style="stroke: #000000; stroke-width: 0.8"/>
      </g>
     </g>
     <g id="text_14">
      <!-- 2 -->
      <g transform="translate(29.579688 73.343501) scale(0.1 -0.1)">
       <use xlink:href="#DejaVuSans-32"/>
      </g>
     </g>
    </g>
    <g id="text_15">
     <!-- Normalized Contribution (v_i^T o_t) / ||o_t|| -->
     <g transform="translate(14.842188 297.438125) rotate(-90) scale(0.1 -0.1)">
      <defs>
       <path id="DejaVuSans-4e" d="M 628 4666 
L 1478 4666 
L 3547 763 
L 3547 4666 
L 4159 4666 
L 4159 0 
L 3309 0 
L 1241 3903 
L 1241 0 
L 628 0 
L 628 4666 
z
" transform="scale(0.015625)"/>
       <path id="DejaVuSans-6f" d="M 1959 3097 
Q 1497 3097 1228 2736 
Q 959 2375 959 1747 
Q 959 1119 1226 758 
Q 1494 397 1959 397 
Q 2419 397 2687 759 
Q 2956 1122 2956 1747 
Q 2956 2369 2687 2733 
Q 2419 3097 1959 3097 
z
M 1959 3584 
Q 2709 3584 3137 3096 
Q 3566 2609 3566 1747 
Q 3566 888 3137 398 
Q 2709 -91 1959 -91 
Q 1206 -91 779 398 
Q 353 888 353 1747 
Q 353 2609 779 3096 
Q 1206 3584 1959 3584 
z
" transform="scale(0.015625)"/>
       <path id="DejaVuSans-72" d="M 2631 2963 
Q 2534 3019 2420 3045 
Q 2306 3072 2169 3072 
Q 1681 3072 1420 2755 
Q 1159 2438 1159 1844 
L 1159 0 
L 581 0 
L 581 3500 
L 1159 3500 
L 1159 2956 
Q 1341 3275 1631 3429 
Q 1922 3584 2338 3584 
Q 2397 3584 2469 3576 
Q 2541 3569 2628 3553 
L 2631 2963 
z
" transform="scale(0.015625)"/>
       <path id="DejaVuSans-61" d="M 2194 1759 
Q 1497 1759 1228 1600 
Q 959 1441 959 1056 
Q 959 750 1161 570 
Q 1363 391 1709 391 
Q 2188 391 2477 730 
Q 2766 1069 2766 1631 
L 2766 1759 
L 2194 1759 
z
M 3341 1997 
L 3341 0 
L 2766 0 
L 2766 531 
Q 2569 213 2275 61 
Q 1981 -91 1556 -91 
Q 1019 -91 701 211 
Q 384 513 384 1019 
Q 384 1609 779 1909 
Q 1175 2209 1959 2209 
L 2766 2209 
L 2766 2266 
Q 2766 2663 2505 2880 
Q 2244 3097 1772 3097 
Q 1472 3097 1187 3025 
Q 903 2953 641 2809 
L 641 3341 
Q 956 3463 1253 3523 
Q 1550 3584 1831 3584 
Q 2591 3584 2966 3190 
Q 3341 2797 3341 1997 
z
" transform="scale(0.015625)"/>
       <path id="DejaVuSans-6c" d="M 603 4863 
L 1178 4863 
L 1178 0 
L 603 0 
L 603 4863 
z
" transform="scale(0.015625)"/>
       <path id="DejaVuSans-7a" d="M 353 3500 
L 3084 3500 
L 3084 2975 
L 922 459 
L 3084 459 
L 3084 0 
L 275 0 
L 275 525 
L 2438 3041 
L 353 3041 
L 353 3500 
z
" transform="scale(0.015625)"/>
       <path id="DejaVuSans-64" d="M 2906 2969 
L 2906 4863 
L 3481 4863 
L 3481 0 
L 2906 0 
L 2906 525 
Q 2725 213 2448 61 
Q 2172 -91 1784 -91 
Q 1150 -91 751 415 
Q 353 922 353 1747 
Q 353 2572 751 3078 
Q 1150 3584 1784 3584 
Q 2172 3584 2448 3432 
Q 2725 3281 2906 2969 
z
M 947 1747 
Q 947 1113 1208 752 
Q 1469 391 1925 391 
Q 2381 391 2643 752 
Q 2906 1113 2906 1747 
Q 2906 2381 2643 2742 
Q 2381 3103 1925 3103 
Q 1469 3103 1208 2742 
Q 947 2381 947 1747 
z
" transform="scale(0.015625)"/>
       <path id="DejaVuSans-43" d="M 4122 4306 
L 4122 3641 
Q 3803 3938 3442 4084 
Q 3081 4231 2675 4231 
Q 1875 4231 1450 3742 
Q 1025 3253 1025 2328 
Q 1025 1406 1450 917 
Q 1875 428 2675 428 
Q 3081 428 3442 575 
Q 3803 722 4122 1019 
L 4122 359 
Q 3791 134 3420 21 
Q 3050 -91 2638 -91 
Q 1578 -91 968 557 
Q 359 1206 359 2328 
Q 359 3453 968 4101 
Q 1578 4750 2638 4750 
Q 3056 4750 3426 4639 
Q 3797 4528 4122 4306 
z
" transform="scale(0.015625)"/>
       <path id="DejaVuSans-6e" d="M 3513 2113 
L 3513 0 
L 2938 0 
L 2938 2094 
Q 2938 2591 2744 2837 
Q 2550 3084 2163 3084 
Q 1697 3084 1428 2787 
Q 1159 2491 1159 1978 
L 1159 0 
L 581 0 
L 581 3500 
L 1159 3500 
L 1159 2956 
Q 1366 3272 1645 3428 
Q 1925 3584 2291 3584 
Q 2894 3584 3203 3211 
Q 3513 2838 3513 2113 
z
" transform="scale(0.015625)"/>
       <path id="DejaVuSans-62" d="M 3116 1747 
Q 3116 2381 2855 2742 
Q 2594 3103 2138 3103 
Q 1681 3103 1420 2742 
Q 1159 2381 1159 1747 
Q 1159 1113 1420 752 
Q 1681 391 2138 391 
Q 2594 391 2855 752 
Q 3116 1113 3116 1747 
z
M 1159 2969 
Q 1341 3281 1617 3432 
Q 1894 3584 2278 3584 
Q 2916 3584 3314 3078 
Q 3713 2572 3713 1747 
Q 3713 922 3314 415 
Q 2916 -91 2278 -91 
Q 1894 -91 1617 61 
Q 1341 213 1159 525 
L 1159 0 
L 581 0 
L 581 4863 
L 1159 4863 
L 1159 2969 
z
" transform="scale(0.015625)"/>
       <path id="DejaVuSans-75" d="M 544 1381 
L 544 3500 
L 1119 3500 
L 1119 1403 
Q 1119 906 1312 657 
Q 1506 409 1894 409 
Q 2359 409 2629 706 
Q 2900 1003 2900 1516 
L 2900 3500 
L 3475 3500 
L 3475 0 
L 2900 0 
L 2900 538 
Q 2691 219 2414 64 
Q 2138 -91 1772 -91 
Q 1169 -91 856 284 
Q 544 659 544 1381 
z
M 1991 3584 
L 1991 3584 
z
" transform="scale(0.015625)"/>
       <path id="DejaVuSans-28" d="M 1984 4856 
Q 1566 4138 1362 3434 
Q 1159 2731 1159 2009 
Q 1159 1288 1364 580 
Q 1569 -128 1984 -844 
L 1484 -844 
Q 1016 -109 783 600 
Q 550 1309 550 2009 
Q 550 2706 781 3412 
Q 1013 4119 1484 4856 
L 1984 4856 
z
" transform="scale(0.015625)"/>
       <path id="DejaVuSans-76" d="M 191 3500 
L 800 3500 
L 1894 563 
L 2988 3500 
L 3597 3500 
L 2284 0 
L 1503 0 
L 191 3500 
z
" transform="scale(0.015625)"/>
       <path id="DejaVuSans-5f" d="M 3263 -1063 
L 3263 -1509 
L -63 -1509 
L -63 -1063 
L 3263 -1063 
z
" transform="scale(0.015625)"/>
       <path id="DejaVuSans-5e" d="M 2988 4666 
L 4684 2925 
L 4056 2925 
L 2681 4159 
L 1306 2925 
L 678 2925 
L 2375 4666 
L 2988 4666 
z
" transform="scale(0.015625)"/>
       <path id="DejaVuSans-29" d="M 513 4856 
L 1013 4856 
Q 1481 4119 1714 3412 
Q 1947 2706 1947 2009 
Q 1947 1309 1714 600 
Q 1481 -109 1013 -844 
L 513 -844 
Q 928 -128 1133 580 
Q 1338 1288 1338 2009 
Q 1338 2731 1133 3434 
Q 928 4138 513 4856 
z
" transform="scale(0.015625)"/>
       <path id="DejaVuSans-2f" d="M 1625 4666 
L 2156 4666 
L 531 -594 
L 0 -594 
L 1625 4666 
z
" transform="scale(0.015625)"/>
       <path id="DejaVuSans-7c" d="M 1344 4891 
L 1344 -1509 
L 813 -1509 
L 813 4891 
L 1344 4891 
z
" transform="scale(0.015625)"/>
      </defs>
      <use xlink:href="#DejaVuSans-4e"/>
      <use xlink:href="#DejaVuSans-6f" transform="translate(74.804688 0)"/>
      <use xlink:href="#DejaVuSans-72" transform="translate(135.986328 0)"/>
      <use xlink:href="#DejaVuSans-6d" transform="translate(175.349609 0)"/>
      <use xlink:href="#DejaVuSans-61" transform="translate(272.761719 0)"/>
      <use xlink:href="#DejaVuSans-6c" transform="translate(334.041016 0)"/>
      <use xlink:href="#DejaVuSans-69" transform="translate(361.824219 0)"/>
      <use xlink:href="#DejaVuSans-7a" transform="translate(389.607422 0)"/>
      <use xlink:href="#DejaVuSans-65" transform="translate(442.097656 0)"/>
      <use xlink:href="#DejaVuSans-64" transform="translate(503.621094 0)"/>
      <use xlink:href="#DejaVuSans-20" transform="translate(567.097656 0)"/>
      <use xlink:href="#DejaVuSans-43" transform="translate(598.884766 0)"/>
      <use xlink:href="#DejaVuSans-6f" transform="translate(668.708984 0)"/>
      <use xlink:href="#DejaVuSans-6e" transform="translate(729.890625 0)"/>
      <use xlink:href="#DejaVuSans-74" transform="translate(793.269531 0)"/>
      <use xlink:href="#DejaVuSans-72" transform="translate(832.478516 0)"/>
      <use xlink:href="#DejaVuSans-69" transform="translate(873.591797 0)"/>
      <use xlink:href="#DejaVuSans-62" transform="translate(901.375 0)"/>
      <use xlink:href="#DejaVuSans-75" transform="translate(964.851562 0)"/>
      <use xlink:href="#DejaVuSans-74" transform="translate(1028.230469 0)"/>
      <use xlink:href="#DejaVuSans-69" transform="translate(1067.439453 0)"/>
      <use xlink:href="#DejaVuSans-6f" transform="translate(1095.222656 0)"/>
      <use xlink:href="#DejaVuSans-6e" transform="translate(1156.404297 0)"/>
      <use xlink:href="#DejaVuSans-20" transform="translate(1219.783203 0)"/>
      <use xlink:href="#DejaVuSans-28" transform="translate(1251.570312 0)"/>
      <use xlink:href="#DejaVuSans-76" transform="translate(1290.583984 0)"/>
      <use xlink:href="#DejaVuSans-5f" transform="translate(1349.763672 0)"/>
      <use xlink:href="#DejaVuSans-69" transform="translate(1399.763672 0)"/>
      <use xlink:href="#DejaVuSans-5e" transform="translate(1427.546875 0)"/>
      <use xlink:href="#DejaVuSans-54" transform="translate(1511.335938 0)"/>
      <use xlink:href="#DejaVuSans-20" transform="translate(1572.419922 0)"/>
      <use xlink:href="#DejaVuSans-6f" transform="translate(1604.207031 0)"/>
      <use xlink:href="#DejaVuSans-5f" transform="translate(1665.388672 0)"/>
      <use xlink:href="#DejaVuSans-74" transform="translate(1715.388672 0)"/>
      <use xlink:href="#DejaVuSans-29" transform="translate(1754.597656 0)"/>
      <use xlink:href="#DejaVuSans-20" transform="translate(1793.611328 0)"/>
      <use xlink:href="#DejaVuSans-2f" transform="translate(1825.398438 0)"/>
      <use xlink:href="#DejaVuSans-20" transform="translate(1859.089844 0)"/>
      <use xlink:href="#DejaVuSans-7c" transform="translate(1890.876953 0)"/>
      <use xlink:href="#DejaVuSans-7c" transform="translate(1924.568359 0)"/>
      <use xlink:href="#DejaVuSans-6f" transform="translate(1958.259766 0)"/>
      <use xlink:href="#DejaVuSans-5f" transform="translate(2019.441406 0)"/>
      <use xlink:href="#DejaVuSans-74" transform="translate(2069.441406 0)"/>
      <use xlink:href="#DejaVuSans-7c" transform="translate(2108.650391 0)"/>
      <use xlink:href="#DejaVuSans-7c" transform="translate(2142.341797 0)"/>
     </g>
    </g>
   </g>
   <g id="line2d_27">
    <path d="M 68.305824 155.445662 
L 72.463797 176.513907 
L 76.62177 141.367204 
L 80.779743 149.234276 
L 84.937717 80.583827 
L 89.09569 209.55582 
L 93.253663 167.581897 
L 97.411636 215.023575 
L 101.569609 203.90189 
L 105.727582 100.380236 
L 109.885556 130.925326 
L 114.043529 153.461361 
L 118.201502 100.079862 
L 122.359475 145.345187 
L 126.517448 166.324151 
L 130.675421 221.70646 
L 134.833395 255.065579 
L 138.991368 142.390633 
L 143.149341 176.151893 
L 147.307314 200.967499 
L 151.465287 261.144057 
L 155.623261 130.752271 
L 159.781234 64.544723 
L 163.939207 135.49537 
L 168.09718 162.583176 
L 172.255153 229.14536 
L 176.413126 162.137241 
L 180.5711 223.828727 
L 184.729073 153.826315 
L 188.887046 178.056822 
L 193.045019 186.962034 
L 197.202992 166.042338 
L 201.360965 251.314163 
L 205.518939 247.621546 
L 209.676912 226.835734 
L 213.834885 158.294155 
L 217.992858 197.531097 
L 222.150831 202.395091 
L 226.308804 186.823037 
L 230.466778 237.132117 
L 234.624751 256.703709 
L 238.782724 227.533093 
L 242.940697 187.656744 
L 247.09867 216.158291 
L 251.256644 112.880343 
L 255.414617 196.280324 
L 259.57259 163.125616 
L 263.730563 235.321116 
L 267.888536 235.850916 
L 272.046509 221.316235 
L 276.204483 190.144423 
L 280.362456 227.222407 
L 284.520429 172.743186 
L 288.678402 324.253258 
L 292.836375 288.466795 
L 296.994348 111.469109 
L 301.152322 181.419827 
L 305.310295 186.990456 
L 309.468268 152.653757 
L 313.626241 203.194259 
L 317.784214 170.168044 
L 321.942188 141.32637 
L 326.100161 196.850859 
L 330.258134 260.247909 
L 334.416107 170.075385 
L 338.57408 187.105176 
L 342.732053 194.224544 
L 346.890027 195.363635 
L 351.048 281.693042 
L 355.205973 276.131925 
L 359.363946 258.543975 
L 363.521919 233.766604 
L 367.679892 137.446924 
L 371.837866 93.820896 
L 375.995839 236.368853 
L 380.153812 116.405725 
L 384.311785 192.994472 
L 388.469758 259.680203 
L 392.627731 160.790617 
L 396.785705 167.30059 
L 400.943678 128.704679 
L 405.101651 193.311205 
L 409.259624 194.78285 
L 413.417597 227.3253 
L 417.575571 193.824182 
L 421.733544 157.98194 
L 425.891517 242.420101 
L 430.04949 154.99849 
L 434.207463 264.439462 
L 438.365436 181.235486 
L 442.52341 224.329527 
L 446.681383 225.515449 
L 450.839356 200.201022 
L 454.997329 171.022843 
L 459.155302 218.795942 
L 463.313275 161.194472 
L 467.471249 238.729767 
L 471.629222 162.904426 
L 475.787195 168.20375 
L 479.945168 149.308848 
L 484.103141 284.078263 
L 488.261114 180.315838 
L 492.419088 240.714649 
L 496.577061 137.822165 
L 500.735034 196.96534 
L 504.893007 278.05199 
L 509.05098 265.147526 
L 513.208954 188.257357 
L 517.366927 260.440967 
L 521.5249 134.264634 
L 525.682873 200.540103 
L 529.840846 204.361833 
L 533.998819 164.247715 
L 538.156793 252.382794 
L 542.314766 204.323088 
L 546.472739 203.594511 
L 550.630712 126.585803 
L 554.788685 197.009059 
L 558.946658 199.479635 
L 563.104632 162.353774 
L 567.262605 212.659593 
L 571.420578 192.34128 
L 575.578551 136.864464 
" clip-path="url(#pf51e22f5d9)" style="fill: none; stroke: #1f77b4; stroke-width: 1.5; stroke-linecap: square"/>
   </g>
   <g id="line2d_28">
    <path d="M 130.675421 183.152521 
L 134.833395 276.31585 
L 138.991368 171.565784 
L 143.149341 70.793203 
L 147.307314 110.935146 
L 151.465287 200.396506 
L 155.623261 86.256233 
L 159.781234 116.534845 
L 163.939207 135.420844 
L 168.09718 276.855742 
L 172.255153 243.089416 
L 176.413126 102.581628 
L 180.5711 222.116992 
L 184.729073 149.06451 
L 188.887046 37.438125 
L 193.045019 98.469019 
L 197.202992 198.331342 
L 201.360965 180.230853 
L 205.518939 266.392283 
L 209.676912 205.567938 
L 213.834885 229.446445 
L 217.992858 208.160822 
L 222.150831 179.459786 
L 226.308804 137.460926 
L 230.466778 228.888576 
L 234.624751 164.167683 
L 238.782724 252.751199 
L 242.940697 203.078976 
L 247.09867 319.140751 
L 251.256644 175.406632 
L 255.414617 98.184131 
L 259.57259 134.707463 
L 263.730563 242.766569 
L 267.888536 228.727296 
L 272.046509 182.040733 
L 276.204483 216.426073 
L 280.362456 159.68352 
L 284.520429 160.580318 
L 288.678402 221.881079 
L 292.836375 202.679607 
L 296.994348 112.800707 
L 301.152322 107.879129 
L 305.310295 133.674915 
L 309.468268 155.450837 
L 313.626241 102.297276 
L 317.784214 181.514333 
L 321.942188 193.089933 
L 326.100161 238.909891 
L 330.258134 116.563071 
L 334.416107 130.821047 
L 338.57408 153.394458 
L 342.732053 141.561673 
L 346.890027 115.830982 
L 351.048 253.483424 
L 355.205973 175.31005 
L 359.363946 213.544928 
L 363.521919 287.34059 
L 367.679892 183.365624 
L 371.837866 139.408373 
L 375.995839 282.320241 
L 380.153812 124.703771 
L 384.311785 167.098724 
L 388.469758 170.876742 
L 392.627731 136.068047 
L 396.785705 105.142738 
L 400.943678 192.040911 
L 405.101651 165.621453 
L 409.259624 221.47724 
L 413.417597 166.402768 
L 417.575571 169.520917 
L 421.733544 206.437311 
L 425.891517 215.69553 
L 430.04949 153.741316 
L 434.207463 150.805897 
L 438.365436 239.697751 
L 442.52341 163.126679 
L 446.681383 199.30295 
L 450.839356 126.127949 
L 454.997329 137.416834 
L 459.155302 215.624211 
L 463.313275 181.751852 
L 467.471249 259.217533 
L 471.629222 204.202883 
L 475.787195 152.745755 
L 479.945168 126.017594 
L 484.103141 243.343537 
L 488.261114 155.371327 
L 492.419088 187.531163 
L 496.577061 131.974583 
L 500.735034 118.514085 
L 504.893007 134.667369 
L 509.05098 152.351436 
L 513.208954 107.755044 
L 517.366927 160.723263 
L 521.5249 119.693721 
L 525.682873 209.570737 
L 529.840846 182.582139 
L 533.998819 200.822663 
L 538.156793 211.696615 
L 542.314766 97.535775 
L 546.472739 155.043446 
L 550.630712 113.818132 
L 554.788685 224.396771 
L 558.946658 201.131291 
L 563.104632 185.311358 
L 567.262605 219.420529 
L 571.420578 155.077727 
L 575.578551 159.43097 
" clip-path="url(#pf51e22f5d9)" style="fill: none; stroke: #ff7f0e; stroke-width: 1.5; stroke-linecap: square"/>
   </g>
   <g id="line2d_29">
    <path d="M 255.414617 207.749829 
L 259.57259 53.439572 
L 263.730563 180.317769 
L 267.888536 81.600488 
L 272.046509 130.970651 
L 276.204483 185.531772 
L 280.362456 157.807452 
L 284.520429 150.873696 
L 288.678402 170.382615 
L 292.836375 144.54551 
L 296.994348 182.21387 
L 301.152322 136.037524 
L 305.310295 166.611942 
L 309.468268 216.855481 
L 313.626241 158.626068 
L 317.784214 225.839026 
L 321.942188 234.998205 
L 326.100161 202.264647 
L 330.258134 175.208463 
L 334.416107 182.848947 
L 338.57408 165.187599 
L 342.732053 192.488266 
L 346.890027 153.029523 
L 351.048 159.471186 
L 355.205973 143.049983 
L 359.363946 126.892675 
L 363.521919 222.377709 
L 367.679892 191.384496 
L 371.837866 224.737044 
L 375.995839 226.814465 
L 380.153812 80.035607 
L 384.311785 165.070107 
L 388.469758 159.914268 
L 392.627731 149.929971 
L 396.785705 242.196217 
L 400.943678 102.062316 
L 405.101651 112.835587 
L 409.259624 137.084421 
L 413.417597 84.812672 
L 417.575571 213.66835 
L 421.733544 153.716909 
L 425.891517 233.18713 
L 430.04949 194.622226 
L 434.207463 191.362633 
L 438.365436 179.63514 
L 442.52341 190.459451 
L 446.681383 216.868283 
L 450.839356 124.669215 
L 454.997329 187.443646 
L 459.155302 240.554601 
L 463.313275 132.313855 
L 467.471249 154.541004 
L 471.629222 268.365269 
L 475.787195 155.52522 
L 479.945168 129.844755 
L 484.103141 176.377657 
L 488.261114 189.008717 
L 492.419088 100.218875 
L 496.577061 179.900171 
L 500.735034 147.571311 
L 504.893007 197.123512 
L 509.05098 48.11204 
L 513.208954 214.246483 
L 517.366927 113.211871 
L 521.5249 250.451551 
L 525.682873 217.499337 
L 529.840846 120.667737 
L 533.998819 102.178254 
L 538.156793 164.634153 
L 542.314766 174.847571 
L 546.472739 176.03412 
L 550.630712 239.329427 
L 554.788685 171.210926 
L 558.946658 175.085513 
L 563.104632 212.95083 
L 567.262605 208.222223 
L 571.420578 106.450674 
L 575.578551 148.182927 
" clip-path="url(#pf51e22f5d9)" style="fill: none; stroke: #2ca02c; stroke-width: 1.5; stroke-linecap: square"/>
   </g>
   <g id="line2d_30">
    <path d="M 380.153812 130.369884 
L 384.311785 308.507295 
L 388.469758 339.838125 
L 392.627731 265.463892 
L 396.785705 219.509244 
L 400.943678 159.77151 
L 405.101651 135.634072 
L 409.259624 82.940953 
L 413.417597 271.265668 
L 417.575571 323.318916 
L 421.733544 90.148622 
L 425.891517 334.249468 
L 430.04949 109.898526 
L 434.207463 304.554125 
L 438.365436 154.12068 
L 442.52341 288.514976 
L 446.681383 158.521604 
L 450.839356 268.818156 
L 454.997329 109.358919 
L 459.155302 262.573223 
L 463.313275 220.766543 
L 467.471249 241.597362 
L 471.629222 235.769933 
L 475.787195 279.204509 
L 479.945168 117.00161 
L 484.103141 203.652813 
L 488.261114 191.611695 
L 492.419088 253.005675 
L 496.577061 162.700394 
L 500.735034 186.211392 
L 504.893007 268.766136 
L 509.05098 335.236877 
L 513.208954 201.596083 
L 517.366927 323.889732 
L 521.5249 157.994622 
L 525.682873 153.425132 
L 529.840846 196.433338 
L 533.998819 87.025084 
L 538.156793 330.718732 
L 542.314766 208.090132 
L 546.472739 227.393769 
L 550.630712 206.23896 
L 554.788685 193.796372 
L 558.946658 180.569029 
L 563.104632 209.990303 
L 567.262605 157.86373 
L 571.420578 222.615137 
L 575.578551 164.438099 
" clip-path="url(#pf51e22f5d9)" style="fill: none; stroke: #d62728; stroke-width: 1.5; stroke-linecap: square"/>
   </g>
   <g id="patch_3">
    <path d="M 42.942188 354.958125 
L 42.942188 22.318125 
" style="fill: none; stroke: #000000; stroke-width: 0.8; stroke-linejoin: miter; stroke-linecap: square"/>
   </g>
   <g id="patch_4">
    <path d="M 600.942188 354.958125 
L 600.942188 22.318125 
" style="fill: none; stroke: #000000; stroke-width: 0.8; stroke-linejoin: miter; stroke-linecap: square"/>
   </g>
   <g id="patch_5">
    <path d="M 42.942188 354.958125 
L 600.942187 354.958125 
" style="fill: none; stroke: #000000; stroke-width: 0.8; stroke-linejoin: miter; stroke-linecap: square"/>
   </g>
   <g id="patch_6">
    <path d="M 42.942188 22.318125 
L 600.942187 22.318125 
" style="fill: none; stroke: #000000; stroke-width: 0.8; stroke-linejoin: miter; stroke-linecap: square"/>
   </g>
   <g id="text_16">
    <!-- Memory Contribution Trace -->
    <g transform="translate(240.55875 16.318125) scale(0.12 -0.12)">
     <defs>
      <path id="DejaVuSans-4d" d="M 628 4666 
L 1569 4666 
L 2759 1491 
L 3956 4666 
L 4897 4666 
L 4897 0 
L 4281 0 
L 4281 4097 
L 3078 897 
L 2444 897 
L 1241 4097 
L 1241 0 
L 628 0 
L 628 4666 
z
" transform="scale(0.015625)"/>
      <path id="DejaVuSans-79" d="M 2059 -325 
Q 1816 -950 1584 -1140 
Q 1353 -1331 966 -1331 
L 506 -1331 
L 506 -850 
L 844 -850 
Q 1081 -850 1212 -737 
Q 1344 -625 1503 -206 
L 1606 56 
L 191 3500 
L 800 3500 
L 1894 763 
L 2988 3500 
L 3597 3500 
L 2059 -325 
z
" transform="scale(0.015625)"/>
      <path id="DejaVuSans-63" d="M 3122 3366 
L 3122 2828 
Q 2878 2963 2633 3030 
Q 2388 3097 2138 3097 
Q 1578 3097 1268 2742 
Q 959 2388 959 1747 
Q 959 1106 1268 751 
Q 1578 397 2138 397 
Q 2388 397 2633 464 
Q 2878 531 3122 666 
L 3122 134 
Q 2881 22 2623 -34 
Q 2366 -91 2075 -91 
Q 1284 -91 818 406 
Q 353 903 353 1747 
Q 353 2603 823 3093 
Q 1294 3584 2113 3584 
Q 2378 3584 2631 3529 
Q 2884 3475 3122 3366 
z
" transform="scale(0.015625)"/>
     </defs>
     <use xlink:href="#DejaVuSans-4d"/>
     <use xlink:href="#DejaVuSans-65" transform="translate(86.279297 0)"/>
     <use xlink:href="#DejaVuSans-6d" transform="translate(147.802734 0)"/>
     <use xlink:href="#DejaVuSans-6f" transform="translate(245.214844 0)"/>
     <use xlink:href="#DejaVuSans-72" transform="translate(306.396484 0)"/>
     <use xlink:href="#DejaVuSans-79" transform="translate(347.509766 0)"/>
     <use xlink:href="#DejaVuSans-20" transform="translate(406.689453 0)"/>
     <use xlink:href="#DejaVuSans-43" transform="translate(438.476562 0)"/>
     <use xlink:href="#DejaVuSans-6f" transform="translate(508.300781 0)"/>
     <use xlink:href="#DejaVuSans-6e" transform="translate(569.482422 0)"/>
     <use xlink:href="#DejaVuSans-74" transform="translate(632.861328 0)"/>
     <use xlink:href="#DejaVuSans-72" transform="translate(672.070312 0)"/>
     <use xlink:href="#DejaVuSans-69" transform="translate(713.183594 0)"/>
     <use xlink:href="#DejaVuSans-62" transform="translate(740.966797 0)"/>
     <use xlink:href="#DejaVuSans-75" transform="translate(804.443359 0)"/>
     <use xlink:href="#DejaVuSans-74" transform="translate(867.822266 0)"/>
     <use xlink:href="#DejaVuSans-69" transform="translate(907.03125 0)"/>
     <use xlink:href="#DejaVuSans-6f" transform="translate(934.814453 0)"/>
     <use xlink:href="#DejaVuSans-6e" transform="translate(995.996094 0)"/>
     <use xlink:href="#DejaVuSans-20" transform="translate(1059.375 0)"/>
     <use xlink:href="#DejaVuSans-54" transform="translate(1091.162109 0)"/>
     <use xlink:href="#DejaVuSans-72" transform="translate(1137.496094 0)"/>
     <use xlink:href="#DejaVuSans-61" transform="translate(1178.609375 0)"/>
     <use xlink:href="#DejaVuSans-63" transform="translate(1239.888672 0)"/>
     <use xlink:href="#DejaVuSans-65" transform="translate(1294.869141 0)"/>
    </g>
   </g>
   <g id="legend_1">
    <g id="patch_7">
     <path d="M 49.942188 349.958125 
L 203.782813 349.958125 
Q 205.782813 349.958125 205.782813 347.958125 
L 205.782813 290.245625 
Q 205.782813 288.245625 203.782813 288.245625 
L 49.942188 288.245625 
Q 47.942188 288.245625 47.942188 290.245625 
L 47.942188 347.958125 
Q 47.942188 349.958125 49.942188 349.958125 
z
" style="fill: #ffffff; opacity: 0.8; stroke: #cccccc; stroke-linejoin: miter"/>
    </g>
    <g id="line2d_31">
     <path d="M 51.942188 296.344062 
L 61.942188 296.344062 
L 71.942188 296.344062 
" style="fill: none; stroke: #1f77b4; stroke-width: 1.5; stroke-linecap: square"/>
    </g>
    <g id="text_17">
     <!-- Memory 5 Contribution -->
     <g transform="translate(79.942188 299.844062) scale(0.1 -0.1)">
      <defs>
       <path id="DejaVuSans-35" d="M 691 4666 
L 3169 4666 
L 3169 4134 
L 1269 4134 
L 1269 2991 
Q 1406 3038 1543 3061 
Q 1681 3084 1819 3084 
Q 2600 3084 3056 2656 
Q 3513 2228 3513 1497 
Q 3513 744 3044 326 
Q 2575 -91 1722 -91 
Q 1428 -91 1123 -41 
Q 819 9 494 109 
L 494 744 
Q 775 591 1075 516 
Q 1375 441 1709 441 
Q 2250 441 2565 725 
Q 2881 1009 2881 1497 
Q 2881 1984 2565 2268 
Q 2250 2553 1709 2553 
Q 1456 2553 1204 2497 
Q 953 2441 691 2322 
L 691 4666 
z
" transform="scale(0.015625)"/>
      </defs>
      <use xlink:href="#DejaVuSans-4d"/>
      <use xlink:href="#DejaVuSans-65" transform="translate(86.279297 0)"/>
      <use xlink:href="#DejaVuSans-6d" transform="translate(147.802734 0)"/>
      <use xlink:href="#DejaVuSans-6f" transform="translate(245.214844 0)"/>
      <use xlink:href="#DejaVuSans-72" transform="translate(306.396484 0)"/>
      <use xlink:href="#DejaVuSans-79" transform="translate(347.509766 0)"/>
      <use xlink:href="#DejaVuSans-20" transform="translate(406.689453 0)"/>
      <use xlink:href="#DejaVuSans-35" transform="translate(438.476562 0)"/>
      <use xlink:href="#DejaVuSans-20" transform="translate(502.099609 0)"/>
      <use xlink:href="#DejaVuSans-43" transform="translate(533.886719 0)"/>
      <use xlink:href="#DejaVuSans-6f" transform="translate(603.710938 0)"/>
      <use xlink:href="#DejaVuSans-6e" transform="translate(664.892578 0)"/>
      <use xlink:href="#DejaVuSans-74" transform="translate(728.271484 0)"/>
      <use xlink:href="#DejaVuSans-72" transform="translate(767.480469 0)"/>
      <use xlink:href="#DejaVuSans-69" transform="translate(808.59375 0)"/>
      <use xlink:href="#DejaVuSans-62" transform="translate(836.376953 0)"/>
      <use xlink:href="#DejaVuSans-75" transform="translate(899.853516 0)"/>
      <use xlink:href="#DejaVuSans-74" transform="translate(963.232422 0)"/>
      <use xlink:href="#DejaVuSans-69" transform="translate(1002.441406 0)"/>
      <use xlink:href="#DejaVuSans-6f" transform="translate(1030.224609 0)"/>
      <use xlink:href="#DejaVuSans-6e" transform="translate(1091.40625 0)"/>
     </g>
    </g>
    <g id="line2d_32">
     <path d="M 51.942188 311.022187 
L 61.942188 311.022187 
L 71.942188 311.022187 
" style="fill: none; stroke: #ff7f0e; stroke-width: 1.5; stroke-linecap: square"/>
    </g>
    <g id="text_18">
     <!-- Memory 20 Contribution -->
     <g transform="translate(79.942188 314.522187) scale(0.1 -0.1)">
      <use xlink:href="#DejaVuSans-4d"/>
      <use xlink:href="#DejaVuSans-65" transform="translate(86.279297 0)"/>
      <use xlink:href="#DejaVuSans-6d" transform="translate(147.802734 0)"/>
      <use xlink:href="#DejaVuSans-6f" transform="translate(245.214844 0)"/>
      <use xlink:href="#DejaVuSans-72" transform="translate(306.396484 0)"/>
      <use xlink:href="#DejaVuSans-79" transform="translate(347.509766 0)"/>
      <use xlink:href="#DejaVuSans-20" transform="translate(406.689453 0)"/>
      <use xlink:href="#DejaVuSans-32" transform="translate(438.476562 0)"/>
      <use xlink:href="#DejaVuSans-30" transform="translate(502.099609 0)"/>
      <use xlink:href="#DejaVuSans-20" transform="translate(565.722656 0)"/>
      <use xlink:href="#DejaVuSans-43" transform="translate(597.509766 0)"/>
      <use xlink:href="#DejaVuSans-6f" transform="translate(667.333984 0)"/>
      <use xlink:href="#DejaVuSans-6e" transform="translate(728.515625 0)"/>
      <use xlink:href="#DejaVuSans-74" transform="translate(791.894531 0)"/>
      <use xlink:href="#DejaVuSans-72" transform="translate(831.103516 0)"/>
      <use xlink:href="#DejaVuSans-69" transform="translate(872.216797 0)"/>
      <use xlink:href="#DejaVuSans-62" transform="translate(900 0)"/>
      <use xlink:href="#DejaVuSans-75" transform="translate(963.476562 0)"/>
      <use xlink:href="#DejaVuSans-74" transform="translate(1026.855469 0)"/>
      <use xlink:href="#DejaVuSans-69" transform="translate(1066.064453 0)"/>
      <use xlink:href="#DejaVuSans-6f" transform="translate(1093.847656 0)"/>
      <use xlink:href="#DejaVuSans-6e" transform="translate(1155.029297 0)"/>
     </g>
    </g>
    <g id="line2d_33">
     <path d="M 51.942188 325.700312 
L 61.942188 325.700312 
L 71.942188 325.700312 
" style="fill: none; stroke: #2ca02c; stroke-width: 1.5; stroke-linecap: square"/>
    </g>
    <g id="text_19">
     <!-- Memory 50 Contribution -->
     <g transform="translate(79.942188 329.200312) scale(0.1 -0.1)">
      <use xlink:href="#DejaVuSans-4d"/>
      <use xlink:href="#DejaVuSans-65" transform="translate(86.279297 0)"/>
      <use xlink:href="#DejaVuSans-6d" transform="translate(147.802734 0)"/>
      <use xlink:href="#DejaVuSans-6f" transform="translate(245.214844 0)"/>
      <use xlink:href="#DejaVuSans-72" transform="translate(306.396484 0)"/>
      <use xlink:href="#DejaVuSans-79" transform="translate(347.509766 0)"/>
      <use xlink:href="#DejaVuSans-20" transform="translate(406.689453 0)"/>
      <use xlink:href="#DejaVuSans-35" transform="translate(438.476562 0)"/>
      <use xlink:href="#DejaVuSans-30" transform="translate(502.099609 0)"/>
      <use xlink:href="#DejaVuSans-20" transform="translate(565.722656 0)"/>
      <use xlink:href="#DejaVuSans-43" transform="translate(597.509766 0)"/>
      <use xlink:href="#DejaVuSans-6f" transform="translate(667.333984 0)"/>
      <use xlink:href="#DejaVuSans-6e" transform="translate(728.515625 0)"/>
      <use xlink:href="#DejaVuSans-74" transform="translate(791.894531 0)"/>
      <use xlink:href="#DejaVuSans-72" transform="translate(831.103516 0)"/>
      <use xlink:href="#DejaVuSans-69" transform="translate(872.216797 0)"/>
      <use xlink:href="#DejaVuSans-62" transform="translate(900 0)"/>
      <use xlink:href="#DejaVuSans-75" transform="translate(963.476562 0)"/>
      <use xlink:href="#DejaVuSans-74" transform="translate(1026.855469 0)"/>
      <use xlink:href="#DejaVuSans-69" transform="translate(1066.064453 0)"/>
      <use xlink:href="#DejaVuSans-6f" transform="translate(1093.847656 0)"/>
      <use xlink:href="#DejaVuSans-6e" transform="translate(1155.029297 0)"/>
     </g>
    </g>
    <g id="line2d_34">
     <path d="M 51.942188 340.378437 
L 61.942188 340.378437 
L 71.942188 340.378437 
" style="fill: none; stroke: #d62728; stroke-width: 1.5; stroke-linecap: square"/>
    </g>
    <g id="text_20">
     <!-- Memory 80 Contribution -->
     <g transform="translate(79.942188 343.878437) scale(0.1 -0.1)">
      <use xlink:href="#DejaVuSans-4d"/>
      <use xlink:href="#DejaVuSans-65" transform="translate(86.279297 0)"/>
      <use xlink:href="#DejaVuSans-6d" transform="translate(147.802734 0)"/>
      <use xlink:href="#DejaVuSans-6f" transform="translate(245.214844 0)"/>
      <use xlink:href="#DejaVuSans-72" transform="translate(306.396484 0)"/>
      <use xlink:href="#DejaVuSans-79" transform="translate(347.509766 0)"/>
      <use xlink:href="#DejaVuSans-20" transform="translate(406.689453 0)"/>
      <use xlink:href="#DejaVuSans-38" transform="translate(438.476562 0)"/>
      <use xlink:href="#DejaVuSans-30" transform="translate(502.099609 0)"/>
      <use xlink:href="#DejaVuSans-20" transform="translate(565.722656 0)"/>
      <use xlink:href="#DejaVuSans-43" transform="translate(597.509766 0)"/>
      <use xlink:href="#DejaVuSans-6f" transform="translate(667.333984 0)"/>
      <use xlink:href="#DejaVuSans-6e" transform="translate(728.515625 0)"/>
      <use xlink:href="#DejaVuSans-74" transform="translate(791.894531 0)"/>
      <use xlink:href="#DejaVuSans-72" transform="translate(831.103516 0)"/>
      <use xlink:href="#DejaVuSans-69" transform="translate(872.216797 0)"/>
      <use xlink:href="#DejaVuSans-62" transform="translate(900 0)"/>
      <use xlink:href="#DejaVuSans-75" transform="translate(963.476562 0)"/>
      <use xlink:href="#DejaVuSans-74" transform="translate(1026.855469 0)"/>
      <use xlink:href="#DejaVuSans-69" transform="translate(1066.064453 0)"/>
      <use xlink:href="#DejaVuSans-6f" transform="translate(1093.847656 0)"/>
      <use xlink:href="#DejaVuSans-6e" transform="translate(1155.029297 0)"/>
     </g>
    </g>
   </g>
  </g>
 </g>
 <defs>
  <clipPath id="pf51e22f5d9">
   <rect x="42.942188" y="22.318125" width="558" height="332.64"/>
  </clipPath>
 </defs>
</svg>
