<?xml version="1.0" encoding="utf-8" standalone="no"?>
<!DOCTYPE svg PUBLIC "-//W3C//DTD SVG 1.1//EN"
  "http://www.w3.org/Graphics/SVG/1.1/DTD/svg11.dtd">
<svg xmlns:xlink="http://www.w3.org/1999/xlink" width="599.440625pt" height="392.514375pt" viewBox="0 0 599.440625 392.514375" xmlns="http://www.w3.org/2000/svg" version="1.1">
 <metadata>
  <rdf:RDF xmlns:dc="http://purl.org/dc/elements/1.1/" xmlns:cc="http://creativecommons.org/ns#" xmlns:rdf="http://www.w3.org/1999/02/22-rdf-syntax-ns#">
   <cc:Work>
    <dc:type rdf:resource="http://purl.org/dc/dcmitype/StillImage"/>
    <dc:date>2026-03-29T17:53:11.474786</dc:date>
    <dc:format>image/svg+xml</dc:format>
    <dc:creator>
     <cc:Agent>
      <dc:title>Matplotlib v3.10.1, https://matplotlib.org/</dc:title>
     </cc:Agent>
    </dc:creator>
   </cc:Work>
  </rdf:RDF>
 </metadata>
 <defs>
  <style type="text/css">*{stroke-linejoin: round; stroke-linecap: butt}</style>
 </defs>
 <g id="figure_1">
  <g id="patch_1">
   <path d="M 0 392.514375 
L 599.440625 392.514375 
L 599.440625 0 
L 0 0 
z
" style="fill: #ffffff"/>
  </g>
  <g id="axes_1">
   <g id="patch_2">
    <path d="M 34.240625 354.958125 
L 592.240625 354.958125 
L 592.240625 22.318125 
L 34.240625 22.318125 
z
" style="fill: #ffffff"/>
   </g>
   <g id="matplotlib.axis_1">
    <g id="xtick_1">
     <g id="line2d_1">
      <path d="M 38.814395 354.958125 
L 38.814395 22.318125 
" clip-path="url(#p4854d50dff)" style="fill: none; stroke: #b0b0b0; stroke-opacity: 0.3; stroke-width: 0.8; stroke-linecap: square"/>
     </g>
     <g id="line2d_2">
      <defs>
       <path id="medf01b9e36" d="M 0 0 
L 0 3.5 
" style="stroke: #000000; stroke-width: 0.8"/>
      </defs>
      <g>
       <use xlink:href="#medf01b9e36" x="38.814395" y="354.958125" style="stroke: #000000; stroke-width: 0.8"/>
      </g>
     </g>
     <g id="text_1">
      <!-- 0 -->
      <g transform="translate(35.633145 369.556562) scale(0.1 -0.1)">
       <defs>
        <path id="DejaVuSans-30" d="M 2034 4250 
Q 1547 4250 1301 3770 
Q 1056 3291 1056 2328 
Q 1056 1369 1301 889 
Q 1547 409 2034 409 
Q 2525 409 2770 889 
Q 3016 1369 3016 2328 
Q 3016 3291 2770 3770 
Q 2525 4250 2034 4250 
z
M 2034 4750 
Q 2819 4750 3233 4129 
Q 3647 3509 3647 2328 
Q 3647 1150 3233 529 
Q 2819 -91 2034 -91 
Q 1250 -91 836 529 
Q 422 1150 422 2328 
Q 422 3509 836 4129 
Q 1250 4750 2034 4750 
z
" transform="scale(0.015625)"/>
       </defs>
       <use xlink:href="#DejaVuSans-30"/>
      </g>
     </g>
    </g>
    <g id="xtick_2">
     <g id="line2d_3">
      <path d="M 121.973859 354.958125 
L 121.973859 22.318125 
" clip-path="url(#p4854d50dff)" style="fill: none; stroke: #b0b0b0; stroke-opacity: 0.3; stroke-width: 0.8; stroke-linecap: square"/>
     </g>
     <g id="line2d_4">
      <g>
       <use xlink:href="#medf01b9e36" x="121.973859" y="354.958125" style="stroke: #000000; stroke-width: 0.8"/>
      </g>
     </g>
     <g id="text_2">
      <!-- 20 -->
      <g transform="translate(115.611359 369.556562) scale(0.1 -0.1)">
       <defs>
        <path id="DejaVuSans-32" d="M 1228 531 
L 3431 531 
L 3431 0 
L 469 0 
L 469 531 
Q 828 903 1448 1529 
Q 2069 2156 2228 2338 
Q 2531 2678 2651 2914 
Q 2772 3150 2772 3378 
Q 2772 3750 2511 3984 
Q 2250 4219 1831 4219 
Q 1534 4219 1204 4116 
Q 875 4013 500 3803 
L 500 4441 
Q 881 4594 1212 4672 
Q 1544 4750 1819 4750 
Q 2544 4750 2975 4387 
Q 3406 4025 3406 3419 
Q 3406 3131 3298 2873 
Q 3191 2616 2906 2266 
Q 2828 2175 2409 1742 
Q 1991 1309 1228 531 
z
" transform="scale(0.015625)"/>
       </defs>
       <use xlink:href="#DejaVuSans-32"/>
       <use xlink:href="#DejaVuSans-30" transform="translate(63.623047 0)"/>
      </g>
     </g>
    </g>
    <g id="xtick_3">
     <g id="line2d_5">
      <path d="M 205.133322 354.958125 
L 205.133322 22.318125 
" clip-path="url(#p4854d50dff)" style="fill: none; stroke: #b0b0b0; stroke-opacity: 0.3; stroke-width: 0.8; stroke-linecap: square"/>
     </g>
     <g id="line2d_6">
      <g>
       <use xlink:href="#medf01b9e36" x="205.133322" y="354.958125" style="stroke: #000000; stroke-width: 0.8"/>
      </g>
     </g>
     <g id="text_3">
      <!-- 40 -->
      <g transform="translate(198.770822 369.556562) scale(0.1 -0.1)">
       <defs>
        <path id="DejaVuSans-34" d="M 2419 4116 
L 825 1625 
L 2419 1625 
L 2419 4116 
z
M 2253 4666 
L 3047 4666 
L 3047 1625 
L 3713 1625 
L 3713 1100 
L 3047 1100 
L 3047 0 
L 2419 0 
L 2419 1100 
L 313 1100 
L 313 1709 
L 2253 4666 
z
" transform="scale(0.015625)"/>
       </defs>
       <use xlink:href="#DejaVuSans-34"/>
       <use xlink:href="#DejaVuSans-30" transform="translate(63.623047 0)"/>
      </g>
     </g>
    </g>
    <g id="xtick_4">
     <g id="line2d_7">
      <path d="M 288.292786 354.958125 
L 288.292786 22.318125 
" clip-path="url(#p4854d50dff)" style="fill: none; stroke: #b0b0b0; stroke-opacity: 0.3; stroke-width: 0.8; stroke-linecap: square"/>
     </g>
     <g id="line2d_8">
      <g>
       <use xlink:href="#medf01b9e36" x="288.292786" y="354.958125" style="stroke: #000000; stroke-width: 0.8"/>
      </g>
     </g>
     <g id="text_4">
      <!-- 60 -->
      <g transform="translate(281.930286 369.556562) scale(0.1 -0.1)">
       <defs>
        <path id="DejaVuSans-36" d="M 2113 2584 
Q 1688 2584 1439 2293 
Q 1191 2003 1191 1497 
Q 1191 994 1439 701 
Q 1688 409 2113 409 
Q 2538 409 2786 701 
Q 3034 994 3034 1497 
Q 3034 2003 2786 2293 
Q 2538 2584 2113 2584 
z
M 3366 4563 
L 3366 3988 
Q 3128 4100 2886 4159 
Q 2644 4219 2406 4219 
Q 1781 4219 1451 3797 
Q 1122 3375 1075 2522 
Q 1259 2794 1537 2939 
Q 1816 3084 2150 3084 
Q 2853 3084 3261 2657 
Q 3669 2231 3669 1497 
Q 3669 778 3244 343 
Q 2819 -91 2113 -91 
Q 1303 -91 875 529 
Q 447 1150 447 2328 
Q 447 3434 972 4092 
Q 1497 4750 2381 4750 
Q 2619 4750 2861 4703 
Q 3103 4656 3366 4563 
z
" transform="scale(0.015625)"/>
       </defs>
       <use xlink:href="#DejaVuSans-36"/>
       <use xlink:href="#DejaVuSans-30" transform="translate(63.623047 0)"/>
      </g>
     </g>
    </g>
    <g id="xtick_5">
     <g id="line2d_9">
      <path d="M 371.452249 354.958125 
L 371.452249 22.318125 
" clip-path="url(#p4854d50dff)" style="fill: none; stroke: #b0b0b0; stroke-opacity: 0.3; stroke-width: 0.8; stroke-linecap: square"/>
     </g>
     <g id="line2d_10">
      <g>
       <use xlink:href="#medf01b9e36" x="371.452249" y="354.958125" style="stroke: #000000; stroke-width: 0.8"/>
      </g>
     </g>
     <g id="text_5">
      <!-- 80 -->
      <g transform="translate(365.089749 369.556562) scale(0.1 -0.1)">
       <defs>
        <path id="DejaVuSans-38" d="M 2034 2216 
Q 1584 2216 1326 1975 
Q 1069 1734 1069 1313 
Q 1069 891 1326 650 
Q 1584 409 2034 409 
Q 2484 409 2743 651 
Q 3003 894 3003 1313 
Q 3003 1734 2745 1975 
Q 2488 2216 2034 2216 
z
M 1403 2484 
Q 997 2584 770 2862 
Q 544 3141 544 3541 
Q 544 4100 942 4425 
Q 1341 4750 2034 4750 
Q 2731 4750 3128 4425 
Q 3525 4100 3525 3541 
Q 3525 3141 3298 2862 
Q 3072 2584 2669 2484 
Q 3125 2378 3379 2068 
Q 3634 1759 3634 1313 
Q 3634 634 3220 271 
Q 2806 -91 2034 -91 
Q 1263 -91 848 271 
Q 434 634 434 1313 
Q 434 1759 690 2068 
Q 947 2378 1403 2484 
z
M 1172 3481 
Q 1172 3119 1398 2916 
Q 1625 2713 2034 2713 
Q 2441 2713 2670 2916 
Q 2900 3119 2900 3481 
Q 2900 3844 2670 4047 
Q 2441 4250 2034 4250 
Q 1625 4250 1398 4047 
Q 1172 3844 1172 3481 
z
" transform="scale(0.015625)"/>
       </defs>
       <use xlink:href="#DejaVuSans-38"/>
       <use xlink:href="#DejaVuSans-30" transform="translate(63.623047 0)"/>
      </g>
     </g>
    </g>
    <g id="xtick_6">
     <g id="line2d_11">
      <path d="M 454.611713 354.958125 
L 454.611713 22.318125 
" clip-path="url(#p4854d50dff)" style="fill: none; stroke: #b0b0b0; stroke-opacity: 0.3; stroke-width: 0.8; stroke-linecap: square"/>
     </g>
     <g id="line2d_12">
      <g>
       <use xlink:href="#medf01b9e36" x="454.611713" y="354.958125" style="stroke: #000000; stroke-width: 0.8"/>
      </g>
     </g>
     <g id="text_6">
      <!-- 100 -->
      <g transform="translate(445.067963 369.556562) scale(0.1 -0.1)">
       <defs>
        <path id="DejaVuSans-31" d="M 794 531 
L 1825 531 
L 1825 4091 
L 703 3866 
L 703 4441 
L 1819 4666 
L 2450 4666 
L 2450 531 
L 3481 531 
L 3481 0 
L 794 0 
L 794 531 
z
" transform="scale(0.015625)"/>
       </defs>
       <use xlink:href="#DejaVuSans-31"/>
       <use xlink:href="#DejaVuSans-30" transform="translate(63.623047 0)"/>
       <use xlink:href="#DejaVuSans-30" transform="translate(127.246094 0)"/>
      </g>
     </g>
    </g>
    <g id="xtick_7">
     <g id="line2d_13">
      <path d="M 537.771176 354.958125 
L 537.771176 22.318125 
" clip-path="url(#p4854d50dff)" style="fill: none; stroke: #b0b0b0; stroke-opacity: 0.3; stroke-width: 0.8; stroke-linecap: square"/>
     </g>
     <g id="line2d_14">
      <g>
       <use xlink:href="#medf01b9e36" x="537.771176" y="354.958125" style="stroke: #000000; stroke-width: 0.8"/>
      </g>
     </g>
     <g id="text_7">
      <!-- 120 -->
      <g transform="translate(528.227426 369.556562) scale(0.1 -0.1)">
       <use xlink:href="#DejaVuSans-31"/>
       <use xlink:href="#DejaVuSans-32" transform="translate(63.623047 0)"/>
       <use xlink:href="#DejaVuSans-30" transform="translate(127.246094 0)"/>
      </g>
     </g>
    </g>
    <g id="text_8">
     <!-- Timestep t -->
     <g transform="translate(286.642188 383.234687) scale(0.1 -0.1)">
      <defs>
       <path id="DejaVuSans-54" d="M -19 4666 
L 3928 4666 
L 3928 4134 
L 2272 4134 
L 2272 0 
L 1638 0 
L 1638 4134 
L -19 4134 
L -19 4666 
z
" transform="scale(0.015625)"/>
       <path id="DejaVuSans-69" d="M 603 3500 
L 1178 3500 
L 1178 0 
L 603 0 
L 603 3500 
z
M 603 4863 
L 1178 4863 
L 1178 4134 
L 603 4134 
L 603 4863 
z
" transform="scale(0.015625)"/>
       <path id="DejaVuSans-6d" d="M 3328 2828 
Q 3544 3216 3844 3400 
Q 4144 3584 4550 3584 
Q 5097 3584 5394 3201 
Q 5691 2819 5691 2113 
L 5691 0 
L 5113 0 
L 5113 2094 
Q 5113 2597 4934 2840 
Q 4756 3084 4391 3084 
Q 3944 3084 3684 2787 
Q 3425 2491 3425 1978 
L 3425 0 
L 2847 0 
L 2847 2094 
Q 2847 2600 2669 2842 
Q 2491 3084 2119 3084 
Q 1678 3084 1418 2786 
Q 1159 2488 1159 1978 
L 1159 0 
L 581 0 
L 581 3500 
L 1159 3500 
L 1159 2956 
Q 1356 3278 1631 3431 
Q 1906 3584 2284 3584 
Q 2666 3584 2933 3390 
Q 3200 3197 3328 2828 
z
" transform="scale(0.015625)"/>
       <path id="DejaVuSans-65" d="M 3597 1894 
L 3597 1613 
L 953 1613 
Q 991 1019 1311 708 
Q 1631 397 2203 397 
Q 2534 397 2845 478 
Q 3156 559 3463 722 
L 3463 178 
Q 3153 47 2828 -22 
Q 2503 -91 2169 -91 
Q 1331 -91 842 396 
Q 353 884 353 1716 
Q 353 2575 817 3079 
Q 1281 3584 2069 3584 
Q 2775 3584 3186 3129 
Q 3597 2675 3597 1894 
z
M 3022 2063 
Q 3016 2534 2758 2815 
Q 2500 3097 2075 3097 
Q 1594 3097 1305 2825 
Q 1016 2553 972 2059 
L 3022 2063 
z
" transform="scale(0.015625)"/>
       <path id="DejaVuSans-73" d="M 2834 3397 
L 2834 2853 
Q 2591 2978 2328 3040 
Q 2066 3103 1784 3103 
Q 1356 3103 1142 2972 
Q 928 2841 928 2578 
Q 928 2378 1081 2264 
Q 1234 2150 1697 2047 
L 1894 2003 
Q 2506 1872 2764 1633 
Q 3022 1394 3022 966 
Q 3022 478 2636 193 
Q 2250 -91 1575 -91 
Q 1294 -91 989 -36 
Q 684 19 347 128 
L 347 722 
Q 666 556 975 473 
Q 1284 391 1588 391 
Q 1994 391 2212 530 
Q 2431 669 2431 922 
Q 2431 1156 2273 1281 
Q 2116 1406 1581 1522 
L 1381 1569 
Q 847 1681 609 1914 
Q 372 2147 372 2553 
Q 372 3047 722 3315 
Q 1072 3584 1716 3584 
Q 2034 3584 2315 3537 
Q 2597 3491 2834 3397 
z
" transform="scale(0.015625)"/>
       <path id="DejaVuSans-74" d="M 1172 4494 
L 1172 3500 
L 2356 3500 
L 2356 3053 
L 1172 3053 
L 1172 1153 
Q 1172 725 1289 603 
Q 1406 481 1766 481 
L 2356 481 
L 2356 0 
L 1766 0 
Q 1100 0 847 248 
Q 594 497 594 1153 
L 594 3053 
L 172 3053 
L 172 3500 
L 594 3500 
L 594 4494 
L 1172 4494 
z
" transform="scale(0.015625)"/>
       <path id="DejaVuSans-70" d="M 1159 525 
L 1159 -1331 
L 581 -1331 
L 581 3500 
L 1159 3500 
L 1159 2969 
Q 1341 3281 1617 3432 
Q 1894 3584 2278 3584 
Q 2916 3584 3314 3078 
Q 3713 2572 3713 1747 
Q 3713 922 3314 415 
Q 2916 -91 2278 -91 
Q 1894 -91 1617 61 
Q 1341 213 1159 525 
z
M 3116 1747 
Q 3116 2381 2855 2742 
Q 2594 3103 2138 3103 
Q 1681 3103 1420 2742 
Q 1159 2381 1159 1747 
Q 1159 1113 1420 752 
Q 1681 391 2138 391 
Q 2594 391 2855 752 
Q 3116 1113 3116 1747 
z
" transform="scale(0.015625)"/>
       <path id="DejaVuSans-20" transform="scale(0.015625)"/>
      </defs>
      <use xlink:href="#DejaVuSans-54"/>
      <use xlink:href="#DejaVuSans-69" transform="translate(57.958984 0)"/>
      <use xlink:href="#DejaVuSans-6d" transform="translate(85.742188 0)"/>
      <use xlink:href="#DejaVuSans-65" transform="translate(183.154297 0)"/>
      <use xlink:href="#DejaVuSans-73" transform="translate(244.677734 0)"/>
      <use xlink:href="#DejaVuSans-74" transform="translate(296.777344 0)"/>
      <use xlink:href="#DejaVuSans-65" transform="translate(335.986328 0)"/>
      <use xlink:href="#DejaVuSans-70" transform="translate(397.509766 0)"/>
      <use xlink:href="#DejaVuSans-20" transform="translate(460.986328 0)"/>
      <use xlink:href="#DejaVuSans-74" transform="translate(492.773438 0)"/>
     </g>
    </g>
   </g>
   <g id="matplotlib.axis_2">
    <g id="ytick_1">
     <g id="line2d_15">
      <path d="M 34.240625 339.838125 
L 592.240625 339.838125 
" clip-path="url(#p4854d50dff)" style="fill: none; stroke: #b0b0b0; stroke-opacity: 0.3; stroke-width: 0.8; stroke-linecap: square"/>
     </g>
     <g id="line2d_16">
      <defs>
       <path id="m35f3fcd24f" d="M 0 0 
L -3.5 0 
" style="stroke: #000000; stroke-width: 0.8"/>
      </defs>
      <g>
       <use xlink:href="#m35f3fcd24f" x="34.240625" y="339.838125" style="stroke: #000000; stroke-width: 0.8"/>
      </g>
     </g>
     <g id="text_9">
      <!-- 0 -->
      <g transform="translate(20.878125 343.637344) scale(0.1 -0.1)">
       <use xlink:href="#DejaVuSans-30"/>
      </g>
     </g>
    </g>
    <g id="ytick_2">
     <g id="line2d_17">
      <path d="M 34.240625 275.048531 
L 592.240625 275.048531 
" clip-path="url(#p4854d50dff)" style="fill: none; stroke: #b0b0b0; stroke-opacity: 0.3; stroke-width: 0.8; stroke-linecap: square"/>
     </g>
     <g id="line2d_18">
      <g>
       <use xlink:href="#m35f3fcd24f" x="34.240625" y="275.048531" style="stroke: #000000; stroke-width: 0.8"/>
      </g>
     </g>
     <g id="text_10">
      <!-- 2 -->
      <g transform="translate(20.878125 278.84775) scale(0.1 -0.1)">
       <use xlink:href="#DejaVuSans-32"/>
      </g>
     </g>
    </g>
    <g id="ytick_3">
     <g id="line2d_19">
      <path d="M 34.240625 210.258937 
L 592.240625 210.258937 
" clip-path="url(#p4854d50dff)" style="fill: none; stroke: #b0b0b0; stroke-opacity: 0.3; stroke-width: 0.8; stroke-linecap: square"/>
     </g>
     <g id="line2d_20">
      <g>
       <use xlink:href="#m35f3fcd24f" x="34.240625" y="210.258937" style="stroke: #000000; stroke-width: 0.8"/>
      </g>
     </g>
     <g id="text_11">
      <!-- 4 -->
      <g transform="translate(20.878125 214.058156) scale(0.1 -0.1)">
       <use xlink:href="#DejaVuSans-34"/>
      </g>
     </g>
    </g>
    <g id="ytick_4">
     <g id="line2d_21">
      <path d="M 34.240625 145.469343 
L 592.240625 145.469343 
" clip-path="url(#p4854d50dff)" style="fill: none; stroke: #b0b0b0; stroke-opacity: 0.3; stroke-width: 0.8; stroke-linecap: square"/>
     </g>
     <g id="line2d_22">
      <g>
       <use xlink:href="#m35f3fcd24f" x="34.240625" y="145.469343" style="stroke: #000000; stroke-width: 0.8"/>
      </g>
     </g>
     <g id="text_12">
      <!-- 6 -->
      <g transform="translate(20.878125 149.268561) scale(0.1 -0.1)">
       <use xlink:href="#DejaVuSans-36"/>
      </g>
     </g>
    </g>
    <g id="ytick_5">
     <g id="line2d_23">
      <path d="M 34.240625 80.679749 
L 592.240625 80.679749 
" clip-path="url(#p4854d50dff)" style="fill: none; stroke: #b0b0b0; stroke-opacity: 0.3; stroke-width: 0.8; stroke-linecap: square"/>
     </g>
     <g id="line2d_24">
      <g>
       <use xlink:href="#m35f3fcd24f" x="34.240625" y="80.679749" style="stroke: #000000; stroke-width: 0.8"/>
      </g>
     </g>
     <g id="text_13">
      <!-- 8 -->
      <g transform="translate(20.878125 84.478967) scale(0.1 -0.1)">
       <use xlink:href="#DejaVuSans-38"/>
      </g>
     </g>
    </g>
    <g id="text_14">
     <!-- Survival Value -->
     <g transform="translate(14.798437 224.117812) rotate(-90) scale(0.1 -0.1)">
      <defs>
       <path id="DejaVuSans-53" d="M 3425 4513 
L 3425 3897 
Q 3066 4069 2747 4153 
Q 2428 4238 2131 4238 
Q 1616 4238 1336 4038 
Q 1056 3838 1056 3469 
Q 1056 3159 1242 3001 
Q 1428 2844 1947 2747 
L 2328 2669 
Q 3034 2534 3370 2195 
Q 3706 1856 3706 1288 
Q 3706 609 3251 259 
Q 2797 -91 1919 -91 
Q 1588 -91 1214 -16 
Q 841 59 441 206 
L 441 856 
Q 825 641 1194 531 
Q 1563 422 1919 422 
Q 2459 422 2753 634 
Q 3047 847 3047 1241 
Q 3047 1584 2836 1778 
Q 2625 1972 2144 2069 
L 1759 2144 
Q 1053 2284 737 2584 
Q 422 2884 422 3419 
Q 422 4038 858 4394 
Q 1294 4750 2059 4750 
Q 2388 4750 2728 4690 
Q 3069 4631 3425 4513 
z
" transform="scale(0.015625)"/>
       <path id="DejaVuSans-75" d="M 544 1381 
L 544 3500 
L 1119 3500 
L 1119 1403 
Q 1119 906 1312 657 
Q 1506 409 1894 409 
Q 2359 409 2629 706 
Q 2900 1003 2900 1516 
L 2900 3500 
L 3475 3500 
L 3475 0 
L 2900 0 
L 2900 538 
Q 2691 219 2414 64 
Q 2138 -91 1772 -91 
Q 1169 -91 856 284 
Q 544 659 544 1381 
z
M 1991 3584 
L 1991 3584 
z
" transform="scale(0.015625)"/>
       <path id="DejaVuSans-72" d="M 2631 2963 
Q 2534 3019 2420 3045 
Q 2306 3072 2169 3072 
Q 1681 3072 1420 2755 
Q 1159 2438 1159 1844 
L 1159 0 
L 581 0 
L 581 3500 
L 1159 3500 
L 1159 2956 
Q 1341 3275 1631 3429 
Q 1922 3584 2338 3584 
Q 2397 3584 2469 3576 
Q 2541 3569 2628 3553 
L 2631 2963 
z
" transform="scale(0.015625)"/>
       <path id="DejaVuSans-76" d="M 191 3500 
L 800 3500 
L 1894 563 
L 2988 3500 
L 3597 3500 
L 2284 0 
L 1503 0 
L 191 3500 
z
" transform="scale(0.015625)"/>
       <path id="DejaVuSans-61" d="M 2194 1759 
Q 1497 1759 1228 1600 
Q 959 1441 959 1056 
Q 959 750 1161 570 
Q 1363 391 1709 391 
Q 2188 391 2477 730 
Q 2766 1069 2766 1631 
L 2766 1759 
L 2194 1759 
z
M 3341 1997 
L 3341 0 
L 2766 0 
L 2766 531 
Q 2569 213 2275 61 
Q 1981 -91 1556 -91 
Q 1019 -91 701 211 
Q 384 513 384 1019 
Q 384 1609 779 1909 
Q 1175 2209 1959 2209 
L 2766 2209 
L 2766 2266 
Q 2766 2663 2505 2880 
Q 2244 3097 1772 3097 
Q 1472 3097 1187 3025 
Q 903 2953 641 2809 
L 641 3341 
Q 956 3463 1253 3523 
Q 1550 3584 1831 3584 
Q 2591 3584 2966 3190 
Q 3341 2797 3341 1997 
z
" transform="scale(0.015625)"/>
       <path id="DejaVuSans-6c" d="M 603 4863 
L 1178 4863 
L 1178 0 
L 603 0 
L 603 4863 
z
" transform="scale(0.015625)"/>
       <path id="DejaVuSans-56" d="M 1831 0 
L 50 4666 
L 709 4666 
L 2188 738 
L 3669 4666 
L 4325 4666 
L 2547 0 
L 1831 0 
z
" transform="scale(0.015625)"/>
      </defs>
      <use xlink:href="#DejaVuSans-53"/>
      <use xlink:href="#DejaVuSans-75" transform="translate(63.476562 0)"/>
      <use xlink:href="#DejaVuSans-72" transform="translate(126.855469 0)"/>
      <use xlink:href="#DejaVuSans-76" transform="translate(167.96875 0)"/>
      <use xlink:href="#DejaVuSans-69" transform="translate(227.148438 0)"/>
      <use xlink:href="#DejaVuSans-76" transform="translate(254.931641 0)"/>
      <use xlink:href="#DejaVuSans-61" transform="translate(314.111328 0)"/>
      <use xlink:href="#DejaVuSans-6c" transform="translate(375.390625 0)"/>
      <use xlink:href="#DejaVuSans-20" transform="translate(403.173828 0)"/>
      <use xlink:href="#DejaVuSans-56" transform="translate(434.960938 0)"/>
      <use xlink:href="#DejaVuSans-61" transform="translate(495.619141 0)"/>
      <use xlink:href="#DejaVuSans-6c" transform="translate(556.898438 0)"/>
      <use xlink:href="#DejaVuSans-75" transform="translate(584.681641 0)"/>
      <use xlink:href="#DejaVuSans-65" transform="translate(648.060547 0)"/>
     </g>
    </g>
   </g>
   <g id="line2d_25">
    <path d="M 59.604261 307.443328 
L 63.762235 331.23937 
L 67.920208 338.193978 
L 72.078181 339.484785 
L 76.236154 339.791035 
L 80.394127 339.830554 
L 84.5521 339.836844 
L 88.710074 339.837958 
L 92.868047 339.838094 
L 97.02602 339.838119 
L 101.183993 339.838123 
L 105.341966 339.838125 
L 109.499939 339.838125 
L 113.657913 339.838125 
L 117.815886 339.838125 
L 121.973859 339.838125 
L 126.131832 339.838125 
L 130.289805 339.838125 
L 134.447779 339.838125 
L 138.605752 339.838125 
L 142.763725 339.838125 
L 146.921698 339.838125 
L 151.079671 339.838125 
L 155.237644 339.838125 
L 159.395618 339.838125 
L 163.553591 339.838125 
L 167.711564 339.838125 
L 171.869537 339.838125 
L 176.02751 339.838125 
L 180.185483 339.838125 
L 184.343457 339.838125 
L 188.50143 339.838125 
L 192.659403 339.838125 
L 196.817376 339.838125 
L 200.975349 339.838125 
L 205.133322 339.838125 
L 209.291296 339.838125 
L 213.449269 339.838125 
L 217.607242 339.838125 
L 221.765215 339.838125 
L 225.923188 339.838125 
L 230.081162 339.838125 
L 234.239135 339.838125 
L 238.397108 339.838125 
L 242.555081 339.838125 
L 246.713054 339.838125 
L 250.871027 339.838125 
L 255.029001 339.838125 
L 259.186974 339.838125 
L 263.344947 339.838125 
L 267.50292 339.838125 
L 271.660893 339.838125 
L 275.818866 339.838125 
L 279.97684 339.838125 
L 284.134813 339.838125 
L 288.292786 339.838125 
L 292.450759 339.838125 
L 296.608732 339.838125 
L 300.766705 339.838125 
L 304.924679 339.838125 
L 309.082652 339.838125 
L 313.240625 339.838125 
L 317.398598 339.838125 
L 321.556571 339.838125 
L 325.714545 339.838125 
L 329.872518 339.838125 
L 334.030491 339.838125 
L 338.188464 339.838125 
L 342.346437 339.838125 
L 346.50441 339.838125 
L 350.662384 339.838125 
L 354.820357 339.838125 
L 358.97833 339.838125 
L 363.136303 339.838125 
L 367.294276 339.838125 
L 371.452249 339.838125 
L 375.610223 339.838125 
L 379.768196 339.838125 
L 383.926169 339.838125 
L 388.084142 339.838125 
L 392.242115 339.838125 
L 396.400088 339.838125 
L 400.558062 339.838125 
L 404.716035 339.838125 
L 408.874008 339.838125 
L 413.031981 339.838125 
L 417.189954 339.838125 
L 421.347928 339.838125 
L 425.505901 339.838125 
L 429.663874 339.838125 
L 433.821847 339.838125 
L 437.97982 339.838125 
L 442.137793 339.838125 
L 446.295767 339.838125 
L 450.45374 339.838125 
L 454.611713 339.838125 
L 458.769686 339.838125 
L 462.927659 339.838125 
L 467.085632 339.838125 
L 471.243606 339.838125 
L 475.401579 339.838125 
L 479.559552 339.838125 
L 483.717525 339.838125 
L 487.875498 339.838125 
L 492.033471 339.838125 
L 496.191445 339.838125 
L 500.349418 339.838125 
L 504.507391 339.838125 
L 508.665364 339.838125 
L 512.823337 339.838125 
L 516.981311 339.838125 
L 521.139284 339.838125 
L 525.297257 339.838125 
L 529.45523 339.838125 
L 533.613203 339.838125 
L 537.771176 339.838125 
L 541.92915 339.838125 
L 546.087123 339.838125 
L 550.245096 339.838125 
L 554.403069 339.838125 
L 558.561042 339.838125 
L 562.719015 339.838125 
L 566.876989 339.838125 
" clip-path="url(#p4854d50dff)" style="fill: none; stroke: #1f77b4; stroke-width: 1.5; stroke-linecap: square"/>
   </g>
   <g id="line2d_26">
    <path d="M 59.604261 307.443328 
L 63.762235 306.634125 
L 67.920208 307.926825 
L 72.078181 307.169315 
L 76.236154 307.820923 
L 80.394127 306.152287 
L 84.5521 305.952728 
L 88.710074 312.883126 
L 92.868047 307.006173 
L 97.02602 308.38184 
L 101.183993 308.338797 
L 105.341966 306.684027 
L 109.499939 302.647275 
L 113.657913 301.678969 
L 117.815886 307.184721 
L 121.973859 308.59254 
L 126.131832 309.527938 
L 130.289805 311.377843 
L 134.447779 310.611528 
L 138.605752 308.685025 
L 142.763725 306.921029 
L 146.921698 309.250988 
L 151.079671 311.909121 
L 155.237644 315.369716 
L 159.395618 312.919772 
L 163.553591 310.815079 
L 167.711564 312.042512 
L 171.869537 311.710879 
L 176.02751 312.264358 
L 180.185483 315.179259 
L 184.343457 314.964602 
L 188.50143 314.555932 
L 192.659403 314.366788 
L 196.817376 313.547865 
L 200.975349 312.358095 
L 205.133322 311.600124 
L 209.291296 308.141346 
L 213.449269 307.11251 
L 217.607242 307.634345 
L 221.765215 305.641634 
L 225.923188 302.698446 
L 230.081162 302.125868 
L 234.239135 305.586603 
L 238.397108 303.896137 
L 242.555081 298.282287 
L 246.713054 296.079519 
L 250.871027 297.063506 
L 255.029001 290.343842 
L 259.186974 289.100849 
L 263.344947 296.739471 
L 267.50292 293.33984 
L 271.660893 293.079772 
L 275.818866 297.862108 
L 279.97684 296.555799 
L 284.134813 297.196696 
L 288.292786 297.939246 
L 292.450759 294.429433 
L 296.608732 290.934598 
L 300.766705 282.293297 
L 304.924679 269.442434 
L 309.082652 266.067194 
L 313.240625 265.170432 
L 317.398598 261.752263 
L 321.556571 264.74971 
L 325.714545 258.5833 
L 329.872518 251.440535 
L 334.030491 246.170611 
L 338.188464 247.508843 
L 342.346437 244.006769 
L 346.50441 242.578817 
L 350.662384 244.679853 
L 354.820357 237.58238 
L 358.97833 231.98888 
L 363.136303 229.93525 
L 367.294276 225.345203 
L 371.452249 223.704686 
L 375.610223 224.284082 
L 379.768196 214.061413 
L 383.926169 221.683382 
L 388.084142 238.069671 
L 392.242115 236.482653 
L 396.400088 234.466928 
L 400.558062 237.287095 
L 404.716035 227.288452 
L 408.874008 221.316639 
L 413.031981 235.382547 
L 417.189954 235.585077 
L 421.347928 233.360322 
L 425.505901 225.198352 
L 429.663874 233.304195 
L 433.821847 226.188954 
L 437.97982 212.080125 
L 442.137793 207.617111 
L 446.295767 208.842232 
L 450.45374 197.612313 
L 454.611713 200.339339 
L 458.769686 210.510659 
L 462.927659 220.716265 
L 467.085632 206.842367 
L 471.243606 195.288014 
L 475.401579 183.377309 
L 479.559552 176.495743 
L 483.717525 155.564911 
L 487.875498 178.074403 
L 492.033471 174.601199 
L 496.191445 163.240805 
L 500.349418 157.351954 
L 504.507391 117.814903 
L 508.665364 103.035915 
L 512.823337 110.739055 
L 516.981311 85.574751 
L 521.139284 93.17149 
L 525.297257 88.312438 
L 529.45523 57.156059 
L 533.613203 37.438125 
L 537.771176 54.496514 
L 541.92915 81.978824 
L 546.087123 69.385572 
L 550.245096 87.854525 
L 554.403069 71.968504 
L 558.561042 85.719146 
L 562.719015 99.904028 
L 566.876989 121.777049 
" clip-path="url(#p4854d50dff)" style="fill: none; stroke-dasharray: 5.55,2.4; stroke-dashoffset: 0; stroke: #ff7f0e; stroke-width: 1.5"/>
   </g>
   <g id="line2d_27">
    <path d="M 121.973859 307.443328 
L 126.131832 330.248496 
L 130.289805 336.366965 
L 134.447779 338.925974 
L 138.605752 339.597209 
L 142.763725 339.768557 
L 146.921698 339.814044 
L 151.079671 339.832591 
L 155.237644 339.836014 
L 159.395618 339.83731 
L 163.553591 339.837912 
L 167.711564 339.838047 
L 171.869537 339.838104 
L 176.02751 339.838117 
L 180.185483 339.838122 
L 184.343457 339.838124 
L 188.50143 339.838125 
L 192.659403 339.838125 
L 196.817376 339.838125 
L 200.975349 339.838125 
L 205.133322 339.838125 
L 209.291296 339.838125 
L 213.449269 339.838125 
L 217.607242 339.838125 
L 221.765215 339.838125 
L 225.923188 339.838125 
L 230.081162 339.838125 
L 234.239135 339.838125 
L 238.397108 339.838125 
L 242.555081 339.838125 
L 246.713054 339.838125 
L 250.871027 339.838125 
L 255.029001 339.838125 
L 259.186974 339.838125 
L 263.344947 339.838125 
L 267.50292 339.838125 
L 271.660893 339.838125 
L 275.818866 339.838125 
L 279.97684 339.838125 
L 284.134813 339.838125 
L 288.292786 339.838125 
L 292.450759 339.838125 
L 296.608732 339.838125 
L 300.766705 339.838125 
L 304.924679 339.838125 
L 309.082652 339.838125 
L 313.240625 339.838125 
L 317.398598 339.838125 
L 321.556571 339.838125 
L 325.714545 339.838125 
L 329.872518 339.838125 
L 334.030491 339.838125 
L 338.188464 339.838125 
L 342.346437 339.838125 
L 346.50441 339.838125 
L 350.662384 339.838125 
L 354.820357 339.838125 
L 358.97833 339.838125 
L 363.136303 339.838125 
L 367.294276 339.838125 
L 371.452249 339.838125 
L 375.610223 339.838125 
L 379.768196 339.838125 
L 383.926169 339.838125 
L 388.084142 339.838125 
L 392.242115 339.838125 
L 396.400088 339.838125 
L 400.558062 339.838125 
L 404.716035 339.838125 
L 408.874008 339.838125 
L 413.031981 339.838125 
L 417.189954 339.838125 
L 421.347928 339.838125 
L 425.505901 339.838125 
L 429.663874 339.838125 
L 433.821847 339.838125 
L 437.97982 339.838125 
L 442.137793 339.838125 
L 446.295767 339.838125 
L 450.45374 339.838125 
L 454.611713 339.838125 
L 458.769686 339.838125 
L 462.927659 339.838125 
L 467.085632 339.838125 
L 471.243606 339.838125 
L 475.401579 339.838125 
L 479.559552 339.838125 
L 483.717525 339.838125 
L 487.875498 339.838125 
L 492.033471 339.838125 
L 496.191445 339.838125 
L 500.349418 339.838125 
L 504.507391 339.838125 
L 508.665364 339.838125 
L 512.823337 339.838125 
L 516.981311 339.838125 
L 521.139284 339.838125 
L 525.297257 339.838125 
L 529.45523 339.838125 
L 533.613203 339.838125 
L 537.771176 339.838125 
L 541.92915 339.838125 
L 546.087123 339.838125 
L 550.245096 339.838125 
L 554.403069 339.838125 
L 558.561042 339.838125 
L 562.719015 339.838125 
L 566.876989 339.838125 
" clip-path="url(#p4854d50dff)" style="fill: none; stroke: #2ca02c; stroke-width: 1.5; stroke-linecap: square"/>
   </g>
   <g id="line2d_28">
    <path d="M 121.973859 307.443328 
L 126.131832 302.213375 
L 130.289805 300.825983 
L 134.447779 305.029785 
L 138.605752 310.088444 
L 142.763725 313.528029 
L 146.921698 314.038734 
L 151.079671 315.380228 
L 155.237644 316.339978 
L 159.395618 316.547736 
L 163.553591 315.770302 
L 167.711564 314.610281 
L 171.869537 318.07792 
L 176.02751 317.925275 
L 180.185483 318.085732 
L 184.343457 318.606562 
L 188.50143 317.635524 
L 192.659403 318.242623 
L 196.817376 319.324538 
L 200.975349 319.253549 
L 205.133322 320.849085 
L 209.291296 319.626863 
L 213.449269 324.067083 
L 217.607242 326.116123 
L 221.765215 325.749079 
L 225.923188 326.213721 
L 230.081162 327.793613 
L 234.239135 327.363197 
L 238.397108 327.08245 
L 242.555081 326.481959 
L 246.713054 328.571686 
L 250.871027 329.704519 
L 255.029001 330.29193 
L 259.186974 330.064574 
L 263.344947 330.179316 
L 267.50292 331.241936 
L 271.660893 332.001116 
L 275.818866 333.357265 
L 279.97684 333.663409 
L 284.134813 333.337055 
L 288.292786 333.381071 
L 292.450759 333.679495 
L 296.608732 332.935705 
L 300.766705 333.67492 
L 304.924679 334.146593 
L 309.082652 334.828269 
L 313.240625 335.117272 
L 317.398598 335.308327 
L 321.556571 335.57778 
L 325.714545 336.036819 
L 329.872518 335.928609 
L 334.030491 336.007451 
L 338.188464 336.670575 
L 342.346437 336.93914 
L 346.50441 336.891981 
L 350.662384 336.754169 
L 354.820357 336.416929 
L 358.97833 336.080406 
L 363.136303 335.865957 
L 367.294276 336.027857 
L 371.452249 336.406856 
L 375.610223 336.877155 
L 379.768196 336.811188 
L 383.926169 336.750496 
L 388.084142 336.682747 
L 392.242115 336.700828 
L 396.400088 337.100248 
L 400.558062 336.929295 
L 404.716035 337.340697 
L 408.874008 337.506541 
L 413.031981 337.552296 
L 417.189954 337.234554 
L 421.347928 337.516272 
L 425.505901 337.504366 
L 429.663874 337.702288 
L 433.821847 337.874746 
L 437.97982 337.793524 
L 442.137793 337.777476 
L 446.295767 337.712399 
L 450.45374 337.835365 
L 454.611713 337.796871 
L 458.769686 337.720717 
L 462.927659 337.951325 
L 467.085632 337.970975 
L 471.243606 337.853009 
L 475.401579 337.891551 
L 479.559552 337.887666 
L 483.717525 337.968548 
L 487.875498 338.039804 
L 492.033471 338.032843 
L 496.191445 337.621512 
L 500.349418 337.640122 
L 504.507391 337.575949 
L 508.665364 337.44175 
L 512.823337 337.322902 
L 516.981311 337.558772 
L 521.139284 337.667034 
L 525.297257 337.552578 
L 529.45523 337.624986 
L 533.613203 337.621547 
L 537.771176 337.72428 
L 541.92915 337.906345 
L 546.087123 338.234556 
L 550.245096 338.470196 
L 554.403069 338.405727 
L 558.561042 338.339417 
L 562.719015 338.222389 
L 566.876989 338.113127 
" clip-path="url(#p4854d50dff)" style="fill: none; stroke-dasharray: 5.55,2.4; stroke-dashoffset: 0; stroke: #d62728; stroke-width: 1.5"/>
   </g>
   <g id="line2d_29">
    <path d="M 246.713054 307.443328 
L 250.871027 322.964403 
L 255.029001 332.031467 
L 259.186974 335.681195 
L 263.344947 337.481662 
L 267.50292 338.820026 
L 271.660893 339.280955 
L 275.818866 339.562245 
L 279.97684 339.704379 
L 284.134813 339.781352 
L 288.292786 339.810411 
L 292.450759 339.825777 
L 296.608732 339.830815 
L 300.766705 339.834501 
L 304.924679 339.836453 
L 309.082652 339.83734 
L 313.240625 339.837745 
L 317.398598 339.837919 
L 321.556571 339.837991 
L 325.714545 339.838046 
L 329.872518 339.838086 
L 334.030491 339.838108 
L 338.188464 339.838116 
L 342.346437 339.838121 
L 346.50441 339.838123 
L 350.662384 339.838124 
L 354.820357 339.838124 
L 358.97833 339.838125 
L 363.136303 339.838125 
L 367.294276 339.838125 
L 371.452249 339.838125 
L 375.610223 339.838125 
L 379.768196 339.838125 
L 383.926169 339.838125 
L 388.084142 339.838125 
L 392.242115 339.838125 
L 396.400088 339.838125 
L 400.558062 339.838125 
L 404.716035 339.838125 
L 408.874008 339.838125 
L 413.031981 339.838125 
L 417.189954 339.838125 
L 421.347928 339.838125 
L 425.505901 339.838125 
L 429.663874 339.838125 
L 433.821847 339.838125 
L 437.97982 339.838125 
L 442.137793 339.838125 
L 446.295767 339.838125 
L 450.45374 339.838125 
L 454.611713 339.838125 
L 458.769686 339.838125 
L 462.927659 339.838125 
L 467.085632 339.838125 
L 471.243606 339.838125 
L 475.401579 339.838125 
L 479.559552 339.838125 
L 483.717525 339.838125 
L 487.875498 339.838125 
L 492.033471 339.838125 
L 496.191445 339.838125 
L 500.349418 339.838125 
L 504.507391 339.838125 
L 508.665364 339.838125 
L 512.823337 339.838125 
L 516.981311 339.838125 
L 521.139284 339.838125 
L 525.297257 339.838125 
L 529.45523 339.838125 
L 533.613203 339.838125 
L 537.771176 339.838125 
L 541.92915 339.838125 
L 546.087123 339.838125 
L 550.245096 339.838125 
L 554.403069 339.838125 
L 558.561042 339.838125 
L 562.719015 339.838125 
L 566.876989 339.838125 
" clip-path="url(#p4854d50dff)" style="fill: none; stroke: #9467bd; stroke-width: 1.5; stroke-linecap: square"/>
   </g>
   <g id="line2d_30">
    <path d="M 246.713054 307.443328 
L 250.871027 311.950148 
L 255.029001 309.165202 
L 259.186974 306.812773 
L 263.344947 307.434981 
L 267.50292 307.799931 
L 271.660893 305.786443 
L 275.818866 305.158969 
L 279.97684 305.098319 
L 284.134813 306.594385 
L 288.292786 304.152238 
L 292.450759 307.226945 
L 296.608732 304.788726 
L 300.766705 306.960816 
L 304.924679 310.707105 
L 309.082652 311.498436 
L 313.240625 317.332228 
L 317.398598 314.356566 
L 321.556571 316.170054 
L 325.714545 317.828052 
L 329.872518 318.359308 
L 334.030491 318.623774 
L 338.188464 318.959587 
L 342.346437 319.336958 
L 346.50441 318.498943 
L 350.662384 317.108934 
L 354.820357 316.024093 
L 358.97833 316.075109 
L 363.136303 317.174372 
L 367.294276 318.02429 
L 371.452249 316.611879 
L 375.610223 318.007561 
L 379.768196 320.649977 
L 383.926169 319.471398 
L 388.084142 320.752341 
L 392.242115 320.14271 
L 396.400088 319.145943 
L 400.558062 320.800422 
L 404.716035 324.503222 
L 408.874008 324.093836 
L 413.031981 324.022044 
L 417.189954 322.606956 
L 421.347928 324.812022 
L 425.505901 324.024734 
L 429.663874 321.791359 
L 433.821847 320.89744 
L 437.97982 319.656253 
L 442.137793 318.163694 
L 446.295767 318.460257 
L 450.45374 319.900208 
L 454.611713 319.331067 
L 458.769686 318.303228 
L 462.927659 317.819552 
L 467.085632 319.404958 
L 471.243606 319.710702 
L 475.401579 320.295184 
L 479.559552 321.331463 
L 483.717525 322.229003 
L 487.875498 322.955024 
L 492.033471 323.564643 
L 496.191445 322.815743 
L 500.349418 325.109858 
L 504.507391 325.654425 
L 508.665364 324.326383 
L 512.823337 324.556547 
L 516.981311 326.453 
L 521.139284 329.477645 
L 525.297257 328.401001 
L 529.45523 328.362019 
L 533.613203 328.586925 
L 537.771176 326.640913 
L 541.92915 326.761651 
L 546.087123 328.239062 
L 550.245096 328.526792 
L 554.403069 328.943899 
L 558.561042 327.846958 
L 562.719015 327.872587 
L 566.876989 328.155763 
" clip-path="url(#p4854d50dff)" style="fill: none; stroke-dasharray: 5.55,2.4; stroke-dashoffset: 0; stroke: #8c564b; stroke-width: 1.5"/>
   </g>
   <g id="patch_3">
    <path d="M 34.240625 354.958125 
L 34.240625 22.318125 
" style="fill: none; stroke: #000000; stroke-width: 0.8; stroke-linejoin: miter; stroke-linecap: square"/>
   </g>
   <g id="patch_4">
    <path d="M 592.240625 354.958125 
L 592.240625 22.318125 
" style="fill: none; stroke: #000000; stroke-width: 0.8; stroke-linejoin: miter; stroke-linecap: square"/>
   </g>
   <g id="patch_5">
    <path d="M 34.240625 354.958125 
L 592.240625 354.958125 
" style="fill: none; stroke: #000000; stroke-width: 0.8; stroke-linejoin: miter; stroke-linecap: square"/>
   </g>
   <g id="patch_6">
    <path d="M 34.240625 22.318125 
L 592.240625 22.318125 
" style="fill: none; stroke: #000000; stroke-width: 0.8; stroke-linejoin: miter; stroke-linecap: square"/>
   </g>
   <g id="text_15">
    <!-- Memory Survival Factor: VLA vs DeltaNet -->
    <g transform="translate(189.922813 16.318125) scale(0.12 -0.12)">
     <defs>
      <path id="DejaVuSans-4d" d="M 628 4666 
L 1569 4666 
L 2759 1491 
L 3956 4666 
L 4897 4666 
L 4897 0 
L 4281 0 
L 4281 4097 
L 3078 897 
L 2444 897 
L 1241 4097 
L 1241 0 
L 628 0 
L 628 4666 
z
" transform="scale(0.015625)"/>
      <path id="DejaVuSans-6f" d="M 1959 3097 
Q 1497 3097 1228 2736 
Q 959 2375 959 1747 
Q 959 1119 1226 758 
Q 1494 397 1959 397 
Q 2419 397 2687 759 
Q 2956 1122 2956 1747 
Q 2956 2369 2687 2733 
Q 2419 3097 1959 3097 
z
M 1959 3584 
Q 2709 3584 3137 3096 
Q 3566 2609 3566 1747 
Q 3566 888 3137 398 
Q 2709 -91 1959 -91 
Q 1206 -91 779 398 
Q 353 888 353 1747 
Q 353 2609 779 3096 
Q 1206 3584 1959 3584 
z
" transform="scale(0.015625)"/>
      <path id="DejaVuSans-79" d="M 2059 -325 
Q 1816 -950 1584 -1140 
Q 1353 -1331 966 -1331 
L 506 -1331 
L 506 -850 
L 844 -850 
Q 1081 -850 1212 -737 
Q 1344 -625 1503 -206 
L 1606 56 
L 191 3500 
L 800 3500 
L 1894 763 
L 2988 3500 
L 3597 3500 
L 2059 -325 
z
" transform="scale(0.015625)"/>
      <path id="DejaVuSans-46" d="M 628 4666 
L 3309 4666 
L 3309 4134 
L 1259 4134 
L 1259 2759 
L 3109 2759 
L 3109 2228 
L 1259 2228 
L 1259 0 
L 628 0 
L 628 4666 
z
" transform="scale(0.015625)"/>
      <path id="DejaVuSans-63" d="M 3122 3366 
L 3122 2828 
Q 2878 2963 2633 3030 
Q 2388 3097 2138 3097 
Q 1578 3097 1268 2742 
Q 959 2388 959 1747 
Q 959 1106 1268 751 
Q 1578 397 2138 397 
Q 2388 397 2633 464 
Q 2878 531 3122 666 
L 3122 134 
Q 2881 22 2623 -34 
Q 2366 -91 2075 -91 
Q 1284 -91 818 406 
Q 353 903 353 1747 
Q 353 2603 823 3093 
Q 1294 3584 2113 3584 
Q 2378 3584 2631 3529 
Q 2884 3475 3122 3366 
z
" transform="scale(0.015625)"/>
      <path id="DejaVuSans-3a" d="M 750 794 
L 1409 794 
L 1409 0 
L 750 0 
L 750 794 
z
M 750 3309 
L 1409 3309 
L 1409 2516 
L 750 2516 
L 750 3309 
z
" transform="scale(0.015625)"/>
      <path id="DejaVuSans-4c" d="M 628 4666 
L 1259 4666 
L 1259 531 
L 3531 531 
L 3531 0 
L 628 0 
L 628 4666 
z
" transform="scale(0.015625)"/>
      <path id="DejaVuSans-41" d="M 2188 4044 
L 1331 1722 
L 3047 1722 
L 2188 4044 
z
M 1831 4666 
L 2547 4666 
L 4325 0 
L 3669 0 
L 3244 1197 
L 1141 1197 
L 716 0 
L 50 0 
L 1831 4666 
z
" transform="scale(0.015625)"/>
      <path id="DejaVuSans-44" d="M 1259 4147 
L 1259 519 
L 2022 519 
Q 2988 519 3436 956 
Q 3884 1394 3884 2338 
Q 3884 3275 3436 3711 
Q 2988 4147 2022 4147 
L 1259 4147 
z
M 628 4666 
L 1925 4666 
Q 3281 4666 3915 4102 
Q 4550 3538 4550 2338 
Q 4550 1131 3912 565 
Q 3275 0 1925 0 
L 628 0 
L 628 4666 
z
" transform="scale(0.015625)"/>
      <path id="DejaVuSans-4e" d="M 628 4666 
L 1478 4666 
L 3547 763 
L 3547 4666 
L 4159 4666 
L 4159 0 
L 3309 0 
L 1241 3903 
L 1241 0 
L 628 0 
L 628 4666 
z
" transform="scale(0.015625)"/>
     </defs>
     <use xlink:href="#DejaVuSans-4d"/>
     <use xlink:href="#DejaVuSans-65" transform="translate(86.279297 0)"/>
     <use xlink:href="#DejaVuSans-6d" transform="translate(147.802734 0)"/>
     <use xlink:href="#DejaVuSans-6f" transform="translate(245.214844 0)"/>
     <use xlink:href="#DejaVuSans-72" transform="translate(306.396484 0)"/>
     <use xlink:href="#DejaVuSans-79" transform="translate(347.509766 0)"/>
     <use xlink:href="#DejaVuSans-20" transform="translate(406.689453 0)"/>
     <use xlink:href="#DejaVuSans-53" transform="translate(438.476562 0)"/>
     <use xlink:href="#DejaVuSans-75" transform="translate(501.953125 0)"/>
     <use xlink:href="#DejaVuSans-72" transform="translate(565.332031 0)"/>
     <use xlink:href="#DejaVuSans-76" transform="translate(606.445312 0)"/>
     <use xlink:href="#DejaVuSans-69" transform="translate(665.625 0)"/>
     <use xlink:href="#DejaVuSans-76" transform="translate(693.408203 0)"/>
     <use xlink:href="#DejaVuSans-61" transform="translate(752.587891 0)"/>
     <use xlink:href="#DejaVuSans-6c" transform="translate(813.867188 0)"/>
     <use xlink:href="#DejaVuSans-20" transform="translate(841.650391 0)"/>
     <use xlink:href="#DejaVuSans-46" transform="translate(873.4375 0)"/>
     <use xlink:href="#DejaVuSans-61" transform="translate(921.832031 0)"/>
     <use xlink:href="#DejaVuSans-63" transform="translate(983.111328 0)"/>
     <use xlink:href="#DejaVuSans-74" transform="translate(1038.091797 0)"/>
     <use xlink:href="#DejaVuSans-6f" transform="translate(1077.300781 0)"/>
     <use xlink:href="#DejaVuSans-72" transform="translate(1138.482422 0)"/>
     <use xlink:href="#DejaVuSans-3a" transform="translate(1177.845703 0)"/>
     <use xlink:href="#DejaVuSans-20" transform="translate(1211.537109 0)"/>
     <use xlink:href="#DejaVuSans-56" transform="translate(1243.324219 0)"/>
     <use xlink:href="#DejaVuSans-4c" transform="translate(1311.732422 0)"/>
     <use xlink:href="#DejaVuSans-41" transform="translate(1369.695312 0)"/>
     <use xlink:href="#DejaVuSans-20" transform="translate(1438.103516 0)"/>
     <use xlink:href="#DejaVuSans-76" transform="translate(1469.890625 0)"/>
     <use xlink:href="#DejaVuSans-73" transform="translate(1529.070312 0)"/>
     <use xlink:href="#DejaVuSans-20" transform="translate(1581.169922 0)"/>
     <use xlink:href="#DejaVuSans-44" transform="translate(1612.957031 0)"/>
     <use xlink:href="#DejaVuSans-65" transform="translate(1689.958984 0)"/>
     <use xlink:href="#DejaVuSans-6c" transform="translate(1751.482422 0)"/>
     <use xlink:href="#DejaVuSans-74" transform="translate(1779.265625 0)"/>
     <use xlink:href="#DejaVuSans-61" transform="translate(1818.474609 0)"/>
     <use xlink:href="#DejaVuSans-4e" transform="translate(1879.753906 0)"/>
     <use xlink:href="#DejaVuSans-65" transform="translate(1954.558594 0)"/>
     <use xlink:href="#DejaVuSans-74" transform="translate(2016.082031 0)"/>
    </g>
   </g>
   <g id="legend_1">
    <g id="patch_7">
     <path d="M 41.240625 118.386875 
L 177.226562 118.386875 
Q 179.226562 118.386875 179.226562 116.386875 
L 179.226562 29.318125 
Q 179.226562 27.318125 177.226562 27.318125 
L 41.240625 27.318125 
Q 39.240625 27.318125 39.240625 29.318125 
L 39.240625 116.386875 
Q 39.240625 118.386875 41.240625 118.386875 
z
" style="fill: #ffffff; opacity: 0.8; stroke: #cccccc; stroke-linejoin: miter"/>
    </g>
    <g id="line2d_31">
     <path d="M 43.240625 35.416562 
L 53.240625 35.416562 
L 63.240625 35.416562 
" style="fill: none; stroke: #1f77b4; stroke-width: 1.5; stroke-linecap: square"/>
    </g>
    <g id="text_16">
     <!-- VLA Memory 5 -->
     <g transform="translate(71.240625 38.916562) scale(0.1 -0.1)">
      <defs>
       <path id="DejaVuSans-35" d="M 691 4666 
L 3169 4666 
L 3169 4134 
L 1269 4134 
L 1269 2991 
Q 1406 3038 1543 3061 
Q 1681 3084 1819 3084 
Q 2600 3084 3056 2656 
Q 3513 2228 3513 1497 
Q 3513 744 3044 326 
Q 2575 -91 1722 -91 
Q 1428 -91 1123 -41 
Q 819 9 494 109 
L 494 744 
Q 775 591 1075 516 
Q 1375 441 1709 441 
Q 2250 441 2565 725 
Q 2881 1009 2881 1497 
Q 2881 1984 2565 2268 
Q 2250 2553 1709 2553 
Q 1456 2553 1204 2497 
Q 953 2441 691 2322 
L 691 4666 
z
" transform="scale(0.015625)"/>
      </defs>
      <use xlink:href="#DejaVuSans-56"/>
      <use xlink:href="#DejaVuSans-4c" transform="translate(68.408203 0)"/>
      <use xlink:href="#DejaVuSans-41" transform="translate(126.371094 0)"/>
      <use xlink:href="#DejaVuSans-20" transform="translate(194.779297 0)"/>
      <use xlink:href="#DejaVuSans-4d" transform="translate(226.566406 0)"/>
      <use xlink:href="#DejaVuSans-65" transform="translate(312.845703 0)"/>
      <use xlink:href="#DejaVuSans-6d" transform="translate(374.369141 0)"/>
      <use xlink:href="#DejaVuSans-6f" transform="translate(471.78125 0)"/>
      <use xlink:href="#DejaVuSans-72" transform="translate(532.962891 0)"/>
      <use xlink:href="#DejaVuSans-79" transform="translate(574.076172 0)"/>
      <use xlink:href="#DejaVuSans-20" transform="translate(633.255859 0)"/>
      <use xlink:href="#DejaVuSans-35" transform="translate(665.042969 0)"/>
     </g>
    </g>
    <g id="line2d_32">
     <path d="M 43.240625 50.094688 
L 53.240625 50.094688 
L 63.240625 50.094688 
" style="fill: none; stroke-dasharray: 5.55,2.4; stroke-dashoffset: 0; stroke: #ff7f0e; stroke-width: 1.5"/>
    </g>
    <g id="text_17">
     <!-- DeltaNet Memory 5 -->
     <g transform="translate(71.240625 53.594688) scale(0.1 -0.1)">
      <use xlink:href="#DejaVuSans-44"/>
      <use xlink:href="#DejaVuSans-65" transform="translate(77.001953 0)"/>
      <use xlink:href="#DejaVuSans-6c" transform="translate(138.525391 0)"/>
      <use xlink:href="#DejaVuSans-74" transform="translate(166.308594 0)"/>
      <use xlink:href="#DejaVuSans-61" transform="translate(205.517578 0)"/>
      <use xlink:href="#DejaVuSans-4e" transform="translate(266.796875 0)"/>
      <use xlink:href="#DejaVuSans-65" transform="translate(341.601562 0)"/>
      <use xlink:href="#DejaVuSans-74" transform="translate(403.125 0)"/>
      <use xlink:href="#DejaVuSans-20" transform="translate(442.333984 0)"/>
      <use xlink:href="#DejaVuSans-4d" transform="translate(474.121094 0)"/>
      <use xlink:href="#DejaVuSans-65" transform="translate(560.400391 0)"/>
      <use xlink:href="#DejaVuSans-6d" transform="translate(621.923828 0)"/>
      <use xlink:href="#DejaVuSans-6f" transform="translate(719.335938 0)"/>
      <use xlink:href="#DejaVuSans-72" transform="translate(780.517578 0)"/>
      <use xlink:href="#DejaVuSans-79" transform="translate(821.630859 0)"/>
      <use xlink:href="#DejaVuSans-20" transform="translate(880.810547 0)"/>
      <use xlink:href="#DejaVuSans-35" transform="translate(912.597656 0)"/>
     </g>
    </g>
    <g id="line2d_33">
     <path d="M 43.240625 64.772812 
L 53.240625 64.772812 
L 63.240625 64.772812 
" style="fill: none; stroke: #2ca02c; stroke-width: 1.5; stroke-linecap: square"/>
    </g>
    <g id="text_18">
     <!-- VLA Memory 20 -->
     <g transform="translate(71.240625 68.272812) scale(0.1 -0.1)">
      <use xlink:href="#DejaVuSans-56"/>
      <use xlink:href="#DejaVuSans-4c" transform="translate(68.408203 0)"/>
      <use xlink:href="#DejaVuSans-41" transform="translate(126.371094 0)"/>
      <use xlink:href="#DejaVuSans-20" transform="translate(194.779297 0)"/>
      <use xlink:href="#DejaVuSans-4d" transform="translate(226.566406 0)"/>
      <use xlink:href="#DejaVuSans-65" transform="translate(312.845703 0)"/>
      <use xlink:href="#DejaVuSans-6d" transform="translate(374.369141 0)"/>
      <use xlink:href="#DejaVuSans-6f" transform="translate(471.78125 0)"/>
      <use xlink:href="#DejaVuSans-72" transform="translate(532.962891 0)"/>
      <use xlink:href="#DejaVuSans-79" transform="translate(574.076172 0)"/>
      <use xlink:href="#DejaVuSans-20" transform="translate(633.255859 0)"/>
      <use xlink:href="#DejaVuSans-32" transform="translate(665.042969 0)"/>
      <use xlink:href="#DejaVuSans-30" transform="translate(728.666016 0)"/>
     </g>
    </g>
    <g id="line2d_34">
     <path d="M 43.240625 79.450938 
L 53.240625 79.450938 
L 63.240625 79.450938 
" style="fill: none; stroke-dasharray: 5.55,2.4; stroke-dashoffset: 0; stroke: #d62728; stroke-width: 1.5"/>
    </g>
    <g id="text_19">
     <!-- DeltaNet Memory 20 -->
     <g transform="translate(71.240625 82.950938) scale(0.1 -0.1)">
      <use xlink:href="#DejaVuSans-44"/>
      <use xlink:href="#DejaVuSans-65" transform="translate(77.001953 0)"/>
      <use xlink:href="#DejaVuSans-6c" transform="translate(138.525391 0)"/>
      <use xlink:href="#DejaVuSans-74" transform="translate(166.308594 0)"/>
      <use xlink:href="#DejaVuSans-61" transform="translate(205.517578 0)"/>
      <use xlink:href="#DejaVuSans-4e" transform="translate(266.796875 0)"/>
      <use xlink:href="#DejaVuSans-65" transform="translate(341.601562 0)"/>
      <use xlink:href="#DejaVuSans-74" transform="translate(403.125 0)"/>
      <use xlink:href="#DejaVuSans-20" transform="translate(442.333984 0)"/>
      <use xlink:href="#DejaVuSans-4d" transform="translate(474.121094 0)"/>
      <use xlink:href="#DejaVuSans-65" transform="translate(560.400391 0)"/>
      <use xlink:href="#DejaVuSans-6d" transform="translate(621.923828 0)"/>
      <use xlink:href="#DejaVuSans-6f" transform="translate(719.335938 0)"/>
      <use xlink:href="#DejaVuSans-72" transform="translate(780.517578 0)"/>
      <use xlink:href="#DejaVuSans-79" transform="translate(821.630859 0)"/>
      <use xlink:href="#DejaVuSans-20" transform="translate(880.810547 0)"/>
      <use xlink:href="#DejaVuSans-32" transform="translate(912.597656 0)"/>
      <use xlink:href="#DejaVuSans-30" transform="translate(976.220703 0)"/>
     </g>
    </g>
    <g id="line2d_35">
     <path d="M 43.240625 94.129063 
L 53.240625 94.129063 
L 63.240625 94.129063 
" style="fill: none; stroke: #9467bd; stroke-width: 1.5; stroke-linecap: square"/>
    </g>
    <g id="text_20">
     <!-- VLA Memory 50 -->
     <g transform="translate(71.240625 97.629063) scale(0.1 -0.1)">
      <use xlink:href="#DejaVuSans-56"/>
      <use xlink:href="#DejaVuSans-4c" transform="translate(68.408203 0)"/>
      <use xlink:href="#DejaVuSans-41" transform="translate(126.371094 0)"/>
      <use xlink:href="#DejaVuSans-20" transform="translate(194.779297 0)"/>
      <use xlink:href="#DejaVuSans-4d" transform="translate(226.566406 0)"/>
      <use xlink:href="#DejaVuSans-65" transform="translate(312.845703 0)"/>
      <use xlink:href="#DejaVuSans-6d" transform="translate(374.369141 0)"/>
      <use xlink:href="#DejaVuSans-6f" transform="translate(471.78125 0)"/>
      <use xlink:href="#DejaVuSans-72" transform="translate(532.962891 0)"/>
      <use xlink:href="#DejaVuSans-79" transform="translate(574.076172 0)"/>
      <use xlink:href="#DejaVuSans-20" transform="translate(633.255859 0)"/>
      <use xlink:href="#DejaVuSans-35" transform="translate(665.042969 0)"/>
      <use xlink:href="#DejaVuSans-30" transform="translate(728.666016 0)"/>
     </g>
    </g>
    <g id="line2d_36">
     <path d="M 43.240625 108.807187 
L 53.240625 108.807187 
L 63.240625 108.807187 
" style="fill: none; stroke-dasharray: 5.55,2.4; stroke-dashoffset: 0; stroke: #8c564b; stroke-width: 1.5"/>
    </g>
    <g id="text_21">
     <!-- DeltaNet Memory 50 -->
     <g transform="translate(71.240625 112.307187) scale(0.1 -0.1)">
      <use xlink:href="#DejaVuSans-44"/>
      <use xlink:href="#DejaVuSans-65" transform="translate(77.001953 0)"/>
      <use xlink:href="#DejaVuSans-6c" transform="translate(138.525391 0)"/>
      <use xlink:href="#DejaVuSans-74" transform="translate(166.308594 0)"/>
      <use xlink:href="#DejaVuSans-61" transform="translate(205.517578 0)"/>
      <use xlink:href="#DejaVuSans-4e" transform="translate(266.796875 0)"/>
      <use xlink:href="#DejaVuSans-65" transform="translate(341.601562 0)"/>
      <use xlink:href="#DejaVuSans-74" transform="translate(403.125 0)"/>
      <use xlink:href="#DejaVuSans-20" transform="translate(442.333984 0)"/>
      <use xlink:href="#DejaVuSans-4d" transform="translate(474.121094 0)"/>
      <use xlink:href="#DejaVuSans-65" transform="translate(560.400391 0)"/>
      <use xlink:href="#DejaVuSans-6d" transform="translate(621.923828 0)"/>
      <use xlink:href="#DejaVuSans-6f" transform="translate(719.335938 0)"/>
      <use xlink:href="#DejaVuSans-72" transform="translate(780.517578 0)"/>
      <use xlink:href="#DejaVuSans-79" transform="translate(821.630859 0)"/>
      <use xlink:href="#DejaVuSans-20" transform="translate(880.810547 0)"/>
      <use xlink:href="#DejaVuSans-35" transform="translate(912.597656 0)"/>
      <use xlink:href="#DejaVuSans-30" transform="translate(976.220703 0)"/>
     </g>
    </g>
   </g>
  </g>
 </g>
 <defs>
  <clipPath id="p4854d50dff">
   <rect x="34.240625" y="22.318125" width="558" height="332.64"/>
  </clipPath>
 </defs>
</svg>
