<?xml version="1.0" encoding="utf-8" standalone="no"?>
<!DOCTYPE svg PUBLIC "-//W3C//DTD SVG 1.1//EN"
  "http://www.w3.org/Graphics/SVG/1.1/DTD/svg11.dtd">
<svg xmlns:xlink="http://www.w3.org/1999/xlink" width="608.98125pt" height="392.514375pt" viewBox="0 0 608.98125 392.514375" xmlns="http://www.w3.org/2000/svg" version="1.1">
 <metadata>
  <rdf:RDF xmlns:dc="http://purl.org/dc/elements/1.1/" xmlns:cc="http://creativecommons.org/ns#" xmlns:rdf="http://www.w3.org/1999/02/22-rdf-syntax-ns#">
   <cc:Work>
    <dc:type rdf:resource="http://purl.org/dc/dcmitype/StillImage"/>
    <dc:date>2026-03-29T12:35:24.524756</dc:date>
    <dc:format>image/svg+xml</dc:format>
    <dc:creator>
     <cc:Agent>
      <dc:title>Matplotlib v3.10.0, https://matplotlib.org/</dc:title>
     </cc:Agent>
    </dc:creator>
   </cc:Work>
  </rdf:RDF>
 </metadata>
 <defs>
  <style type="text/css">*{stroke-linejoin: round; stroke-linecap: butt}</style>
 </defs>
 <g id="figure_1">
  <g id="patch_1">
   <path d="M 0 392.514375 
L 608.98125 392.514375 
L 608.98125 0 
L 0 0 
z
" style="fill: #ffffff"/>
  </g>
  <g id="axes_1">
   <g id="patch_2">
    <path d="M 43.78125 354.958125 
L 601.78125 354.958125 
L 601.78125 22.318125 
L 43.78125 22.318125 
z
" style="fill: #ffffff"/>
   </g>
   <g id="matplotlib.axis_1">
    <g id="xtick_1">
     <g id="line2d_1">
      <path d="M 48.35502 354.958125 
L 48.35502 22.318125 
" clip-path="url(#pb115ae58bf)" style="fill: none; stroke: #b0b0b0; stroke-opacity: 0.3; stroke-width: 0.8; stroke-linecap: square"/>
     </g>
     <g id="line2d_2">
      <defs>
       <path id="m6503189804" d="M 0 0 
L 0 3.5 
" style="stroke: #000000; stroke-width: 0.8"/>
      </defs>
      <g>
       <use xlink:href="#m6503189804" x="48.35502" y="354.958125" style="stroke: #000000; stroke-width: 0.8"/>
      </g>
     </g>
     <g id="text_1">
      <!-- 0 -->
      <g transform="translate(45.17377 369.556562) scale(0.1 -0.1)">
       <defs>
        <path id="DejaVuSans-30" d="M 2034 4250 
Q 1547 4250 1301 3770 
Q 1056 3291 1056 2328 
Q 1056 1369 1301 889 
Q 1547 409 2034 409 
Q 2525 409 2770 889 
Q 3016 1369 3016 2328 
Q 3016 3291 2770 3770 
Q 2525 4250 2034 4250 
z
M 2034 4750 
Q 2819 4750 3233 4129 
Q 3647 3509 3647 2328 
Q 3647 1150 3233 529 
Q 2819 -91 2034 -91 
Q 1250 -91 836 529 
Q 422 1150 422 2328 
Q 422 3509 836 4129 
Q 1250 4750 2034 4750 
z
" transform="scale(0.015625)"/>
       </defs>
       <use xlink:href="#DejaVuSans-30"/>
      </g>
     </g>
    </g>
    <g id="xtick_2">
     <g id="line2d_3">
      <path d="M 131.514484 354.958125 
L 131.514484 22.318125 
" clip-path="url(#pb115ae58bf)" style="fill: none; stroke: #b0b0b0; stroke-opacity: 0.3; stroke-width: 0.8; stroke-linecap: square"/>
     </g>
     <g id="line2d_4">
      <g>
       <use xlink:href="#m6503189804" x="131.514484" y="354.958125" style="stroke: #000000; stroke-width: 0.8"/>
      </g>
     </g>
     <g id="text_2">
      <!-- 20 -->
      <g transform="translate(125.151984 369.556562) scale(0.1 -0.1)">
       <defs>
        <path id="DejaVuSans-32" d="M 1228 531 
L 3431 531 
L 3431 0 
L 469 0 
L 469 531 
Q 828 903 1448 1529 
Q 2069 2156 2228 2338 
Q 2531 2678 2651 2914 
Q 2772 3150 2772 3378 
Q 2772 3750 2511 3984 
Q 2250 4219 1831 4219 
Q 1534 4219 1204 4116 
Q 875 4013 500 3803 
L 500 4441 
Q 881 4594 1212 4672 
Q 1544 4750 1819 4750 
Q 2544 4750 2975 4387 
Q 3406 4025 3406 3419 
Q 3406 3131 3298 2873 
Q 3191 2616 2906 2266 
Q 2828 2175 2409 1742 
Q 1991 1309 1228 531 
z
" transform="scale(0.015625)"/>
       </defs>
       <use xlink:href="#DejaVuSans-32"/>
       <use xlink:href="#DejaVuSans-30" transform="translate(63.623047 0)"/>
      </g>
     </g>
    </g>
    <g id="xtick_3">
     <g id="line2d_5">
      <path d="M 214.673947 354.958125 
L 214.673947 22.318125 
" clip-path="url(#pb115ae58bf)" style="fill: none; stroke: #b0b0b0; stroke-opacity: 0.3; stroke-width: 0.8; stroke-linecap: square"/>
     </g>
     <g id="line2d_6">
      <g>
       <use xlink:href="#m6503189804" x="214.673947" y="354.958125" style="stroke: #000000; stroke-width: 0.8"/>
      </g>
     </g>
     <g id="text_3">
      <!-- 40 -->
      <g transform="translate(208.311447 369.556562) scale(0.1 -0.1)">
       <defs>
        <path id="DejaVuSans-34" d="M 2419 4116 
L 825 1625 
L 2419 1625 
L 2419 4116 
z
M 2253 4666 
L 3047 4666 
L 3047 1625 
L 3713 1625 
L 3713 1100 
L 3047 1100 
L 3047 0 
L 2419 0 
L 2419 1100 
L 313 1100 
L 313 1709 
L 2253 4666 
z
" transform="scale(0.015625)"/>
       </defs>
       <use xlink:href="#DejaVuSans-34"/>
       <use xlink:href="#DejaVuSans-30" transform="translate(63.623047 0)"/>
      </g>
     </g>
    </g>
    <g id="xtick_4">
     <g id="line2d_7">
      <path d="M 297.833411 354.958125 
L 297.833411 22.318125 
" clip-path="url(#pb115ae58bf)" style="fill: none; stroke: #b0b0b0; stroke-opacity: 0.3; stroke-width: 0.8; stroke-linecap: square"/>
     </g>
     <g id="line2d_8">
      <g>
       <use xlink:href="#m6503189804" x="297.833411" y="354.958125" style="stroke: #000000; stroke-width: 0.8"/>
      </g>
     </g>
     <g id="text_4">
      <!-- 60 -->
      <g transform="translate(291.470911 369.556562) scale(0.1 -0.1)">
       <defs>
        <path id="DejaVuSans-36" d="M 2113 2584 
Q 1688 2584 1439 2293 
Q 1191 2003 1191 1497 
Q 1191 994 1439 701 
Q 1688 409 2113 409 
Q 2538 409 2786 701 
Q 3034 994 3034 1497 
Q 3034 2003 2786 2293 
Q 2538 2584 2113 2584 
z
M 3366 4563 
L 3366 3988 
Q 3128 4100 2886 4159 
Q 2644 4219 2406 4219 
Q 1781 4219 1451 3797 
Q 1122 3375 1075 2522 
Q 1259 2794 1537 2939 
Q 1816 3084 2150 3084 
Q 2853 3084 3261 2657 
Q 3669 2231 3669 1497 
Q 3669 778 3244 343 
Q 2819 -91 2113 -91 
Q 1303 -91 875 529 
Q 447 1150 447 2328 
Q 447 3434 972 4092 
Q 1497 4750 2381 4750 
Q 2619 4750 2861 4703 
Q 3103 4656 3366 4563 
z
" transform="scale(0.015625)"/>
       </defs>
       <use xlink:href="#DejaVuSans-36"/>
       <use xlink:href="#DejaVuSans-30" transform="translate(63.623047 0)"/>
      </g>
     </g>
    </g>
    <g id="xtick_5">
     <g id="line2d_9">
      <path d="M 380.992874 354.958125 
L 380.992874 22.318125 
" clip-path="url(#pb115ae58bf)" style="fill: none; stroke: #b0b0b0; stroke-opacity: 0.3; stroke-width: 0.8; stroke-linecap: square"/>
     </g>
     <g id="line2d_10">
      <g>
       <use xlink:href="#m6503189804" x="380.992874" y="354.958125" style="stroke: #000000; stroke-width: 0.8"/>
      </g>
     </g>
     <g id="text_5">
      <!-- 80 -->
      <g transform="translate(374.630374 369.556562) scale(0.1 -0.1)">
       <defs>
        <path id="DejaVuSans-38" d="M 2034 2216 
Q 1584 2216 1326 1975 
Q 1069 1734 1069 1313 
Q 1069 891 1326 650 
Q 1584 409 2034 409 
Q 2484 409 2743 651 
Q 3003 894 3003 1313 
Q 3003 1734 2745 1975 
Q 2488 2216 2034 2216 
z
M 1403 2484 
Q 997 2584 770 2862 
Q 544 3141 544 3541 
Q 544 4100 942 4425 
Q 1341 4750 2034 4750 
Q 2731 4750 3128 4425 
Q 3525 4100 3525 3541 
Q 3525 3141 3298 2862 
Q 3072 2584 2669 2484 
Q 3125 2378 3379 2068 
Q 3634 1759 3634 1313 
Q 3634 634 3220 271 
Q 2806 -91 2034 -91 
Q 1263 -91 848 271 
Q 434 634 434 1313 
Q 434 1759 690 2068 
Q 947 2378 1403 2484 
z
M 1172 3481 
Q 1172 3119 1398 2916 
Q 1625 2713 2034 2713 
Q 2441 2713 2670 2916 
Q 2900 3119 2900 3481 
Q 2900 3844 2670 4047 
Q 2441 4250 2034 4250 
Q 1625 4250 1398 4047 
Q 1172 3844 1172 3481 
z
" transform="scale(0.015625)"/>
       </defs>
       <use xlink:href="#DejaVuSans-38"/>
       <use xlink:href="#DejaVuSans-30" transform="translate(63.623047 0)"/>
      </g>
     </g>
    </g>
    <g id="xtick_6">
     <g id="line2d_11">
      <path d="M 464.152338 354.958125 
L 464.152338 22.318125 
" clip-path="url(#pb115ae58bf)" style="fill: none; stroke: #b0b0b0; stroke-opacity: 0.3; stroke-width: 0.8; stroke-linecap: square"/>
     </g>
     <g id="line2d_12">
      <g>
       <use xlink:href="#m6503189804" x="464.152338" y="354.958125" style="stroke: #000000; stroke-width: 0.8"/>
      </g>
     </g>
     <g id="text_6">
      <!-- 100 -->
      <g transform="translate(454.608588 369.556562) scale(0.1 -0.1)">
       <defs>
        <path id="DejaVuSans-31" d="M 794 531 
L 1825 531 
L 1825 4091 
L 703 3866 
L 703 4441 
L 1819 4666 
L 2450 4666 
L 2450 531 
L 3481 531 
L 3481 0 
L 794 0 
L 794 531 
z
" transform="scale(0.015625)"/>
       </defs>
       <use xlink:href="#DejaVuSans-31"/>
       <use xlink:href="#DejaVuSans-30" transform="translate(63.623047 0)"/>
       <use xlink:href="#DejaVuSans-30" transform="translate(127.246094 0)"/>
      </g>
     </g>
    </g>
    <g id="xtick_7">
     <g id="line2d_13">
      <path d="M 547.311801 354.958125 
L 547.311801 22.318125 
" clip-path="url(#pb115ae58bf)" style="fill: none; stroke: #b0b0b0; stroke-opacity: 0.3; stroke-width: 0.8; stroke-linecap: square"/>
     </g>
     <g id="line2d_14">
      <g>
       <use xlink:href="#m6503189804" x="547.311801" y="354.958125" style="stroke: #000000; stroke-width: 0.8"/>
      </g>
     </g>
     <g id="text_7">
      <!-- 120 -->
      <g transform="translate(537.768051 369.556562) scale(0.1 -0.1)">
       <use xlink:href="#DejaVuSans-31"/>
       <use xlink:href="#DejaVuSans-32" transform="translate(63.623047 0)"/>
       <use xlink:href="#DejaVuSans-30" transform="translate(127.246094 0)"/>
      </g>
     </g>
    </g>
    <g id="text_8">
     <!-- Timestep t -->
     <g transform="translate(296.182813 383.234687) scale(0.1 -0.1)">
      <defs>
       <path id="DejaVuSans-54" d="M -19 4666 
L 3928 4666 
L 3928 4134 
L 2272 4134 
L 2272 0 
L 1638 0 
L 1638 4134 
L -19 4134 
L -19 4666 
z
" transform="scale(0.015625)"/>
       <path id="DejaVuSans-69" d="M 603 3500 
L 1178 3500 
L 1178 0 
L 603 0 
L 603 3500 
z
M 603 4863 
L 1178 4863 
L 1178 4134 
L 603 4134 
L 603 4863 
z
" transform="scale(0.015625)"/>
       <path id="DejaVuSans-6d" d="M 3328 2828 
Q 3544 3216 3844 3400 
Q 4144 3584 4550 3584 
Q 5097 3584 5394 3201 
Q 5691 2819 5691 2113 
L 5691 0 
L 5113 0 
L 5113 2094 
Q 5113 2597 4934 2840 
Q 4756 3084 4391 3084 
Q 3944 3084 3684 2787 
Q 3425 2491 3425 1978 
L 3425 0 
L 2847 0 
L 2847 2094 
Q 2847 2600 2669 2842 
Q 2491 3084 2119 3084 
Q 1678 3084 1418 2786 
Q 1159 2488 1159 1978 
L 1159 0 
L 581 0 
L 581 3500 
L 1159 3500 
L 1159 2956 
Q 1356 3278 1631 3431 
Q 1906 3584 2284 3584 
Q 2666 3584 2933 3390 
Q 3200 3197 3328 2828 
z
" transform="scale(0.015625)"/>
       <path id="DejaVuSans-65" d="M 3597 1894 
L 3597 1613 
L 953 1613 
Q 991 1019 1311 708 
Q 1631 397 2203 397 
Q 2534 397 2845 478 
Q 3156 559 3463 722 
L 3463 178 
Q 3153 47 2828 -22 
Q 2503 -91 2169 -91 
Q 1331 -91 842 396 
Q 353 884 353 1716 
Q 353 2575 817 3079 
Q 1281 3584 2069 3584 
Q 2775 3584 3186 3129 
Q 3597 2675 3597 1894 
z
M 3022 2063 
Q 3016 2534 2758 2815 
Q 2500 3097 2075 3097 
Q 1594 3097 1305 2825 
Q 1016 2553 972 2059 
L 3022 2063 
z
" transform="scale(0.015625)"/>
       <path id="DejaVuSans-73" d="M 2834 3397 
L 2834 2853 
Q 2591 2978 2328 3040 
Q 2066 3103 1784 3103 
Q 1356 3103 1142 2972 
Q 928 2841 928 2578 
Q 928 2378 1081 2264 
Q 1234 2150 1697 2047 
L 1894 2003 
Q 2506 1872 2764 1633 
Q 3022 1394 3022 966 
Q 3022 478 2636 193 
Q 2250 -91 1575 -91 
Q 1294 -91 989 -36 
Q 684 19 347 128 
L 347 722 
Q 666 556 975 473 
Q 1284 391 1588 391 
Q 1994 391 2212 530 
Q 2431 669 2431 922 
Q 2431 1156 2273 1281 
Q 2116 1406 1581 1522 
L 1381 1569 
Q 847 1681 609 1914 
Q 372 2147 372 2553 
Q 372 3047 722 3315 
Q 1072 3584 1716 3584 
Q 2034 3584 2315 3537 
Q 2597 3491 2834 3397 
z
" transform="scale(0.015625)"/>
       <path id="DejaVuSans-74" d="M 1172 4494 
L 1172 3500 
L 2356 3500 
L 2356 3053 
L 1172 3053 
L 1172 1153 
Q 1172 725 1289 603 
Q 1406 481 1766 481 
L 2356 481 
L 2356 0 
L 1766 0 
Q 1100 0 847 248 
Q 594 497 594 1153 
L 594 3053 
L 172 3053 
L 172 3500 
L 594 3500 
L 594 4494 
L 1172 4494 
z
" transform="scale(0.015625)"/>
       <path id="DejaVuSans-70" d="M 1159 525 
L 1159 -1331 
L 581 -1331 
L 581 3500 
L 1159 3500 
L 1159 2969 
Q 1341 3281 1617 3432 
Q 1894 3584 2278 3584 
Q 2916 3584 3314 3078 
Q 3713 2572 3713 1747 
Q 3713 922 3314 415 
Q 2916 -91 2278 -91 
Q 1894 -91 1617 61 
Q 1341 213 1159 525 
z
M 3116 1747 
Q 3116 2381 2855 2742 
Q 2594 3103 2138 3103 
Q 1681 3103 1420 2742 
Q 1159 2381 1159 1747 
Q 1159 1113 1420 752 
Q 1681 391 2138 391 
Q 2594 391 2855 752 
Q 3116 1113 3116 1747 
z
" transform="scale(0.015625)"/>
       <path id="DejaVuSans-20" transform="scale(0.015625)"/>
      </defs>
      <use xlink:href="#DejaVuSans-54"/>
      <use xlink:href="#DejaVuSans-69" transform="translate(57.958984 0)"/>
      <use xlink:href="#DejaVuSans-6d" transform="translate(85.742188 0)"/>
      <use xlink:href="#DejaVuSans-65" transform="translate(183.154297 0)"/>
      <use xlink:href="#DejaVuSans-73" transform="translate(244.677734 0)"/>
      <use xlink:href="#DejaVuSans-74" transform="translate(296.777344 0)"/>
      <use xlink:href="#DejaVuSans-65" transform="translate(335.986328 0)"/>
      <use xlink:href="#DejaVuSans-70" transform="translate(397.509766 0)"/>
      <use xlink:href="#DejaVuSans-20" transform="translate(460.986328 0)"/>
      <use xlink:href="#DejaVuSans-74" transform="translate(492.773438 0)"/>
     </g>
    </g>
   </g>
   <g id="matplotlib.axis_2">
    <g id="ytick_1">
     <g id="line2d_15">
      <path d="M 43.78125 339.838125 
L 601.78125 339.838125 
" clip-path="url(#pb115ae58bf)" style="fill: none; stroke: #b0b0b0; stroke-opacity: 0.3; stroke-width: 0.8; stroke-linecap: square"/>
     </g>
     <g id="line2d_16">
      <defs>
       <path id="m5248964877" d="M 0 0 
L -3.5 0 
" style="stroke: #000000; stroke-width: 0.8"/>
      </defs>
      <g>
       <use xlink:href="#m5248964877" x="43.78125" y="339.838125" style="stroke: #000000; stroke-width: 0.8"/>
      </g>
     </g>
     <g id="text_9">
      <!-- 0.0 -->
      <g transform="translate(20.878125 343.637344) scale(0.1 -0.1)">
       <defs>
        <path id="DejaVuSans-2e" d="M 684 794 
L 1344 794 
L 1344 0 
L 684 0 
L 684 794 
z
" transform="scale(0.015625)"/>
       </defs>
       <use xlink:href="#DejaVuSans-30"/>
       <use xlink:href="#DejaVuSans-2e" transform="translate(63.623047 0)"/>
       <use xlink:href="#DejaVuSans-30" transform="translate(95.410156 0)"/>
      </g>
     </g>
    </g>
    <g id="ytick_2">
     <g id="line2d_17">
      <path d="M 43.78125 284.485256 
L 601.78125 284.485256 
" clip-path="url(#pb115ae58bf)" style="fill: none; stroke: #b0b0b0; stroke-opacity: 0.3; stroke-width: 0.8; stroke-linecap: square"/>
     </g>
     <g id="line2d_18">
      <g>
       <use xlink:href="#m5248964877" x="43.78125" y="284.485256" style="stroke: #000000; stroke-width: 0.8"/>
      </g>
     </g>
     <g id="text_10">
      <!-- 0.2 -->
      <g transform="translate(20.878125 288.284475) scale(0.1 -0.1)">
       <use xlink:href="#DejaVuSans-30"/>
       <use xlink:href="#DejaVuSans-2e" transform="translate(63.623047 0)"/>
       <use xlink:href="#DejaVuSans-32" transform="translate(95.410156 0)"/>
      </g>
     </g>
    </g>
    <g id="ytick_3">
     <g id="line2d_19">
      <path d="M 43.78125 229.132387 
L 601.78125 229.132387 
" clip-path="url(#pb115ae58bf)" style="fill: none; stroke: #b0b0b0; stroke-opacity: 0.3; stroke-width: 0.8; stroke-linecap: square"/>
     </g>
     <g id="line2d_20">
      <g>
       <use xlink:href="#m5248964877" x="43.78125" y="229.132387" style="stroke: #000000; stroke-width: 0.8"/>
      </g>
     </g>
     <g id="text_11">
      <!-- 0.4 -->
      <g transform="translate(20.878125 232.931606) scale(0.1 -0.1)">
       <use xlink:href="#DejaVuSans-30"/>
       <use xlink:href="#DejaVuSans-2e" transform="translate(63.623047 0)"/>
       <use xlink:href="#DejaVuSans-34" transform="translate(95.410156 0)"/>
      </g>
     </g>
    </g>
    <g id="ytick_4">
     <g id="line2d_21">
      <path d="M 43.78125 173.779518 
L 601.78125 173.779518 
" clip-path="url(#pb115ae58bf)" style="fill: none; stroke: #b0b0b0; stroke-opacity: 0.3; stroke-width: 0.8; stroke-linecap: square"/>
     </g>
     <g id="line2d_22">
      <g>
       <use xlink:href="#m5248964877" x="43.78125" y="173.779518" style="stroke: #000000; stroke-width: 0.8"/>
      </g>
     </g>
     <g id="text_12">
      <!-- 0.6 -->
      <g transform="translate(20.878125 177.578737) scale(0.1 -0.1)">
       <use xlink:href="#DejaVuSans-30"/>
       <use xlink:href="#DejaVuSans-2e" transform="translate(63.623047 0)"/>
       <use xlink:href="#DejaVuSans-36" transform="translate(95.410156 0)"/>
      </g>
     </g>
    </g>
    <g id="ytick_5">
     <g id="line2d_23">
      <path d="M 43.78125 118.42665 
L 601.78125 118.42665 
" clip-path="url(#pb115ae58bf)" style="fill: none; stroke: #b0b0b0; stroke-opacity: 0.3; stroke-width: 0.8; stroke-linecap: square"/>
     </g>
     <g id="line2d_24">
      <g>
       <use xlink:href="#m5248964877" x="43.78125" y="118.42665" style="stroke: #000000; stroke-width: 0.8"/>
      </g>
     </g>
     <g id="text_13">
      <!-- 0.8 -->
      <g transform="translate(20.878125 122.225868) scale(0.1 -0.1)">
       <use xlink:href="#DejaVuSans-30"/>
       <use xlink:href="#DejaVuSans-2e" transform="translate(63.623047 0)"/>
       <use xlink:href="#DejaVuSans-38" transform="translate(95.410156 0)"/>
      </g>
     </g>
    </g>
    <g id="ytick_6">
     <g id="line2d_25">
      <path d="M 43.78125 63.073781 
L 601.78125 63.073781 
" clip-path="url(#pb115ae58bf)" style="fill: none; stroke: #b0b0b0; stroke-opacity: 0.3; stroke-width: 0.8; stroke-linecap: square"/>
     </g>
     <g id="line2d_26">
      <g>
       <use xlink:href="#m5248964877" x="43.78125" y="63.073781" style="stroke: #000000; stroke-width: 0.8"/>
      </g>
     </g>
     <g id="text_14">
      <!-- 1.0 -->
      <g transform="translate(20.878125 66.872999) scale(0.1 -0.1)">
       <use xlink:href="#DejaVuSans-31"/>
       <use xlink:href="#DejaVuSans-2e" transform="translate(63.623047 0)"/>
       <use xlink:href="#DejaVuSans-30" transform="translate(95.410156 0)"/>
      </g>
     </g>
    </g>
    <g id="text_15">
     <!-- Survival Value -->
     <g transform="translate(14.798438 224.117812) rotate(-90) scale(0.1 -0.1)">
      <defs>
       <path id="DejaVuSans-53" d="M 3425 4513 
L 3425 3897 
Q 3066 4069 2747 4153 
Q 2428 4238 2131 4238 
Q 1616 4238 1336 4038 
Q 1056 3838 1056 3469 
Q 1056 3159 1242 3001 
Q 1428 2844 1947 2747 
L 2328 2669 
Q 3034 2534 3370 2195 
Q 3706 1856 3706 1288 
Q 3706 609 3251 259 
Q 2797 -91 1919 -91 
Q 1588 -91 1214 -16 
Q 841 59 441 206 
L 441 856 
Q 825 641 1194 531 
Q 1563 422 1919 422 
Q 2459 422 2753 634 
Q 3047 847 3047 1241 
Q 3047 1584 2836 1778 
Q 2625 1972 2144 2069 
L 1759 2144 
Q 1053 2284 737 2584 
Q 422 2884 422 3419 
Q 422 4038 858 4394 
Q 1294 4750 2059 4750 
Q 2388 4750 2728 4690 
Q 3069 4631 3425 4513 
z
" transform="scale(0.015625)"/>
       <path id="DejaVuSans-75" d="M 544 1381 
L 544 3500 
L 1119 3500 
L 1119 1403 
Q 1119 906 1312 657 
Q 1506 409 1894 409 
Q 2359 409 2629 706 
Q 2900 1003 2900 1516 
L 2900 3500 
L 3475 3500 
L 3475 0 
L 2900 0 
L 2900 538 
Q 2691 219 2414 64 
Q 2138 -91 1772 -91 
Q 1169 -91 856 284 
Q 544 659 544 1381 
z
M 1991 3584 
L 1991 3584 
z
" transform="scale(0.015625)"/>
       <path id="DejaVuSans-72" d="M 2631 2963 
Q 2534 3019 2420 3045 
Q 2306 3072 2169 3072 
Q 1681 3072 1420 2755 
Q 1159 2438 1159 1844 
L 1159 0 
L 581 0 
L 581 3500 
L 1159 3500 
L 1159 2956 
Q 1341 3275 1631 3429 
Q 1922 3584 2338 3584 
Q 2397 3584 2469 3576 
Q 2541 3569 2628 3553 
L 2631 2963 
z
" transform="scale(0.015625)"/>
       <path id="DejaVuSans-76" d="M 191 3500 
L 800 3500 
L 1894 563 
L 2988 3500 
L 3597 3500 
L 2284 0 
L 1503 0 
L 191 3500 
z
" transform="scale(0.015625)"/>
       <path id="DejaVuSans-61" d="M 2194 1759 
Q 1497 1759 1228 1600 
Q 959 1441 959 1056 
Q 959 750 1161 570 
Q 1363 391 1709 391 
Q 2188 391 2477 730 
Q 2766 1069 2766 1631 
L 2766 1759 
L 2194 1759 
z
M 3341 1997 
L 3341 0 
L 2766 0 
L 2766 531 
Q 2569 213 2275 61 
Q 1981 -91 1556 -91 
Q 1019 -91 701 211 
Q 384 513 384 1019 
Q 384 1609 779 1909 
Q 1175 2209 1959 2209 
L 2766 2209 
L 2766 2266 
Q 2766 2663 2505 2880 
Q 2244 3097 1772 3097 
Q 1472 3097 1187 3025 
Q 903 2953 641 2809 
L 641 3341 
Q 956 3463 1253 3523 
Q 1550 3584 1831 3584 
Q 2591 3584 2966 3190 
Q 3341 2797 3341 1997 
z
" transform="scale(0.015625)"/>
       <path id="DejaVuSans-6c" d="M 603 4863 
L 1178 4863 
L 1178 0 
L 603 0 
L 603 4863 
z
" transform="scale(0.015625)"/>
       <path id="DejaVuSans-56" d="M 1831 0 
L 50 4666 
L 709 4666 
L 2188 738 
L 3669 4666 
L 4325 4666 
L 2547 0 
L 1831 0 
z
" transform="scale(0.015625)"/>
      </defs>
      <use xlink:href="#DejaVuSans-53"/>
      <use xlink:href="#DejaVuSans-75" transform="translate(63.476562 0)"/>
      <use xlink:href="#DejaVuSans-72" transform="translate(126.855469 0)"/>
      <use xlink:href="#DejaVuSans-76" transform="translate(167.96875 0)"/>
      <use xlink:href="#DejaVuSans-69" transform="translate(227.148438 0)"/>
      <use xlink:href="#DejaVuSans-76" transform="translate(254.931641 0)"/>
      <use xlink:href="#DejaVuSans-61" transform="translate(314.111328 0)"/>
      <use xlink:href="#DejaVuSans-6c" transform="translate(375.390625 0)"/>
      <use xlink:href="#DejaVuSans-20" transform="translate(403.173828 0)"/>
      <use xlink:href="#DejaVuSans-56" transform="translate(434.960938 0)"/>
      <use xlink:href="#DejaVuSans-61" transform="translate(495.619141 0)"/>
      <use xlink:href="#DejaVuSans-6c" transform="translate(556.898438 0)"/>
      <use xlink:href="#DejaVuSans-75" transform="translate(584.681641 0)"/>
      <use xlink:href="#DejaVuSans-65" transform="translate(648.060547 0)"/>
     </g>
    </g>
   </g>
   <g id="line2d_27">
    <path d="M 69.144886 63.073781 
L 73.30286 303.622052 
L 77.460833 335.069921 
L 81.618806 338.992308 
L 85.776779 339.711673 
L 89.934752 339.820112 
L 94.092725 339.833792 
L 98.250699 339.837549 
L 102.408672 339.838022 
L 106.566645 339.838111 
L 110.724618 339.838123 
L 114.882591 339.838125 
L 119.040564 339.838125 
L 123.198538 339.838125 
L 127.356511 339.838125 
L 131.514484 339.838125 
L 135.672457 339.838125 
L 139.83043 339.838125 
L 143.988404 339.838125 
L 148.146377 339.838125 
L 152.30435 339.838125 
L 156.462323 339.838125 
L 160.620296 339.838125 
L 164.778269 339.838125 
L 168.936243 339.838125 
L 173.094216 339.838125 
L 177.252189 339.838125 
L 181.410162 339.838125 
L 185.568135 339.838125 
L 189.726108 339.838125 
L 193.884082 339.838125 
L 198.042055 339.838125 
L 202.200028 339.838125 
L 206.358001 339.838125 
L 210.515974 339.838125 
L 214.673947 339.838125 
L 218.831921 339.838125 
L 222.989894 339.838125 
L 227.147867 339.838125 
L 231.30584 339.838125 
L 235.463813 339.838125 
L 239.621787 339.838125 
L 243.77976 339.838125 
L 247.937733 339.838125 
L 252.095706 339.838125 
L 256.253679 339.838125 
L 260.411652 339.838125 
L 264.569626 339.838125 
L 268.727599 339.838125 
L 272.885572 339.838125 
L 277.043545 339.838125 
L 281.201518 339.838125 
L 285.359491 339.838125 
L 289.517465 339.838125 
L 293.675438 339.838125 
L 297.833411 339.838125 
L 301.991384 339.838125 
L 306.149357 339.838125 
L 310.30733 339.838125 
L 314.465304 339.838125 
L 318.623277 339.838125 
L 322.78125 339.838125 
L 326.939223 339.838125 
L 331.097196 339.838125 
L 335.25517 339.838125 
L 339.413143 339.838125 
L 343.571116 339.838125 
L 347.729089 339.838125 
L 351.887062 339.838125 
L 356.045035 339.838125 
L 360.203009 339.838125 
L 364.360982 339.838125 
L 368.518955 339.838125 
L 372.676928 339.838125 
L 376.834901 339.838125 
L 380.992874 339.838125 
L 385.150848 339.838125 
L 389.308821 339.838125 
L 393.466794 339.838125 
L 397.624767 339.838125 
L 401.78274 339.838125 
L 405.940713 339.838125 
L 410.098687 339.838125 
L 414.25666 339.838125 
L 418.414633 339.838125 
L 422.572606 339.838125 
L 426.730579 339.838125 
L 430.888553 339.838125 
L 435.046526 339.838125 
L 439.204499 339.838125 
L 443.362472 339.838125 
L 447.520445 339.838125 
L 451.678418 339.838125 
L 455.836392 339.838125 
L 459.994365 339.838125 
L 464.152338 339.838125 
L 468.310311 339.838125 
L 472.468284 339.838125 
L 476.626257 339.838125 
L 480.784231 339.838125 
L 484.942204 339.838125 
L 489.100177 339.838125 
L 493.25815 339.838125 
L 497.416123 339.838125 
L 501.574096 339.838125 
L 505.73207 339.838125 
L 509.890043 339.838125 
L 514.048016 339.838125 
L 518.205989 339.838125 
L 522.363962 339.838125 
L 526.521936 339.838125 
L 530.679909 339.838125 
L 534.837882 339.838125 
L 538.995855 339.838125 
L 543.153828 339.838125 
L 547.311801 339.838125 
L 551.469775 339.838125 
L 555.627748 339.838125 
L 559.785721 339.838125 
L 563.943694 339.838125 
L 568.101667 339.838125 
L 572.25964 339.838125 
L 576.417614 339.838125 
" clip-path="url(#pb115ae58bf)" style="fill: none; stroke: #1f77b4; stroke-width: 1.5; stroke-linecap: square"/>
   </g>
   <g id="line2d_28">
    <path d="M 69.144886 63.073781 
L 73.30286 68.244716 
L 77.460833 59.230852 
L 81.618806 109.912336 
L 85.776779 117.99397 
L 89.934752 99.258836 
L 94.092725 130.719659 
L 98.250699 125.732181 
L 102.408672 166.083868 
L 106.566645 170.414118 
L 110.724618 179.923038 
L 114.882591 158.092491 
L 119.040564 169.172132 
L 123.198538 171.015137 
L 127.356511 171.949872 
L 131.514484 166.511764 
L 135.672457 182.862552 
L 139.83043 187.618581 
L 143.988404 198.302679 
L 148.146377 206.86791 
L 152.30435 212.097716 
L 156.462323 190.985362 
L 160.620296 183.396999 
L 164.778269 191.42089 
L 168.936243 194.653297 
L 173.094216 170.939758 
L 177.252189 200.980165 
L 181.410162 208.178519 
L 185.568135 191.62867 
L 189.726108 192.67571 
L 193.884082 173.388733 
L 198.042055 180.203795 
L 202.200028 178.128134 
L 206.358001 197.035932 
L 210.515974 204.97064 
L 214.673947 224.13381 
L 218.831921 230.626117 
L 222.989894 227.614531 
L 227.147867 218.11256 
L 231.30584 211.744688 
L 235.463813 206.551739 
L 239.621787 181.937638 
L 243.77976 170.365905 
L 247.937733 180.629236 
L 252.095706 182.481443 
L 256.253679 163.889494 
L 260.411652 159.72203 
L 264.569626 154.554706 
L 268.727599 139.383036 
L 272.885572 159.391286 
L 277.043545 178.334344 
L 281.201518 171.405268 
L 285.359491 163.800285 
L 289.517465 167.813922 
L 293.675438 168.167959 
L 297.833411 136.022519 
L 301.991384 154.095786 
L 306.149357 176.734668 
L 310.30733 165.254897 
L 314.465304 165.369568 
L 318.623277 166.267188 
L 322.78125 143.298873 
L 326.939223 145.966072 
L 331.097196 164.741555 
L 335.25517 182.717963 
L 339.413143 176.032517 
L 343.571116 193.28627 
L 347.729089 206.762537 
L 351.887062 199.874519 
L 356.045035 215.09254 
L 360.203009 211.994357 
L 364.360982 212.105095 
L 368.518955 215.444451 
L 372.676928 205.770703 
L 376.834901 198.051448 
L 380.992874 197.740633 
L 385.150848 208.765133 
L 389.308821 202.076535 
L 393.466794 193.679253 
L 397.624767 180.179753 
L 401.78274 185.091069 
L 405.940713 170.735764 
L 410.098687 206.723274 
L 414.25666 222.129083 
L 418.414633 236.688181 
L 422.572606 234.183916 
L 426.730579 230.596144 
L 430.888553 237.468527 
L 435.046526 256.981721 
L 439.204499 253.567288 
L 443.362472 258.211103 
L 447.520445 253.072914 
L 451.678418 247.996038 
L 455.836392 240.225801 
L 459.994365 245.374202 
L 464.152338 250.363806 
L 468.310311 248.086193 
L 472.468284 240.460269 
L 476.626257 246.81801 
L 480.784231 252.934835 
L 484.942204 236.270716 
L 489.100177 220.293123 
L 493.25815 223.381957 
L 497.416123 228.474124 
L 501.574096 227.901714 
L 505.73207 225.302817 
L 509.890043 219.173098 
L 514.048016 229.188327 
L 518.205989 224.448843 
L 522.363962 219.765886 
L 526.521936 211.964975 
L 530.679909 224.701812 
L 534.837882 231.339374 
L 538.995855 234.499551 
L 543.153828 226.103567 
L 547.311801 226.733309 
L 551.469775 219.607343 
L 555.627748 212.520437 
L 559.785721 211.209107 
L 563.943694 216.454165 
L 568.101667 214.639988 
L 572.25964 206.114544 
L 576.417614 212.727853 
" clip-path="url(#pb115ae58bf)" style="fill: none; stroke-dasharray: 5.55,2.4; stroke-dashoffset: 0; stroke: #ff7f0e; stroke-width: 1.5"/>
   </g>
   <g id="line2d_29">
    <path d="M 131.514484 63.073781 
L 135.672457 247.793198 
L 139.83043 314.736687 
L 143.988404 331.378389 
L 148.146377 336.811985 
L 152.30435 338.961226 
L 156.462323 339.618817 
L 160.620296 339.783727 
L 164.778269 339.82017 
L 168.936243 339.834323 
L 173.094216 339.837312 
L 177.252189 339.837821 
L 181.410162 339.838003 
L 185.568135 339.838085 
L 189.726108 339.838108 
L 193.884082 339.838115 
L 198.042055 339.838121 
L 202.200028 339.838123 
L 206.358001 339.838124 
L 210.515974 339.838125 
L 214.673947 339.838125 
L 218.831921 339.838125 
L 222.989894 339.838125 
L 227.147867 339.838125 
L 231.30584 339.838125 
L 235.463813 339.838125 
L 239.621787 339.838125 
L 243.77976 339.838125 
L 247.937733 339.838125 
L 252.095706 339.838125 
L 256.253679 339.838125 
L 260.411652 339.838125 
L 264.569626 339.838125 
L 268.727599 339.838125 
L 272.885572 339.838125 
L 277.043545 339.838125 
L 281.201518 339.838125 
L 285.359491 339.838125 
L 289.517465 339.838125 
L 293.675438 339.838125 
L 297.833411 339.838125 
L 301.991384 339.838125 
L 306.149357 339.838125 
L 310.30733 339.838125 
L 314.465304 339.838125 
L 318.623277 339.838125 
L 322.78125 339.838125 
L 326.939223 339.838125 
L 331.097196 339.838125 
L 335.25517 339.838125 
L 339.413143 339.838125 
L 343.571116 339.838125 
L 347.729089 339.838125 
L 351.887062 339.838125 
L 356.045035 339.838125 
L 360.203009 339.838125 
L 364.360982 339.838125 
L 368.518955 339.838125 
L 372.676928 339.838125 
L 376.834901 339.838125 
L 380.992874 339.838125 
L 385.150848 339.838125 
L 389.308821 339.838125 
L 393.466794 339.838125 
L 397.624767 339.838125 
L 401.78274 339.838125 
L 405.940713 339.838125 
L 410.098687 339.838125 
L 414.25666 339.838125 
L 418.414633 339.838125 
L 422.572606 339.838125 
L 426.730579 339.838125 
L 430.888553 339.838125 
L 435.046526 339.838125 
L 439.204499 339.838125 
L 443.362472 339.838125 
L 447.520445 339.838125 
L 451.678418 339.838125 
L 455.836392 339.838125 
L 459.994365 339.838125 
L 464.152338 339.838125 
L 468.310311 339.838125 
L 472.468284 339.838125 
L 476.626257 339.838125 
L 480.784231 339.838125 
L 484.942204 339.838125 
L 489.100177 339.838125 
L 493.25815 339.838125 
L 497.416123 339.838125 
L 501.574096 339.838125 
L 505.73207 339.838125 
L 509.890043 339.838125 
L 514.048016 339.838125 
L 518.205989 339.838125 
L 522.363962 339.838125 
L 526.521936 339.838125 
L 530.679909 339.838125 
L 534.837882 339.838125 
L 538.995855 339.838125 
L 543.153828 339.838125 
L 547.311801 339.838125 
L 551.469775 339.838125 
L 555.627748 339.838125 
L 559.785721 339.838125 
L 563.943694 339.838125 
L 568.101667 339.838125 
L 572.25964 339.838125 
L 576.417614 339.838125 
" clip-path="url(#pb115ae58bf)" style="fill: none; stroke: #2ca02c; stroke-width: 1.5; stroke-linecap: square"/>
   </g>
   <g id="line2d_30">
    <path d="M 131.514484 63.073781 
L 135.672457 76.472569 
L 139.83043 102.878685 
L 143.988404 126.675716 
L 148.146377 115.331351 
L 152.30435 78.322406 
L 156.462323 68.096718 
L 160.620296 95.257933 
L 164.778269 57.221116 
L 168.936243 42.149533 
L 173.094216 41.926151 
L 177.252189 37.438125 
L 181.410162 41.688475 
L 185.568135 73.662874 
L 189.726108 49.343246 
L 193.884082 49.246523 
L 198.042055 63.272716 
L 202.200028 50.394462 
L 206.358001 87.758866 
L 210.515974 116.274802 
L 214.673947 95.122563 
L 218.831921 111.792005 
L 222.989894 129.040196 
L 227.147867 132.100708 
L 231.30584 128.129939 
L 235.463813 125.123716 
L 239.621787 137.521291 
L 243.77976 126.400817 
L 247.937733 110.382255 
L 252.095706 104.685908 
L 256.253679 143.886004 
L 260.411652 155.45248 
L 264.569626 153.586701 
L 268.727599 135.103662 
L 272.885572 130.791573 
L 277.043545 132.609547 
L 281.201518 160.947767 
L 285.359491 170.514852 
L 289.517465 171.662314 
L 293.675438 166.151887 
L 297.833411 162.792996 
L 301.991384 179.719133 
L 306.149357 174.190457 
L 310.30733 168.200896 
L 314.465304 175.810741 
L 318.623277 154.837934 
L 322.78125 147.882024 
L 326.939223 161.089328 
L 331.097196 173.847792 
L 335.25517 164.146773 
L 339.413143 171.574429 
L 343.571116 147.407691 
L 347.729089 150.791105 
L 351.887062 129.628703 
L 356.045035 138.135196 
L 360.203009 131.489269 
L 364.360982 140.51266 
L 368.518955 136.660904 
L 372.676928 161.572187 
L 376.834901 161.564849 
L 380.992874 149.543028 
L 385.150848 137.842079 
L 389.308821 149.520224 
L 393.466794 146.827733 
L 397.624767 151.952725 
L 401.78274 163.212975 
L 405.940713 163.02224 
L 410.098687 154.132281 
L 414.25666 142.660119 
L 418.414633 155.632801 
L 422.572606 144.69654 
L 426.730579 153.146216 
L 430.888553 158.634275 
L 435.046526 128.575537 
L 439.204499 134.241259 
L 443.362472 124.17119 
L 447.520445 115.813426 
L 451.678418 136.934158 
L 455.836392 144.133728 
L 459.994365 123.067919 
L 464.152338 132.59553 
L 468.310311 132.474546 
L 472.468284 152.292861 
L 476.626257 177.772894 
L 480.784231 185.822038 
L 484.942204 187.78021 
L 489.100177 180.046413 
L 493.25815 176.625547 
L 497.416123 191.230366 
L 501.574096 202.801092 
L 505.73207 179.968162 
L 509.890043 173.175287 
L 514.048016 190.957558 
L 518.205989 177.459546 
L 522.363962 166.566285 
L 526.521936 172.514504 
L 530.679909 188.762701 
L 534.837882 195.181597 
L 538.995855 208.637937 
L 543.153828 206.750998 
L 547.311801 213.050905 
L 551.469775 222.795329 
L 555.627748 214.517804 
L 559.785721 204.038554 
L 563.943694 178.609622 
L 568.101667 194.644136 
L 572.25964 184.041247 
L 576.417614 153.48255 
" clip-path="url(#pb115ae58bf)" style="fill: none; stroke-dasharray: 5.55,2.4; stroke-dashoffset: 0; stroke: #d62728; stroke-width: 1.5"/>
   </g>
   <g id="line2d_31">
    <path d="M 256.253679 63.073781 
L 260.411652 234.419945 
L 264.569626 294.565582 
L 268.727599 317.027241 
L 272.885572 326.888058 
L 277.043545 333.606693 
L 281.201518 336.47444 
L 285.359491 338.019559 
L 289.517465 339.013894 
L 293.675438 339.40783 
L 297.833411 339.620358 
L 301.991384 339.719782 
L 306.149357 339.778565 
L 310.30733 339.802541 
L 314.465304 339.81857 
L 318.623277 339.827661 
L 322.78125 339.834187 
L 326.939223 339.83579 
L 331.097196 339.837161 
L 335.25517 339.837433 
L 339.413143 339.83776 
L 343.571116 339.837919 
L 347.729089 339.838014 
L 351.887062 339.838055 
L 356.045035 339.838078 
L 360.203009 339.838099 
L 364.360982 339.838108 
L 368.518955 339.838116 
L 372.676928 339.838121 
L 376.834901 339.838123 
L 380.992874 339.838124 
L 385.150848 339.838124 
L 389.308821 339.838125 
L 393.466794 339.838125 
L 397.624767 339.838125 
L 401.78274 339.838125 
L 405.940713 339.838125 
L 410.098687 339.838125 
L 414.25666 339.838125 
L 418.414633 339.838125 
L 422.572606 339.838125 
L 426.730579 339.838125 
L 430.888553 339.838125 
L 435.046526 339.838125 
L 439.204499 339.838125 
L 443.362472 339.838125 
L 447.520445 339.838125 
L 451.678418 339.838125 
L 455.836392 339.838125 
L 459.994365 339.838125 
L 464.152338 339.838125 
L 468.310311 339.838125 
L 472.468284 339.838125 
L 476.626257 339.838125 
L 480.784231 339.838125 
L 484.942204 339.838125 
L 489.100177 339.838125 
L 493.25815 339.838125 
L 497.416123 339.838125 
L 501.574096 339.838125 
L 505.73207 339.838125 
L 509.890043 339.838125 
L 514.048016 339.838125 
L 518.205989 339.838125 
L 522.363962 339.838125 
L 526.521936 339.838125 
L 530.679909 339.838125 
L 534.837882 339.838125 
L 538.995855 339.838125 
L 543.153828 339.838125 
L 547.311801 339.838125 
L 551.469775 339.838125 
L 555.627748 339.838125 
L 559.785721 339.838125 
L 563.943694 339.838125 
L 568.101667 339.838125 
L 572.25964 339.838125 
L 576.417614 339.838125 
" clip-path="url(#pb115ae58bf)" style="fill: none; stroke: #9467bd; stroke-width: 1.5; stroke-linecap: square"/>
   </g>
   <g id="line2d_32">
    <path d="M 256.253679 63.073781 
L 260.411652 111.181619 
L 264.569626 114.160681 
L 268.727599 129.229403 
L 272.885572 134.135059 
L 277.043545 113.722157 
L 281.201518 113.98127 
L 285.359491 99.626989 
L 289.517465 101.872133 
L 293.675438 97.852198 
L 297.833411 125.804923 
L 301.991384 147.034082 
L 306.149357 135.736879 
L 310.30733 109.731592 
L 314.465304 119.20607 
L 318.623277 113.153802 
L 322.78125 114.401722 
L 326.939223 122.370564 
L 331.097196 141.411594 
L 335.25517 154.012582 
L 339.413143 173.393955 
L 343.571116 153.083087 
L 347.729089 155.92234 
L 351.887062 140.61072 
L 356.045035 122.832052 
L 360.203009 136.542668 
L 364.360982 139.266065 
L 368.518955 135.210598 
L 372.676928 131.843903 
L 376.834901 130.20552 
L 380.992874 144.805569 
L 385.150848 143.254847 
L 389.308821 142.622968 
L 393.466794 163.221001 
L 397.624767 159.60459 
L 401.78274 171.434432 
L 405.940713 193.452523 
L 410.098687 175.45688 
L 414.25666 172.92484 
L 418.414633 197.652991 
L 422.572606 212.803252 
L 426.730579 221.68152 
L 430.888553 226.703641 
L 435.046526 209.646791 
L 439.204499 209.168261 
L 443.362472 200.485554 
L 447.520445 221.797108 
L 451.678418 219.796227 
L 455.836392 231.177597 
L 459.994365 212.810789 
L 464.152338 214.794234 
L 468.310311 215.022522 
L 472.468284 226.820312 
L 476.626257 235.055445 
L 480.784231 243.39446 
L 484.942204 262.961483 
L 489.100177 271.741605 
L 493.25815 264.550945 
L 497.416123 273.894183 
L 501.574096 274.944302 
L 505.73207 265.494757 
L 509.890043 266.102517 
L 514.048016 271.721781 
L 518.205989 264.672538 
L 522.363962 269.209807 
L 526.521936 258.42679 
L 530.679909 250.996124 
L 534.837882 251.236545 
L 538.995855 246.470105 
L 543.153828 255.714021 
L 547.311801 265.929181 
L 551.469775 272.654353 
L 555.627748 268.547931 
L 559.785721 263.5759 
L 563.943694 255.59548 
L 568.101667 271.194212 
L 572.25964 269.271891 
L 576.417614 267.173162 
" clip-path="url(#pb115ae58bf)" style="fill: none; stroke-dasharray: 5.55,2.4; stroke-dashoffset: 0; stroke: #8c564b; stroke-width: 1.5"/>
   </g>
   <g id="patch_3">
    <path d="M 43.78125 354.958125 
L 43.78125 22.318125 
" style="fill: none; stroke: #000000; stroke-width: 0.8; stroke-linejoin: miter; stroke-linecap: square"/>
   </g>
   <g id="patch_4">
    <path d="M 601.78125 354.958125 
L 601.78125 22.318125 
" style="fill: none; stroke: #000000; stroke-width: 0.8; stroke-linejoin: miter; stroke-linecap: square"/>
   </g>
   <g id="patch_5">
    <path d="M 43.78125 354.958125 
L 601.78125 354.958125 
" style="fill: none; stroke: #000000; stroke-width: 0.8; stroke-linejoin: miter; stroke-linecap: square"/>
   </g>
   <g id="patch_6">
    <path d="M 43.78125 22.318125 
L 601.78125 22.318125 
" style="fill: none; stroke: #000000; stroke-width: 0.8; stroke-linejoin: miter; stroke-linecap: square"/>
   </g>
   <g id="text_16">
    <!-- Memory Survival Factor: VLA vs DeltaNet -->
    <g transform="translate(199.463437 16.318125) scale(0.12 -0.12)">
     <defs>
      <path id="DejaVuSans-4d" d="M 628 4666 
L 1569 4666 
L 2759 1491 
L 3956 4666 
L 4897 4666 
L 4897 0 
L 4281 0 
L 4281 4097 
L 3078 897 
L 2444 897 
L 1241 4097 
L 1241 0 
L 628 0 
L 628 4666 
z
" transform="scale(0.015625)"/>
      <path id="DejaVuSans-6f" d="M 1959 3097 
Q 1497 3097 1228 2736 
Q 959 2375 959 1747 
Q 959 1119 1226 758 
Q 1494 397 1959 397 
Q 2419 397 2687 759 
Q 2956 1122 2956 1747 
Q 2956 2369 2687 2733 
Q 2419 3097 1959 3097 
z
M 1959 3584 
Q 2709 3584 3137 3096 
Q 3566 2609 3566 1747 
Q 3566 888 3137 398 
Q 2709 -91 1959 -91 
Q 1206 -91 779 398 
Q 353 888 353 1747 
Q 353 2609 779 3096 
Q 1206 3584 1959 3584 
z
" transform="scale(0.015625)"/>
      <path id="DejaVuSans-79" d="M 2059 -325 
Q 1816 -950 1584 -1140 
Q 1353 -1331 966 -1331 
L 506 -1331 
L 506 -850 
L 844 -850 
Q 1081 -850 1212 -737 
Q 1344 -625 1503 -206 
L 1606 56 
L 191 3500 
L 800 3500 
L 1894 763 
L 2988 3500 
L 3597 3500 
L 2059 -325 
z
" transform="scale(0.015625)"/>
      <path id="DejaVuSans-46" d="M 628 4666 
L 3309 4666 
L 3309 4134 
L 1259 4134 
L 1259 2759 
L 3109 2759 
L 3109 2228 
L 1259 2228 
L 1259 0 
L 628 0 
L 628 4666 
z
" transform="scale(0.015625)"/>
      <path id="DejaVuSans-63" d="M 3122 3366 
L 3122 2828 
Q 2878 2963 2633 3030 
Q 2388 3097 2138 3097 
Q 1578 3097 1268 2742 
Q 959 2388 959 1747 
Q 959 1106 1268 751 
Q 1578 397 2138 397 
Q 2388 397 2633 464 
Q 2878 531 3122 666 
L 3122 134 
Q 2881 22 2623 -34 
Q 2366 -91 2075 -91 
Q 1284 -91 818 406 
Q 353 903 353 1747 
Q 353 2603 823 3093 
Q 1294 3584 2113 3584 
Q 2378 3584 2631 3529 
Q 2884 3475 3122 3366 
z
" transform="scale(0.015625)"/>
      <path id="DejaVuSans-3a" d="M 750 794 
L 1409 794 
L 1409 0 
L 750 0 
L 750 794 
z
M 750 3309 
L 1409 3309 
L 1409 2516 
L 750 2516 
L 750 3309 
z
" transform="scale(0.015625)"/>
      <path id="DejaVuSans-4c" d="M 628 4666 
L 1259 4666 
L 1259 531 
L 3531 531 
L 3531 0 
L 628 0 
L 628 4666 
z
" transform="scale(0.015625)"/>
      <path id="DejaVuSans-41" d="M 2188 4044 
L 1331 1722 
L 3047 1722 
L 2188 4044 
z
M 1831 4666 
L 2547 4666 
L 4325 0 
L 3669 0 
L 3244 1197 
L 1141 1197 
L 716 0 
L 50 0 
L 1831 4666 
z
" transform="scale(0.015625)"/>
      <path id="DejaVuSans-44" d="M 1259 4147 
L 1259 519 
L 2022 519 
Q 2988 519 3436 956 
Q 3884 1394 3884 2338 
Q 3884 3275 3436 3711 
Q 2988 4147 2022 4147 
L 1259 4147 
z
M 628 4666 
L 1925 4666 
Q 3281 4666 3915 4102 
Q 4550 3538 4550 2338 
Q 4550 1131 3912 565 
Q 3275 0 1925 0 
L 628 0 
L 628 4666 
z
" transform="scale(0.015625)"/>
      <path id="DejaVuSans-4e" d="M 628 4666 
L 1478 4666 
L 3547 763 
L 3547 4666 
L 4159 4666 
L 4159 0 
L 3309 0 
L 1241 3903 
L 1241 0 
L 628 0 
L 628 4666 
z
" transform="scale(0.015625)"/>
     </defs>
     <use xlink:href="#DejaVuSans-4d"/>
     <use xlink:href="#DejaVuSans-65" transform="translate(86.279297 0)"/>
     <use xlink:href="#DejaVuSans-6d" transform="translate(147.802734 0)"/>
     <use xlink:href="#DejaVuSans-6f" transform="translate(245.214844 0)"/>
     <use xlink:href="#DejaVuSans-72" transform="translate(306.396484 0)"/>
     <use xlink:href="#DejaVuSans-79" transform="translate(347.509766 0)"/>
     <use xlink:href="#DejaVuSans-20" transform="translate(406.689453 0)"/>
     <use xlink:href="#DejaVuSans-53" transform="translate(438.476562 0)"/>
     <use xlink:href="#DejaVuSans-75" transform="translate(501.953125 0)"/>
     <use xlink:href="#DejaVuSans-72" transform="translate(565.332031 0)"/>
     <use xlink:href="#DejaVuSans-76" transform="translate(606.445312 0)"/>
     <use xlink:href="#DejaVuSans-69" transform="translate(665.625 0)"/>
     <use xlink:href="#DejaVuSans-76" transform="translate(693.408203 0)"/>
     <use xlink:href="#DejaVuSans-61" transform="translate(752.587891 0)"/>
     <use xlink:href="#DejaVuSans-6c" transform="translate(813.867188 0)"/>
     <use xlink:href="#DejaVuSans-20" transform="translate(841.650391 0)"/>
     <use xlink:href="#DejaVuSans-46" transform="translate(873.4375 0)"/>
     <use xlink:href="#DejaVuSans-61" transform="translate(921.832031 0)"/>
     <use xlink:href="#DejaVuSans-63" transform="translate(983.111328 0)"/>
     <use xlink:href="#DejaVuSans-74" transform="translate(1038.091797 0)"/>
     <use xlink:href="#DejaVuSans-6f" transform="translate(1077.300781 0)"/>
     <use xlink:href="#DejaVuSans-72" transform="translate(1138.482422 0)"/>
     <use xlink:href="#DejaVuSans-3a" transform="translate(1177.845703 0)"/>
     <use xlink:href="#DejaVuSans-20" transform="translate(1211.537109 0)"/>
     <use xlink:href="#DejaVuSans-56" transform="translate(1243.324219 0)"/>
     <use xlink:href="#DejaVuSans-4c" transform="translate(1311.732422 0)"/>
     <use xlink:href="#DejaVuSans-41" transform="translate(1369.695312 0)"/>
     <use xlink:href="#DejaVuSans-20" transform="translate(1438.103516 0)"/>
     <use xlink:href="#DejaVuSans-76" transform="translate(1469.890625 0)"/>
     <use xlink:href="#DejaVuSans-73" transform="translate(1529.070312 0)"/>
     <use xlink:href="#DejaVuSans-20" transform="translate(1581.169922 0)"/>
     <use xlink:href="#DejaVuSans-44" transform="translate(1612.957031 0)"/>
     <use xlink:href="#DejaVuSans-65" transform="translate(1689.958984 0)"/>
     <use xlink:href="#DejaVuSans-6c" transform="translate(1751.482422 0)"/>
     <use xlink:href="#DejaVuSans-74" transform="translate(1779.265625 0)"/>
     <use xlink:href="#DejaVuSans-61" transform="translate(1818.474609 0)"/>
     <use xlink:href="#DejaVuSans-4e" transform="translate(1879.753906 0)"/>
     <use xlink:href="#DejaVuSans-65" transform="translate(1954.558594 0)"/>
     <use xlink:href="#DejaVuSans-74" transform="translate(2016.082031 0)"/>
    </g>
   </g>
   <g id="legend_1">
    <g id="patch_7">
     <path d="M 458.795313 118.386875 
L 594.78125 118.386875 
Q 596.78125 118.386875 596.78125 116.386875 
L 596.78125 29.318125 
Q 596.78125 27.318125 594.78125 27.318125 
L 458.795313 27.318125 
Q 456.795313 27.318125 456.795313 29.318125 
L 456.795313 116.386875 
Q 456.795313 118.386875 458.795313 118.386875 
z
" style="fill: #ffffff; opacity: 0.8; stroke: #cccccc; stroke-linejoin: miter"/>
    </g>
    <g id="line2d_33">
     <path d="M 460.795313 35.416562 
L 470.795313 35.416562 
L 480.795313 35.416562 
" style="fill: none; stroke: #1f77b4; stroke-width: 1.5; stroke-linecap: square"/>
    </g>
    <g id="text_17">
     <!-- VLA Memory 5 -->
     <g transform="translate(488.795313 38.916562) scale(0.1 -0.1)">
      <defs>
       <path id="DejaVuSans-35" d="M 691 4666 
L 3169 4666 
L 3169 4134 
L 1269 4134 
L 1269 2991 
Q 1406 3038 1543 3061 
Q 1681 3084 1819 3084 
Q 2600 3084 3056 2656 
Q 3513 2228 3513 1497 
Q 3513 744 3044 326 
Q 2575 -91 1722 -91 
Q 1428 -91 1123 -41 
Q 819 9 494 109 
L 494 744 
Q 775 591 1075 516 
Q 1375 441 1709 441 
Q 2250 441 2565 725 
Q 2881 1009 2881 1497 
Q 2881 1984 2565 2268 
Q 2250 2553 1709 2553 
Q 1456 2553 1204 2497 
Q 953 2441 691 2322 
L 691 4666 
z
" transform="scale(0.015625)"/>
      </defs>
      <use xlink:href="#DejaVuSans-56"/>
      <use xlink:href="#DejaVuSans-4c" transform="translate(68.408203 0)"/>
      <use xlink:href="#DejaVuSans-41" transform="translate(126.371094 0)"/>
      <use xlink:href="#DejaVuSans-20" transform="translate(194.779297 0)"/>
      <use xlink:href="#DejaVuSans-4d" transform="translate(226.566406 0)"/>
      <use xlink:href="#DejaVuSans-65" transform="translate(312.845703 0)"/>
      <use xlink:href="#DejaVuSans-6d" transform="translate(374.369141 0)"/>
      <use xlink:href="#DejaVuSans-6f" transform="translate(471.78125 0)"/>
      <use xlink:href="#DejaVuSans-72" transform="translate(532.962891 0)"/>
      <use xlink:href="#DejaVuSans-79" transform="translate(574.076172 0)"/>
      <use xlink:href="#DejaVuSans-20" transform="translate(633.255859 0)"/>
      <use xlink:href="#DejaVuSans-35" transform="translate(665.042969 0)"/>
     </g>
    </g>
    <g id="line2d_34">
     <path d="M 460.795313 50.094688 
L 470.795313 50.094688 
L 480.795313 50.094688 
" style="fill: none; stroke-dasharray: 5.55,2.4; stroke-dashoffset: 0; stroke: #ff7f0e; stroke-width: 1.5"/>
    </g>
    <g id="text_18">
     <!-- DeltaNet Memory 5 -->
     <g transform="translate(488.795313 53.594688) scale(0.1 -0.1)">
      <use xlink:href="#DejaVuSans-44"/>
      <use xlink:href="#DejaVuSans-65" transform="translate(77.001953 0)"/>
      <use xlink:href="#DejaVuSans-6c" transform="translate(138.525391 0)"/>
      <use xlink:href="#DejaVuSans-74" transform="translate(166.308594 0)"/>
      <use xlink:href="#DejaVuSans-61" transform="translate(205.517578 0)"/>
      <use xlink:href="#DejaVuSans-4e" transform="translate(266.796875 0)"/>
      <use xlink:href="#DejaVuSans-65" transform="translate(341.601562 0)"/>
      <use xlink:href="#DejaVuSans-74" transform="translate(403.125 0)"/>
      <use xlink:href="#DejaVuSans-20" transform="translate(442.333984 0)"/>
      <use xlink:href="#DejaVuSans-4d" transform="translate(474.121094 0)"/>
      <use xlink:href="#DejaVuSans-65" transform="translate(560.400391 0)"/>
      <use xlink:href="#DejaVuSans-6d" transform="translate(621.923828 0)"/>
      <use xlink:href="#DejaVuSans-6f" transform="translate(719.335938 0)"/>
      <use xlink:href="#DejaVuSans-72" transform="translate(780.517578 0)"/>
      <use xlink:href="#DejaVuSans-79" transform="translate(821.630859 0)"/>
      <use xlink:href="#DejaVuSans-20" transform="translate(880.810547 0)"/>
      <use xlink:href="#DejaVuSans-35" transform="translate(912.597656 0)"/>
     </g>
    </g>
    <g id="line2d_35">
     <path d="M 460.795313 64.772812 
L 470.795313 64.772812 
L 480.795313 64.772812 
" style="fill: none; stroke: #2ca02c; stroke-width: 1.5; stroke-linecap: square"/>
    </g>
    <g id="text_19">
     <!-- VLA Memory 20 -->
     <g transform="translate(488.795313 68.272812) scale(0.1 -0.1)">
      <use xlink:href="#DejaVuSans-56"/>
      <use xlink:href="#DejaVuSans-4c" transform="translate(68.408203 0)"/>
      <use xlink:href="#DejaVuSans-41" transform="translate(126.371094 0)"/>
      <use xlink:href="#DejaVuSans-20" transform="translate(194.779297 0)"/>
      <use xlink:href="#DejaVuSans-4d" transform="translate(226.566406 0)"/>
      <use xlink:href="#DejaVuSans-65" transform="translate(312.845703 0)"/>
      <use xlink:href="#DejaVuSans-6d" transform="translate(374.369141 0)"/>
      <use xlink:href="#DejaVuSans-6f" transform="translate(471.78125 0)"/>
      <use xlink:href="#DejaVuSans-72" transform="translate(532.962891 0)"/>
      <use xlink:href="#DejaVuSans-79" transform="translate(574.076172 0)"/>
      <use xlink:href="#DejaVuSans-20" transform="translate(633.255859 0)"/>
      <use xlink:href="#DejaVuSans-32" transform="translate(665.042969 0)"/>
      <use xlink:href="#DejaVuSans-30" transform="translate(728.666016 0)"/>
     </g>
    </g>
    <g id="line2d_36">
     <path d="M 460.795313 79.450938 
L 470.795313 79.450938 
L 480.795313 79.450938 
" style="fill: none; stroke-dasharray: 5.55,2.4; stroke-dashoffset: 0; stroke: #d62728; stroke-width: 1.5"/>
    </g>
    <g id="text_20">
     <!-- DeltaNet Memory 20 -->
     <g transform="translate(488.795313 82.950938) scale(0.1 -0.1)">
      <use xlink:href="#DejaVuSans-44"/>
      <use xlink:href="#DejaVuSans-65" transform="translate(77.001953 0)"/>
      <use xlink:href="#DejaVuSans-6c" transform="translate(138.525391 0)"/>
      <use xlink:href="#DejaVuSans-74" transform="translate(166.308594 0)"/>
      <use xlink:href="#DejaVuSans-61" transform="translate(205.517578 0)"/>
      <use xlink:href="#DejaVuSans-4e" transform="translate(266.796875 0)"/>
      <use xlink:href="#DejaVuSans-65" transform="translate(341.601562 0)"/>
      <use xlink:href="#DejaVuSans-74" transform="translate(403.125 0)"/>
      <use xlink:href="#DejaVuSans-20" transform="translate(442.333984 0)"/>
      <use xlink:href="#DejaVuSans-4d" transform="translate(474.121094 0)"/>
      <use xlink:href="#DejaVuSans-65" transform="translate(560.400391 0)"/>
      <use xlink:href="#DejaVuSans-6d" transform="translate(621.923828 0)"/>
      <use xlink:href="#DejaVuSans-6f" transform="translate(719.335938 0)"/>
      <use xlink:href="#DejaVuSans-72" transform="translate(780.517578 0)"/>
      <use xlink:href="#DejaVuSans-79" transform="translate(821.630859 0)"/>
      <use xlink:href="#DejaVuSans-20" transform="translate(880.810547 0)"/>
      <use xlink:href="#DejaVuSans-32" transform="translate(912.597656 0)"/>
      <use xlink:href="#DejaVuSans-30" transform="translate(976.220703 0)"/>
     </g>
    </g>
    <g id="line2d_37">
     <path d="M 460.795313 94.129063 
L 470.795313 94.129063 
L 480.795313 94.129063 
" style="fill: none; stroke: #9467bd; stroke-width: 1.5; stroke-linecap: square"/>
    </g>
    <g id="text_21">
     <!-- VLA Memory 50 -->
     <g transform="translate(488.795313 97.629063) scale(0.1 -0.1)">
      <use xlink:href="#DejaVuSans-56"/>
      <use xlink:href="#DejaVuSans-4c" transform="translate(68.408203 0)"/>
      <use xlink:href="#DejaVuSans-41" transform="translate(126.371094 0)"/>
      <use xlink:href="#DejaVuSans-20" transform="translate(194.779297 0)"/>
      <use xlink:href="#DejaVuSans-4d" transform="translate(226.566406 0)"/>
      <use xlink:href="#DejaVuSans-65" transform="translate(312.845703 0)"/>
      <use xlink:href="#DejaVuSans-6d" transform="translate(374.369141 0)"/>
      <use xlink:href="#DejaVuSans-6f" transform="translate(471.78125 0)"/>
      <use xlink:href="#DejaVuSans-72" transform="translate(532.962891 0)"/>
      <use xlink:href="#DejaVuSans-79" transform="translate(574.076172 0)"/>
      <use xlink:href="#DejaVuSans-20" transform="translate(633.255859 0)"/>
      <use xlink:href="#DejaVuSans-35" transform="translate(665.042969 0)"/>
      <use xlink:href="#DejaVuSans-30" transform="translate(728.666016 0)"/>
     </g>
    </g>
    <g id="line2d_38">
     <path d="M 460.795313 108.807187 
L 470.795313 108.807187 
L 480.795313 108.807187 
" style="fill: none; stroke-dasharray: 5.55,2.4; stroke-dashoffset: 0; stroke: #8c564b; stroke-width: 1.5"/>
    </g>
    <g id="text_22">
     <!-- DeltaNet Memory 50 -->
     <g transform="translate(488.795313 112.307187) scale(0.1 -0.1)">
      <use xlink:href="#DejaVuSans-44"/>
      <use xlink:href="#DejaVuSans-65" transform="translate(77.001953 0)"/>
      <use xlink:href="#DejaVuSans-6c" transform="translate(138.525391 0)"/>
      <use xlink:href="#DejaVuSans-74" transform="translate(166.308594 0)"/>
      <use xlink:href="#DejaVuSans-61" transform="translate(205.517578 0)"/>
      <use xlink:href="#DejaVuSans-4e" transform="translate(266.796875 0)"/>
      <use xlink:href="#DejaVuSans-65" transform="translate(341.601562 0)"/>
      <use xlink:href="#DejaVuSans-74" transform="translate(403.125 0)"/>
      <use xlink:href="#DejaVuSans-20" transform="translate(442.333984 0)"/>
      <use xlink:href="#DejaVuSans-4d" transform="translate(474.121094 0)"/>
      <use xlink:href="#DejaVuSans-65" transform="translate(560.400391 0)"/>
      <use xlink:href="#DejaVuSans-6d" transform="translate(621.923828 0)"/>
      <use xlink:href="#DejaVuSans-6f" transform="translate(719.335938 0)"/>
      <use xlink:href="#DejaVuSans-72" transform="translate(780.517578 0)"/>
      <use xlink:href="#DejaVuSans-79" transform="translate(821.630859 0)"/>
      <use xlink:href="#DejaVuSans-20" transform="translate(880.810547 0)"/>
      <use xlink:href="#DejaVuSans-35" transform="translate(912.597656 0)"/>
      <use xlink:href="#DejaVuSans-30" transform="translate(976.220703 0)"/>
     </g>
    </g>
   </g>
  </g>
 </g>
 <defs>
  <clipPath id="pb115ae58bf">
   <rect x="43.78125" y="22.318125" width="558" height="332.64"/>
  </clipPath>
 </defs>
</svg>
